<svg width="64" height="64" viewBox="0 0 64 64" fill="none" xmlns="http://www.w3.org/2000/svg">
<path d="M53.725 43.825H22.975C22.425 43.825 22 44.275 22 44.8V62.375C22 62.925 22.45 63.35 22.975 63.35H53.725C54.275 63.35 54.7 62.9 54.7 62.375V44.8C54.725 44.275 54.275 43.825 53.725 43.825Z" fill="#7FCBCE" fill-opacity="0.47"/>
<path d="M57.5248 39.825H26.7748C26.2248 39.825 25.7998 40.275 25.7998 40.8V43.825H53.7498C54.2998 43.825 54.7248 44.275 54.7248 44.8V59.375H57.5248C58.0748 59.375 58.4998 58.925 58.4998 58.4V40.825C58.4998 40.25 58.0498 39.825 57.5248 39.825Z" fill="#EDEBEB"/>
<path d="M58.5001 48.075V43.825H53.7251C54.2751 43.825 54.7001 44.275 54.7001 44.8V48.075H58.5001Z" fill="#5B5D60"/>
<path d="M52.4999 49.425C50.8749 48.925 49.6249 47.675 49.1249 46.05C49.0749 45.875 48.9249 45.75 48.7249 45.75H27.9749C27.7999 45.75 27.6249 45.875 27.5749 46.05C27.0749 47.675 25.8249 48.925 24.1999 49.425C24.0249 49.475 23.8999 49.625 23.8999 49.825V57.4C23.8999 57.575 24.0249 57.75 24.1999 57.8C25.8249 58.3 27.0749 59.55 27.5749 61.175C27.6249 61.35 27.7749 61.475 27.9749 61.475H48.7249C48.8999 61.475 49.0749 61.35 49.1249 61.175C49.6249 59.55 50.8749 58.3 52.4999 57.8C52.6749 57.75 52.7999 57.6 52.7999 57.4V49.825C52.7749 49.625 52.6749 49.475 52.4999 49.425Z" fill="white"/>
<path d="M33.9749 12.575C33.7999 12.575 33.5999 12.6 33.4249 12.625V19.075C33.4249 19.275 33.4249 19.45 33.3999 19.65C35.3499 19.975 37.1749 18.65 37.4749 16.7C37.7749 14.75 36.4749 12.925 34.5249 12.625C34.3749 12.6 34.1749 12.575 33.9749 12.575Z" fill="white"/>
<path d="M16.4002 19.075V12.625C14.4502 12.3 12.6252 13.625 12.3252 15.575C12.0252 17.525 13.3252 19.35 15.2752 19.65C15.6502 19.725 16.0502 19.7 16.4502 19.65C16.4002 19.45 16.4002 19.275 16.4002 19.075Z" fill="white"/>
<path d="M26.1999 8.72501C23.0749 12.65 18.4999 12.1 16.9499 11.775C16.6999 11.725 16.4749 11.875 16.3999 12.125C16.3999 12.15 16.3999 12.175 16.3999 12.225V19.075C16.4249 23.775 20.2249 27.575 24.9249 27.6C29.6249 27.575 33.4249 23.775 33.4499 19.075V11.475C33.4499 11.425 33.4499 11.375 33.4499 11.35C33.4499 11.1 33.2499 10.9 32.9999 10.9C29.4499 10.8 27.5999 9.40001 26.8749 8.70001C26.6999 8.52501 26.3999 8.52501 26.2249 8.70001L26.1999 8.72501Z" fill="white"/>
<path d="M15.85 12.575C16.025 12.575 16.225 12.6 16.4 12.625V12.225C16.4 11.975 16.6 11.775 16.85 11.775C16.875 11.775 16.9 11.775 16.95 11.775C18.5 12.1 23.075 12.65 26.2 8.725C26.35 8.525 26.65 8.5 26.85 8.65C26.875 8.65 26.875 8.675 26.9 8.675C27.625 9.375 29.475 10.775 33.025 10.875C33.275 10.875 33.45 11.075 33.475 11.325C33.475 11.375 33.475 11.425 33.475 11.45V12.6C34.575 12.425 35.7 12.775 36.5 13.55V7.175C36.5 4.5 34.325 2.325 31.625 2.3C30.75 2.3 29.9 2.55 29.15 3C28.275 1.525 26.7 0.625 24.975 0.625H22.475C17.575 0.65 13.65 4.575 13.625 9.425V13.375C14.25 12.85 15.05 12.575 15.85 12.575Z" fill="#384449"/>
<path d="M38.3502 59.125C41.4016 59.125 43.8752 56.6514 43.8752 53.6C43.8752 50.5486 41.4016 48.075 38.3502 48.075C35.2988 48.075 32.8252 50.5486 32.8252 53.6C32.8252 56.6514 35.2988 59.125 38.3502 59.125Z" fill="#7FCBCE" fill-opacity="0.47"/>
<path d="M43.1749 36.575C43.0749 35 41.9749 33.675 40.4499 33.275L34.1749 31.7C33.6499 31.575 33.1249 31.375 32.6249 31.125L30.6249 30.15C29.6749 29.675 29.0999 28.725 29.0999 27.675V26.475C27.8249 27.2 26.3749 27.6 24.8999 27.6C23.4249 27.6 21.9749 27.225 20.6999 26.475V27.7C20.6999 28.75 20.0999 29.7 19.1749 30.175L17.1749 31.15C16.6749 31.4 16.1749 31.575 15.6249 31.725L9.34991 33.3C7.82491 33.675 6.72491 35.025 6.62491 36.6L6.34991 47.75C6.32491 48.475 6.89991 49.05 7.59991 49.075H7.62491H21.9999V44.85C21.9999 44.3 22.4499 43.875 22.9749 43.875H25.7749V40.85C25.7749 40.3 26.2249 39.875 26.7499 39.875H43.2499L43.1749 36.575Z" fill="#7FCBCE" fill-opacity="0.47"/>
<path d="M32.1 30.875L30.65 30.15C29.7 29.675 29.125 28.725 29.125 27.675V26.475C27.85 27.2 26.4 27.6 24.925 27.6C23.45 27.6 22 27.225 20.725 26.475V27.7C20.725 28.75 20.125 29.7 19.2 30.175L17.75 30.9C19.3 33.375 22.025 34.875 24.95 34.875C27.85 34.85 30.55 33.35 32.1 30.875Z" fill="white"/>
<path d="M24.9249 23.575C23.3499 23.575 21.8999 22.775 21.0749 21.45C20.8999 21.15 20.9749 20.775 21.2749 20.575C21.5749 20.4 21.9499 20.475 22.1499 20.775C23.1249 22.325 25.1499 22.775 26.6999 21.825C27.1249 21.55 27.4749 21.2 27.7499 20.775C27.9249 20.475 28.3249 20.4 28.6249 20.575C28.9249 20.75 28.9999 21.15 28.8249 21.45C27.9499 22.775 26.4749 23.575 24.9249 23.575Z" fill="#263238"/>
<path d="M21.25 17.5C21.8023 17.5 22.25 17.0523 22.25 16.5C22.25 15.9477 21.8023 15.5 21.25 15.5C20.6977 15.5 20.25 15.9477 20.25 16.5C20.25 17.0523 20.6977 17.5 21.25 17.5Z" fill="#263238"/>
<path d="M28.75 17.5C29.3023 17.5 29.75 17.0523 29.75 16.5C29.75 15.9477 29.3023 15.5 28.75 15.5C28.1977 15.5 27.75 15.9477 27.75 16.5C27.75 17.0523 28.1977 17.5 28.75 17.5Z" fill="#263238"/>
<path d="M39.0251 56.65H36.8751C36.5251 56.65 36.2501 56.375 36.2501 56.025C36.2501 55.675 36.5251 55.4 36.8751 55.4H39.0251C39.3501 55.4 39.6251 55.15 39.6251 54.825C39.6251 54.5 39.3751 54.225 39.0501 54.225H39.0251H37.6751C36.6501 54.225 35.8501 53.375 35.8501 52.35C35.8501 51.35 36.6751 50.55 37.6751 50.525H39.5751C39.9251 50.525 40.2001 50.8 40.2001 51.15C40.2001 51.5 39.9251 51.775 39.5751 51.775H37.6751C37.3501 51.775 37.1001 52.05 37.1001 52.375C37.1001 52.7 37.3501 52.95 37.6751 52.95H39.0251C40.0501 52.95 40.8751 53.75 40.9001 54.775C40.9001 55.8 40.1001 56.625 39.0751 56.65C39.0501 56.65 39.0501 56.65 39.0251 56.65Z" fill="#263238"/>
<path d="M38.3501 57.5C38.0001 57.5 37.7251 57.225 37.7251 56.875V50.35C37.7251 50 38.0001 49.725 38.3501 49.725C38.7001 49.725 38.9751 50 38.9751 50.35V56.875C38.9751 57.2 38.7001 57.5 38.3501 57.5Z" fill="#263238"/>
<path d="M53.725 64H22.975C22.075 64 21.375 63.275 21.375 62.4V44.825C21.375 43.925 22.1 43.225 22.975 43.225H53.725C54.625 43.225 55.325 43.95 55.325 44.825V62.4C55.35 63.275 54.625 64 53.725 64ZM22.975 44.45C22.775 44.45 22.625 44.6 22.625 44.8V62.375C22.625 62.575 22.775 62.725 22.975 62.725H53.725C53.925 62.725 54.075 62.575 54.075 62.375V44.8C54.075 44.6 53.925 44.45 53.725 44.45H22.975Z" fill="#263238"/>
<path d="M57.5249 60H54.7249C54.3749 60 54.0999 59.725 54.0999 59.375V44.8C54.0999 44.6 53.9499 44.45 53.7499 44.45H25.7749C25.4249 44.45 25.1499 44.175 25.1499 43.825V40.8C25.1499 39.9 25.8749 39.2 26.7499 39.2H57.4999C58.3999 39.2 59.0999 39.925 59.0999 40.8V58.375C59.1249 59.275 58.3999 60 57.5249 60ZM55.3499 58.75H57.5249C57.7249 58.75 57.8749 58.6 57.8749 58.4V40.825C57.8749 40.625 57.7249 40.475 57.5249 40.475H26.7749C26.5749 40.475 26.4249 40.625 26.4249 40.825V43.225H53.7499C54.6499 43.225 55.3499 43.95 55.3499 44.825V58.75Z" fill="#263238"/>
<path d="M58.5 48.7H54.725C54.375 48.7 54.1 48.425 54.1 48.075V44.8C54.1 44.6 53.95 44.45 53.75 44.45C53.4 44.45 53.125 44.175 53.125 43.825C53.125 43.475 53.4 43.2 53.75 43.2H58.5C58.85 43.2 59.125 43.475 59.125 43.825V48.075C59.125 48.425 58.85 48.7 58.5 48.7ZM55.35 47.45H57.875V44.45H55.3C55.325 44.575 55.35 44.7 55.35 44.8V47.45Z" fill="#263238"/>
<path d="M29.8502 54.225H28.7002C28.3502 54.225 28.0752 53.95 28.0752 53.6C28.0752 53.25 28.3502 52.975 28.7002 52.975H29.8502C30.2002 52.975 30.4752 53.25 30.4752 53.6C30.4752 53.95 30.1752 54.225 29.8502 54.225Z" fill="#263238"/>
<path d="M48.0499 54.225H46.8999C46.5499 54.225 46.2749 53.95 46.2749 53.6C46.2749 53.25 46.5499 52.975 46.8999 52.975H48.0499C48.3999 52.975 48.6749 53.25 48.6749 53.6C48.6749 53.95 48.3749 54.225 48.0499 54.225Z" fill="#263238"/>
<path d="M48.7248 62.075H27.9748C27.5248 62.075 27.1248 61.775 26.9748 61.35C26.5498 59.925 25.4498 58.825 24.0248 58.4C23.5998 58.275 23.2998 57.875 23.2998 57.4V49.825C23.2998 49.375 23.5998 48.975 24.0248 48.825C25.4498 48.4 26.5498 47.3 26.9748 45.875C27.0998 45.425 27.4998 45.15 27.9748 45.15H48.7248C49.1748 45.15 49.5748 45.45 49.7248 45.875C50.1498 47.3 51.2498 48.4 52.6748 48.825C53.1248 48.95 53.3998 49.35 53.3998 49.825V57.4C53.3998 57.85 53.0998 58.25 52.6748 58.4C51.2498 58.825 50.1498 59.925 49.7248 61.35C49.5998 61.775 49.1998 62.05 48.7248 62.075ZM28.1498 60.825H48.5748C49.1248 59.125 50.4748 57.8 52.1498 57.25V49.975C50.4498 49.425 49.1248 48.075 48.5748 46.4H28.1498C27.5998 48.1 26.2498 49.425 24.5748 49.975V57.25C26.2498 57.8 27.5748 59.125 28.1498 60.825Z" fill="#263238"/>
<path d="M33.9748 20.325C33.7498 20.325 33.5248 20.3 33.2998 20.275C32.9748 20.225 32.7498 19.95 32.7748 19.625C32.7998 19.425 32.7998 19.25 32.7998 19.1V12.625C32.7998 12.325 33.0248 12.05 33.3248 12C35.5998 11.65 37.7498 13.2 38.0998 15.5C38.4498 17.775 36.8998 19.925 34.5998 20.275C34.4248 20.3 34.1998 20.325 33.9748 20.325ZM34.0748 13.2V19.05C35.6998 19 36.9748 17.65 36.9248 16.05C36.8748 14.5 35.6248 13.25 34.0748 13.2Z" fill="#263238"/>
<path d="M15.8499 20.325C13.5499 20.325 11.6499 18.475 11.6499 16.15C11.6499 13.85 13.4999 11.95 15.8249 11.95C16.0499 11.95 16.2749 11.975 16.4999 12C16.7999 12.05 17.0249 12.3 17.0249 12.625V19.075C17.0249 19.225 17.0249 19.4 17.0499 19.6C17.0749 19.925 16.8499 20.2 16.5249 20.25C16.2999 20.3 16.0749 20.325 15.8499 20.325ZM15.7749 13.2C14.1499 13.25 12.8749 14.6 12.9249 16.2C12.9749 17.75 14.2249 19 15.7749 19.05V13.2Z" fill="#263238"/>
<path d="M24.9249 28.225C19.8749 28.225 15.7749 24.125 15.7749 19.075V12.225C15.7749 11.625 16.2499 11.15 16.8499 11.15C16.9249 11.15 16.9999 11.15 17.0749 11.175C18.7249 11.525 22.8499 11.925 25.6999 8.35001C26.0749 7.87501 26.7499 7.80001 27.2249 8.17501C27.2499 8.20001 27.2749 8.22501 27.2999 8.25001C27.8999 8.82501 29.6249 10.175 32.9999 10.275C33.5749 10.3 34.0249 10.75 34.0499 11.325C34.0499 11.375 34.0499 11.425 34.0499 11.475V19.075C34.0499 24.125 29.9749 28.225 24.9249 28.225ZM17.0249 12.425V19.075C17.0499 23.425 20.5999 26.95 24.9749 26.925C29.2999 26.9 32.7999 23.4 32.8249 19.075V11.525C29.4249 11.375 27.4999 10.1 26.5749 9.27501C23.3499 13.175 18.6749 12.725 17.0249 12.425Z" fill="#263238"/>
<path d="M36.4499 14.2C36.2999 14.2 36.1249 14.125 36.0249 14.025C35.4749 13.5 34.7499 13.2 33.9999 13.2C33.8499 13.2 33.6999 13.225 33.5499 13.225C33.1999 13.275 32.8999 13.05 32.8249 12.7C32.8249 12.675 32.8249 12.625 32.8249 12.6V11.5C29.4249 11.35 27.4999 10.075 26.5749 9.25C23.3499 13.175 18.6749 12.725 17.0249 12.425V12.625C17.0249 12.975 16.7499 13.25 16.3999 13.25C16.3749 13.25 16.3249 13.25 16.2999 13.25C16.1499 13.225 15.9999 13.225 15.8499 13.225C15.1749 13.225 14.5499 13.45 14.0249 13.875C13.7499 14.1 13.3499 14.05 13.1499 13.775C13.0499 13.675 13.0249 13.525 13.0249 13.375V9.425C13.0249 4.225 17.2249 0 22.4249 0H24.9249C26.6499 0 28.2749 0.825 29.2999 2.2C30.0249 1.875 30.7999 1.7 31.5749 1.7C34.5999 1.7 37.0749 4.15 37.0749 7.2V13.6C37.0749 13.925 36.7999 14.2 36.4499 14.2ZM34.0749 11.95C34.6749 11.95 35.2999 12.1 35.8499 12.375V7.175C35.8499 4.85 33.9749 2.95 31.6249 2.925C30.8499 2.925 30.0999 3.125 29.4249 3.525C29.1249 3.7 28.7499 3.6 28.5749 3.3C27.7999 2.05 26.4249 1.25 24.9249 1.25H22.4249C17.9249 1.25 14.2749 4.9 14.2499 9.425V12.275C14.7499 12.075 15.2749 11.975 15.7999 11.95C15.9499 11.4 16.4999 11.05 17.0749 11.15C18.7249 11.5 22.8499 11.9 25.6999 8.325C26.0749 7.85 26.7499 7.775 27.2249 8.15C27.2499 8.175 27.2749 8.2 27.2999 8.225C27.8999 8.8 29.6249 10.15 32.9999 10.25C33.5749 10.275 34.0249 10.725 34.0499 11.3C34.0499 11.35 34.0499 11.4 34.0499 11.45L34.0749 11.95Z" fill="#263238"/>
<path d="M38.3502 59.75C34.9502 59.75 32.2002 57 32.2002 53.6C32.2002 50.2 34.9502 47.45 38.3502 47.45C41.7502 47.45 44.5002 50.2 44.5002 53.6C44.5002 57 41.7502 59.725 38.3502 59.75ZM38.3502 48.7C35.6502 48.7 33.4502 50.9 33.4502 53.6C33.4502 56.3 35.6502 58.5 38.3502 58.5C41.0502 58.5 43.2502 56.3 43.2502 53.6C43.2502 50.9 41.0502 48.7 38.3502 48.7Z" fill="#263238"/>
<path d="M22 49.675H7.675C6.625 49.675 5.75 48.825 5.75 47.75C5.75 47.725 5.75 47.725 5.75 47.7L6.025 36.55C6.125 34.7 7.4 33.125 9.225 32.675L15.5 31.1C16 30.975 16.475 30.8 16.925 30.575L18.925 29.6C19.65 29.25 20.125 28.5 20.1 27.7V26.475C20.1 26.125 20.375 25.85 20.725 25.85C20.825 25.85 20.95 25.875 21.025 25.925C23.425 27.3 26.4 27.3 28.8 25.925C29.1 25.75 29.475 25.85 29.65 26.15C29.7 26.25 29.725 26.35 29.725 26.45V27.675C29.725 28.475 30.175 29.225 30.9 29.575L32.9 30.55C33.35 30.775 33.825 30.95 34.325 31.075L40.6 32.65C42.4 33.1 43.7 34.675 43.775 36.5V36.525L43.85 39.775C43.85 40.125 43.575 40.4 43.25 40.425C43.25 40.425 43.25 40.425 43.225 40.425H26.725C26.525 40.425 26.375 40.575 26.375 40.775V43.8C26.375 44.15 26.1 44.425 25.75 44.425H22.975C22.775 44.425 22.625 44.575 22.625 44.775V49C22.625 49.375 22.35 49.675 22 49.675ZM21.35 27.475V27.675C21.35 28.95 20.625 30.15 19.475 30.7L17.475 31.675C16.95 31.925 16.375 32.15 15.8 32.275L9.525 33.85C8.25 34.175 7.35 35.275 7.275 36.575L7 47.725C7 48.1 7.275 48.4 7.65 48.4C7.65 48.4 7.65 48.4 7.675 48.4H21.375V44.8C21.375 43.9 22.1 43.2 22.975 43.2H25.15V40.8C25.15 39.9 25.875 39.2 26.75 39.2H42.6L42.525 36.6C42.45 35.3 41.55 34.2 40.275 33.9L34 32.325C33.425 32.175 32.875 31.975 32.325 31.725L30.325 30.75C29.175 30.175 28.425 29 28.45 27.725V27.525C26.2 28.45 23.625 28.45 21.35 27.475Z" fill="#263238"/>
<path d="M24.9249 35.475C21.7999 35.475 18.8749 33.875 17.1999 31.225C17.0249 30.925 17.0999 30.55 17.3999 30.35C17.4249 30.35 17.4499 30.325 17.4499 30.325L18.8999 29.6C19.6249 29.25 20.0999 28.5 20.0749 27.7V26.475C20.0749 26.125 20.3499 25.85 20.6999 25.85C20.7999 25.85 20.9249 25.875 20.9999 25.925C23.3999 27.3 26.3749 27.3 28.7749 25.925C29.0749 25.75 29.4499 25.85 29.6249 26.15C29.6749 26.25 29.6999 26.35 29.6999 26.45V27.675C29.6999 28.475 30.1499 29.225 30.8749 29.575L32.3249 30.3C32.6249 30.45 32.7499 30.825 32.5999 31.125C32.5999 31.15 32.5749 31.175 32.5749 31.175C30.9749 33.85 28.0499 35.475 24.9249 35.475ZM18.6499 31.1C21.2749 34.55 26.2249 35.225 29.6749 32.6C30.2499 32.175 30.7499 31.675 31.1749 31.1L30.3749 30.7C29.2249 30.125 28.4749 28.95 28.4999 27.675V27.475C26.2249 28.45 23.6249 28.45 21.3499 27.475V27.675C21.3499 28.95 20.6249 30.15 19.4749 30.7L18.6499 31.1Z" fill="#263238"/>
</svg>
