<svg width="48" height="48" viewBox="0 0 48 48" fill="none" xmlns="http://www.w3.org/2000/svg">
<path d="M43 10H5C2.79086 10 1 11.7909 1 14V34C1 36.2091 2.79086 38 5 38H43C45.2091 38 47 36.2091 47 34V14C47 11.7909 45.2091 10 43 10Z" fill="#B5D8DA"/>
<path d="M24 35C30.0751 35 35 30.0751 35 24C35 17.9249 30.0751 13 24 13C17.9249 13 13 17.9249 13 24C13 30.0751 17.9249 35 24 35Z" fill="white"/>
<path d="M3 10C5.20914 10 7.08142 11.9742 5.7153 13.7103C5.56916 13.896 5.41145 14.0738 5.24264 14.2426C5.07383 14.4114 4.89601 14.5692 4.71029 14.7153C2.9742 16.0814 1 14.2091 1 12V12C1 11.4696 1.21071 10.9609 1.58579 10.5858C1.96086 10.2107 2.46957 10 3 10V10Z" fill="white"/>
<path d="M3 33C5.20914 33 7.08142 34.9742 5.7153 36.7103C5.56916 36.896 5.41145 37.0738 5.24264 37.2426C5.07383 37.4114 4.89601 37.5692 4.71029 37.7153C2.9742 39.0814 1 37.2091 1 35C1 34.4696 1.21071 33.9609 1.58579 33.5858C1.96086 33.2107 2.46957 33 3 33Z" fill="white"/>
<path d="M45 10C42.7909 10 40.9186 11.9742 42.2847 13.7103C42.4308 13.896 42.5886 14.0738 42.7574 14.2426C42.9262 14.4114 43.104 14.5692 43.2897 14.7153C45.0258 16.0814 47 14.2091 47 12V12C47 11.4696 46.7893 10.9609 46.4142 10.5858C46.0391 10.2107 45.5304 10 45 10V10Z" fill="white"/>
<path d="M46.9999 34.259C46.9999 32.9395 45.8898 31.8275 44.6734 32.3388V32.3388C43.9369 32.6485 43.2696 33.1021 42.7107 33.6731C42.1518 34.2441 41.7126 34.9209 41.4188 35.664V35.664C40.9306 36.8987 42.0613 38 43.389 38H43.9674C45.6422 38 46.9999 36.6423 46.9999 34.9675V34.259Z" fill="white"/>
<path d="M21.4191 27.9992C21.0276 28.3916 20.3921 28.392 20.0001 28.0001V28.0001C19.6081 27.6081 19.6085 26.9724 20.0011 26.5809L21.913 24.6741C22.6089 23.9801 23 23.0376 23 22.0547V17C23 16.4477 23.4478 16 24 16V16C24.5523 16 25 16.4477 25 17V22.7559C25 23.8151 24.5799 24.8311 23.8318 25.581L21.4191 27.9992Z" fill="#263238"/>
<path d="M48 35C48 37.2091 46.2091 39 44 39H4C1.79086 39 0 37.2091 0 35V13C0 10.7909 1.79086 9 4 9H44C46.2091 9 48 10.7909 48 13V35ZM2 33C2 35.2091 3.79086 37 6 37H42C44.2091 37 46 35.2091 46 33V15C46 12.7909 44.2091 11 42 11H6C3.79086 11 2 12.7909 2 15V33Z" fill="#263238"/>
<path d="M6 25H10C10.2652 25 10.5196 24.8946 10.7071 24.7071C10.8946 24.5196 11 24.2652 11 24C11 23.7348 10.8946 23.4804 10.7071 23.2929C10.5196 23.1054 10.2652 23 10 23H6C5.73478 23 5.48043 23.1054 5.29289 23.2929C5.10536 23.4804 5 23.7348 5 24C5 24.2652 5.10536 24.5196 5.29289 24.7071C5.48043 24.8946 5.73478 25 6 25Z" fill="white"/>
<path d="M38 25H42C42.2652 25 42.5196 24.8946 42.7071 24.7071C42.8946 24.5196 43 24.2652 43 24C43 23.7348 42.8946 23.4804 42.7071 23.2929C42.5196 23.1054 42.2652 23 42 23H38C37.7348 23 37.4804 23.1054 37.2929 23.2929C37.1054 23.4804 37 23.7348 37 24C37 24.2652 37.1054 24.5196 37.2929 24.7071C37.4804 24.8946 37.7348 25 38 25Z" fill="white"/>
</svg>
