<svg width="99" height="87" viewBox="0 0 99 87" fill="none" xmlns="http://www.w3.org/2000/svg">
<path d="M98.9709 43.1484C98.9709 54.592 93.7573 65.567 84.4769 73.6588C75.1966 81.7507 62.6098 86.2966 49.4854 86.2966C36.3611 86.2966 23.7743 81.7507 14.494 73.6588C5.21363 65.567 1.98172e-06 54.592 0 43.1484H12.6146C12.6146 51.6749 16.4992 59.8521 23.4138 65.8813C30.3284 71.9104 39.7067 75.2975 49.4854 75.2975C59.2642 75.2975 68.6424 71.9104 75.5571 65.8812C82.4717 59.8521 86.3563 51.6749 86.3563 43.1484H98.9709Z" fill="#93939B"/>
<path d="M18.8401 70.7753C18.5028 71.0538 18.2529 71.3202 18.0905 71.5747C17.928 71.8291 17.8329 72.1132 17.805 72.4269L17.5823 72.4334L15.6133 70.4283L15.772 70.1701C16.1002 70.3644 16.3379 70.4665 16.4851 70.4764C16.6399 70.4941 16.823 70.4239 17.0344 70.2661C17.1489 70.1805 18.1591 69.3198 20.0647 67.684L21.1466 66.7564L14.5441 68.9897L14.2272 68.6671L17.746 63.3636L14.5744 65.452C14.1213 65.737 13.8111 65.942 13.6437 66.067C13.4146 66.238 13.2346 66.4124 13.1037 66.59C12.9891 66.7688 12.8852 67.0128 12.7919 67.3221L12.5579 67.3171L11.3018 66.038L11.4717 65.7913C11.7384 65.9384 11.9396 66.0344 12.0755 66.0795C12.2189 66.1322 12.3541 66.1377 12.4812 66.0961C12.6158 66.0622 12.792 65.9772 13.0097 65.8413L15.6829 64.0851C16.311 63.6827 16.7175 63.4125 16.9025 63.2744C17.2021 63.0507 17.3921 62.8555 17.4728 62.6888C17.5609 62.5298 17.617 62.2682 17.6412 61.904L17.8922 61.8564L19.5444 63.5388L16.5999 67.7944L21.9434 65.9817L23.4032 67.4682L23.371 67.692C22.981 67.7302 22.6803 67.7816 22.4689 67.8463C22.265 67.9186 22.0353 68.0501 21.7798 68.2409C21.6124 68.3659 21.3676 68.5753 21.0454 68.8691L18.8401 70.7753Z" fill="white"/>
<path d="M24.113 76.0799C23.9521 76.2655 23.8483 76.4189 23.8014 76.5401C23.7707 76.6593 23.7853 76.7767 23.8452 76.8922C23.905 77.0077 24.0262 77.1699 24.2086 77.3788L23.9226 77.5326L21.5072 75.9413L21.501 75.7471L21.7379 75.675C22.0561 75.5931 22.3233 75.4776 22.5397 75.3286C22.7723 75.1776 23.0203 74.9417 23.2838 74.6209L26.1052 71.3649C26.28 71.1632 26.3723 71.0148 26.3819 70.9198C26.4078 70.8228 26.3607 70.7346 26.2403 70.6554L26.0876 70.5548C25.773 70.3475 25.4636 70.2767 25.1594 70.3425C24.8622 70.4003 24.4451 70.5881 23.9079 70.906L23.7037 70.6384L25.0148 69.1254L25.248 69.1079L25.3201 69.3266C25.4051 69.5474 25.702 69.8254 26.211 70.1607L28.7514 71.8343C29.2604 72.1697 29.6483 72.3428 29.915 72.3537L30.176 72.3546L30.2343 72.5641L28.9232 74.0771L28.5583 73.9698C28.767 73.4101 28.8591 73.0018 28.8347 72.7448C28.8265 72.4859 28.6696 72.2558 28.3642 72.0546L28.1838 71.9357C28.0635 71.8565 27.9487 71.8379 27.8395 71.8801C27.7466 71.9202 27.6127 72.0412 27.4379 72.2429L24.113 76.0799Z" fill="white"/>
<path d="M43.2002 83.3772C43.4955 83.3257 43.7094 83.2739 43.8418 83.2218C43.9752 83.1596 44.0698 83.0746 44.1257 82.9667C44.1816 82.8589 44.2197 82.6889 44.2398 82.457L44.596 78.3575C44.6267 78.0046 44.6143 77.7451 44.559 77.5792C44.5151 77.414 44.3828 77.2632 44.162 77.1269L43.963 77.0073L44.0495 76.8152C44.44 76.7396 44.9212 76.6902 45.4932 76.6672C46.066 76.634 46.5896 76.6331 47.0638 76.6644C48.5327 76.7615 49.6212 77.1529 50.3293 77.8386C51.0499 78.5151 51.3585 79.4483 51.2551 80.6383C51.1614 81.7174 50.7283 82.5509 49.956 83.1389C49.1953 83.7276 48.2019 83.9815 46.976 83.9005L43.298 83.6575L43.2002 83.3772ZM46.8461 83.5876C48.4075 83.6908 49.2815 82.6683 49.4682 80.5203C49.554 79.532 49.3973 78.7254 48.9979 78.1006C48.611 77.4665 48.0532 77.1254 47.3245 77.0772C47.0238 77.0574 46.789 77.0824 46.6201 77.1524C46.4511 77.2224 46.3601 77.333 46.3469 77.4843L45.9447 82.1132C45.9036 82.5872 45.9539 82.9455 46.0956 83.1881C46.249 83.4316 46.4991 83.5647 46.8461 83.5876Z" fill="white"/>
<path d="M54.4586 78.4794C54.3689 78.0825 54.2641 77.7758 54.1443 77.5593C54.0244 77.3428 53.842 77.1371 53.5969 76.9421L53.4233 76.8018L53.5229 76.6146L57.2954 75.9664C57.9214 75.8589 58.3279 75.722 58.5149 75.5559L58.6895 75.3867L58.8905 75.4913L59.311 77.3519L58.9931 77.5147C58.6672 77.0141 58.3793 76.6822 58.1296 76.5189C57.8913 76.3537 57.5901 76.3024 57.2259 76.3649L56.4577 76.4969C56.1619 76.5478 55.9796 76.6306 55.911 76.7455C55.8401 76.8504 55.8395 77.0567 55.909 77.3643L56.3867 79.4779L57.6157 79.2667C57.9571 79.208 58.2008 79.1353 58.3466 79.0483C58.5039 78.9595 58.6022 78.8189 58.6415 78.6266L58.6797 78.4035L58.9285 78.4845L59.3053 80.1515L58.9567 80.3351L58.8144 80.0194C58.7218 79.8189 58.5641 79.6965 58.3413 79.6523C58.1185 79.6081 57.7795 79.6251 57.3243 79.7033L56.4708 79.85L56.9787 82.0975C57.046 82.3952 57.1421 82.5849 57.2669 82.6665C57.3895 82.7382 57.6272 82.7438 57.98 82.6831L58.8164 82.5394C59.1579 82.4807 59.4017 82.3306 59.5481 82.089C59.7059 81.8454 59.8175 81.45 59.8829 80.9027L60.265 80.9453L60.6686 82.7314L60.5111 82.8976C60.3294 82.8258 60.1316 82.7876 59.9178 82.7831C59.7062 82.7885 59.4183 82.8225 59.0542 82.8851L54.7695 83.6213L54.5895 83.374C54.8583 83.2556 55.0485 83.1559 55.1603 83.0749C55.2698 82.9839 55.3349 82.8799 55.3558 82.763C55.3766 82.646 55.3613 82.4734 55.3097 82.2452L54.4586 78.4794Z" fill="white"/>
<path d="M68.4976 73.2974C68.4134 73.5711 68.3803 73.8341 68.3983 74.0865C68.4272 74.3354 68.5164 74.6407 68.6659 75.0022L70.3117 78.9841C70.3942 79.1839 70.5122 79.335 70.6654 79.4373L70.8835 79.5623L70.7952 79.7513L69.0929 80.2862L63.1999 75.9619L64.6864 79.5585C64.8437 79.939 65.0023 80.2332 65.1622 80.441C65.329 80.6358 65.543 80.8105 65.8041 80.9649L66.0222 81.0899L65.9339 81.2789L64.1334 81.8447L63.9126 81.6238C64.1688 81.4681 64.3397 81.3445 64.4252 81.2531C64.5216 81.1583 64.57 81.0517 64.5704 80.9333C64.5708 80.815 64.5238 80.6416 64.4294 80.4132L62.8721 76.6454C62.6991 76.2268 62.5296 75.936 62.3636 75.7732C62.1977 75.6103 61.9222 75.4658 61.5371 75.3395L61.5914 75.1128L63.7192 74.4442L69.6463 78.8062L67.8589 74.4818C67.741 74.1963 67.5874 74.0188 67.3984 73.9492C67.2203 73.8762 66.8968 73.8542 66.4279 73.8833L66.42 73.5955L68.3678 72.9834L68.58 73.0941L68.4976 73.2974Z" fill="white"/>
<path d="M77.0941 75.3041C77.2444 75.4963 77.378 75.631 77.4948 75.7085C77.6146 75.7719 77.7469 75.7973 77.8915 75.7847C78.0361 75.7721 78.2511 75.7237 78.5363 75.6397L78.6123 75.9251L76.1118 77.4131L75.8987 77.3562L75.896 77.1375C75.9085 76.8484 75.8683 76.5907 75.7754 76.3644C75.6855 76.124 75.5083 75.8437 75.2437 75.5236L72.6053 72.153C72.4419 71.9441 72.31 71.8206 72.2098 71.7822C72.1127 71.7299 72.0018 71.7407 71.8773 71.8148L71.7192 71.9089C71.3934 72.1028 71.2178 72.3359 71.1922 72.6082C71.1601 72.8722 71.2311 73.2769 71.4052 73.8222L71.0492 73.9056L69.8232 72.3393L69.8786 72.141L70.1393 72.1511C70.4064 72.1514 70.8033 71.9947 71.3303 71.6812L73.9601 70.1162C74.487 69.8026 74.799 69.5374 74.896 69.3204L74.9802 69.105L75.2266 69.1237L76.4526 70.69L76.2194 70.9573C75.6778 70.6062 75.2634 70.3998 74.9763 70.338C74.6922 70.2621 74.3921 70.3183 74.076 70.5064L73.8892 70.6176C73.7646 70.6917 73.7078 70.7806 73.7188 70.8843C73.7327 70.9739 73.8215 71.1232 73.9849 71.332L77.0941 75.3041Z" fill="white"/>
<path d="M83.9707 69.0037C84.2805 69.1357 84.5541 69.2209 84.7914 69.2592C85.0207 69.2902 85.316 69.2862 85.6775 69.2472L85.6869 69.4511L83.433 71.3688L83.1396 71.2369L83.2778 71.0346C83.3618 70.8924 83.4004 70.7748 83.3935 70.6818C83.3868 70.5744 83.3308 70.4737 83.2255 70.3796C83.1606 70.3217 82.9489 70.2122 82.5903 70.051L81.6243 69.6223L79.6942 71.2646L79.8984 71.6208C80.1384 72.0524 80.3515 72.3515 80.5379 72.518C80.7161 72.6773 80.9113 72.7938 81.1235 72.8676L81.3565 72.9237L81.366 73.1276L79.9962 74.2931L79.6903 74.1718L79.8285 73.9694C79.971 73.7493 80.0435 73.5533 80.0459 73.3817C80.0402 73.2029 79.9534 72.9588 79.7855 72.6494L77.4832 68.3766C77.3387 68.1462 77.226 67.9948 77.145 67.9224C76.9668 67.7632 76.7084 67.764 76.3699 67.9249L76.1964 68.0089L76.0649 67.7392L77.7584 66.2983L83.9707 69.0037ZM81.1595 69.4242L77.8461 67.9406L79.4785 70.8546L81.1595 69.4242Z" fill="white"/>
<path d="M82.1489 64.7415C81.7899 64.5556 81.5117 64.4292 81.3144 64.3624C81.1072 64.2903 80.912 64.2599 80.7291 64.271C80.5461 64.2822 80.3107 64.3308 80.0227 64.4169L79.9082 64.1989L81.4539 61.9292L81.7554 61.9618C81.7488 62.2289 81.7658 62.4318 81.8063 62.5704C81.8468 62.709 81.9301 62.8344 82.056 62.9467C82.1878 63.0502 82.4133 63.1846 82.7324 63.3499L86.9062 65.5109C87.2254 65.6762 87.4615 65.7455 87.6145 65.7188C87.7675 65.6922 87.9358 65.5441 88.1194 65.2745L88.457 64.7789C88.6288 64.5267 88.6702 64.2776 88.5814 64.0317C88.4826 63.7806 88.2123 63.4347 87.7703 62.9942L88.0527 62.7875L89.8479 63.717L89.8937 63.9172C89.717 63.9786 89.5613 64.0685 89.4267 64.187C89.302 64.3107 89.1449 64.5116 88.9554 64.7899L86.7701 67.9987L86.4475 67.9376C86.5257 67.684 86.5675 67.4939 86.5728 67.3673C86.5681 67.2355 86.5228 67.1238 86.4368 67.0322C86.3508 66.9406 86.1931 66.8354 85.9637 66.7167L82.1489 64.7415Z" fill="white"/>
<path d="M49.5796 55.4116V72.1388H51.2723V55.4116H49.5796Z" fill="black" stroke="black"/>
<path d="M58.0431 53.9355H43.373L42.5266 55.4115H56.9146L58.0431 53.9355Z" fill="black" stroke="black"/>
<path d="M37.7409 45.9222V43.5469V36.5898C37.7409 36.0412 37.9082 35.0467 37.4136 34.8263C37.7409 34.5834 38.347 34.3526 38.6501 34.3855C38.8975 34.3855 39.6385 34.8374 39.6385 34.8374V43.5469V45.9222L39.2589 46.9337L37.7409 47.3078V45.9222Z" fill="black"/>
<path d="M38.6501 34.3855C38.8975 34.3855 39.6385 34.8374 39.6385 34.8374V43.5469V45.9222L39.2589 46.9337L37.7409 47.3078V45.9222V43.5469C37.7409 43.5469 37.7409 37.8717 37.7409 36.5898C37.7409 36.0412 37.9082 35.0467 37.4136 34.8263C37.7409 34.5834 38.347 34.3526 38.6501 34.3855ZM38.6501 34.3855C38.4182 34.3855 38.8804 34.4105 38.6501 34.3855V34.3855Z" stroke="black"/>
<path d="M39.2702 46.9487C39.2702 46.9487 46.0084 37.4706 48.0307 37.4706C50.0531 37.4706 49.2844 42.8443 49.2844 42.8443H52.433C52.433 42.8443 51.8226 35.4868 49.2844 34.6052C48.6458 34.3833 47.1493 35.7073 46.1472 36.8094C44.2388 38.9082 39.2702 46.0671 39.2702 46.0671L37.7407 47.4737V49.1529L39.2702 46.9487Z" fill="black" stroke="black"/>
<path d="M39.6437 42.4882C39.7812 42.9409 40.3346 43.4852 41.4585 42.9807L39.6437 45.7793V42.4882C39.5963 42.3319 39.5984 42.1866 39.6437 42.0991V42.4882Z" fill="black"/>
<path d="M41.4585 42.9807C39.9468 43.6593 39.4671 42.4403 39.6437 42.0991V45.7793L41.4585 42.9807Z" stroke="black"/>
<path fill-rule="evenodd" clip-rule="evenodd" d="M61.9159 48.249L60.3369 48.9102V40.9881C60.3369 40.5746 60.341 40.1956 60.3448 39.8494C60.369 37.6468 60.3786 36.7722 59.209 36.7722C57.8556 36.7722 53.1185 42.3935 53.1185 42.3935L52.7849 42.8401H51.1157C52.5418 41.4029 59.5619 34.4084 60.9231 34.6062C62.4399 34.8266 61.9159 39.817 61.9159 39.817V48.249Z" fill="black"/>
<path d="M60.337 48.9106H59.837V49.662L60.5301 49.3718L60.337 48.9106ZM61.916 48.2494L62.1091 48.7106L62.416 48.5821V48.2494H61.916ZM60.3449 39.8498L60.8449 39.8553L60.3449 39.8498ZM53.1186 42.3939L52.7363 42.0717L52.7268 42.0829L52.7181 42.0946L53.1186 42.3939ZM52.785 42.8405V43.3405H53.0356L53.1855 43.1398L52.785 42.8405ZM51.1158 42.8405L50.7609 42.4884L49.9153 43.3405H51.1158V42.8405ZM60.9232 34.6066L60.9951 34.1118L60.9232 34.6066ZM61.916 39.8174L61.4187 39.7652L61.416 39.7913V39.8174H61.916ZM60.5301 49.3718L62.1091 48.7106L61.7229 47.7882L60.1438 48.4494L60.5301 49.3718ZM59.837 40.9885V48.9106H60.837V40.9885H59.837ZM59.845 39.8443C59.8412 40.1903 59.837 40.5719 59.837 40.9885H60.837C60.837 40.5781 60.8411 40.2017 60.8449 39.8553L59.845 39.8443ZM59.2091 37.2726C59.4452 37.2726 59.5466 37.3176 59.5931 37.3507C59.6341 37.38 59.6927 37.4427 59.7438 37.6222C59.7972 37.8094 59.8288 38.0761 59.8425 38.4576C59.8559 38.8351 59.8511 39.2897 59.845 39.8443L60.8449 39.8553C60.8509 39.3086 60.8563 38.8279 60.8418 38.4219C60.8275 38.0199 60.793 37.655 60.7055 37.3482C60.6159 37.0338 60.4592 36.7402 60.1738 36.5366C59.8938 36.3369 59.5579 36.2726 59.2091 36.2726V37.2726ZM53.1186 42.3939C53.501 42.7161 53.501 42.7161 53.501 42.7161C53.501 42.716 53.5011 42.716 53.5011 42.7159C53.5012 42.7158 53.5014 42.7156 53.5017 42.7153C53.5022 42.7146 53.503 42.7137 53.5041 42.7124C53.5062 42.7099 53.5095 42.706 53.5139 42.7008C53.5226 42.6905 53.5358 42.675 53.553 42.6547C53.5875 42.6142 53.6385 42.5545 53.7039 42.4783C53.8349 42.326 54.0238 42.1081 54.2548 41.8464C54.7171 41.3227 55.3464 40.6258 56.0165 39.9301C56.6885 39.2322 57.3926 38.545 58.006 38.0355C58.3134 37.7802 58.5868 37.5789 58.814 37.4441C58.9272 37.3769 59.0206 37.3313 59.0943 37.3035C59.1306 37.2898 59.1587 37.2817 59.1793 37.2772C59.2001 37.2726 59.2094 37.2726 59.2091 37.2726V36.2726C58.8967 36.2726 58.5752 36.423 58.3037 36.5841C58.0128 36.7567 57.694 36.9947 57.367 37.2663C56.7115 37.8108 55.9776 38.5289 55.2962 39.2364C54.6128 39.946 53.9733 40.6544 53.5051 41.1846C53.2709 41.45 53.0791 41.6712 52.9457 41.8263C52.879 41.9039 52.8269 41.965 52.7913 42.0068C52.7736 42.0277 52.7599 42.0437 52.7507 42.0547C52.746 42.0601 52.7425 42.0643 52.7401 42.0672C52.7389 42.0686 52.738 42.0697 52.7373 42.0704C52.737 42.0708 52.7368 42.0711 52.7366 42.0713C52.7365 42.0714 52.7364 42.0715 52.7364 42.0715C52.7363 42.0716 52.7363 42.0717 53.1186 42.3939ZM53.1855 43.1398L53.5192 42.6931L52.7181 42.0946L52.3844 42.5413L53.1855 43.1398ZM51.1158 43.3405H52.785V42.3405H51.1158V43.3405ZM60.9951 34.1118C60.8012 34.0836 60.6095 34.1238 60.4513 34.1747C60.2855 34.2281 60.1103 34.3086 59.9323 34.4045C59.5761 34.5964 59.1623 34.8755 58.7181 35.2068C57.8273 35.8714 56.7638 36.7845 55.7083 37.7397C53.5947 39.6525 51.4756 41.768 50.7609 42.4884L51.4708 43.1927C52.1821 42.4758 54.2861 40.3755 56.3793 38.4812C57.4273 37.5328 58.4632 36.6446 59.3161 36.0084C59.7437 35.6894 60.1128 35.4432 60.4067 35.2848C60.5537 35.2056 60.6702 35.1548 60.7576 35.1267C60.8524 35.0962 60.875 35.1049 60.8513 35.1014L60.9951 34.1118ZM61.916 39.8174C62.4132 39.8697 62.4133 39.8696 62.4133 39.8695C62.4133 39.8694 62.4133 39.8693 62.4133 39.8691C62.4133 39.8689 62.4134 39.8686 62.4134 39.8682C62.4135 39.8673 62.4136 39.8662 62.4137 39.8648C62.414 39.862 62.4144 39.858 62.415 39.8529C62.416 39.8426 62.4175 39.8277 62.4193 39.8085C62.4229 39.7701 62.428 39.7145 62.4338 39.644C62.4455 39.503 62.4604 39.3024 62.4734 39.0612C62.4994 38.5803 62.5182 37.9317 62.4879 37.2717C62.4579 36.6195 62.3787 35.9212 62.1932 35.3575C62.0197 34.8305 61.6802 34.2114 60.9951 34.1118L60.8513 35.1014C60.9246 35.1121 61.0884 35.1994 61.2433 35.6701C61.3861 36.104 61.4603 36.6947 61.4889 37.3176C61.5172 37.9328 61.4998 38.5456 61.4749 39.0073C61.4625 39.2374 61.4483 39.4284 61.4373 39.5612C61.4317 39.6276 61.427 39.6794 61.4237 39.7142C61.4221 39.7316 61.4208 39.7447 61.4199 39.7534C61.4195 39.7577 61.4192 39.7608 61.419 39.7628C61.4189 39.7638 61.4188 39.7645 61.4187 39.7649C61.4187 39.7651 61.4187 39.7652 61.4187 39.7653C61.4187 39.7653 61.4187 39.7652 61.916 39.8174ZM62.416 48.2494V39.8174H61.416V48.2494H62.416Z" fill="black"/>
<path d="M52.8344 41.8794L54.604 39.4548C54.604 39.4548 53.7192 40.5936 52.8344 40.3365C51.9496 40.0793 51.8232 39.2344 51.8232 39.2344V40.3365L52.8344 41.8794Z" fill="black" stroke="black"/>
</svg>
