<svg width="170" height="31" viewBox="0 0 170 31" fill="none" xmlns="http://www.w3.org/2000/svg">
<path d="M12.5823 0.208496L8.44956 10.6669L4.29639 0.208496H0V14.7919H2.76196V2.89599L7.46753 14.7919H9.41114L14.1167 2.91683V14.7919H16.8991V0.208496H12.5823Z" fill="#263238"/>
<path d="M30.9491 0.208496H19.0215V2.68766H23.543V14.7919H26.3663V2.68766H30.9491V0.208496Z" fill="#263238"/>
<path d="M43.0258 0.208496H37.4814V14.7919H43.0258C47.3631 14.7919 50.6366 11.7294 50.6366 7.50016C50.6366 3.29183 47.3631 0.208496 43.0258 0.208496ZM43.0667 12.271H40.2638V2.70849H43.0667C45.8287 2.70849 47.8132 4.75016 47.8132 7.50016C47.8132 10.271 45.8491 12.271 43.0667 12.271Z" fill="#263238"/>
<path d="M62.3966 9.2085C62.3966 5.9585 60.3917 3.9585 57.4865 3.9585C54.4995 3.9585 52.249 6.04184 52.249 9.271C52.249 12.8752 54.3972 15.0002 58.1002 15.0002C58.9186 15.0002 60.2075 14.8752 61.7829 14.396V12.0627C60.1666 12.6877 59.205 12.8752 58.3253 12.8752C56.2589 12.8752 55.1746 12.0835 54.9291 10.1877H62.3966V9.2085ZM57.5069 5.91684C58.9186 5.91684 59.7165 6.87517 59.9211 8.41684H54.9291C55.1542 6.8335 56.0748 5.91684 57.5069 5.91684Z" fill="#263238"/>
<path d="M70.547 3.9585C69.0739 3.9585 68.0305 4.72934 67.1712 5.896V4.16684H64.4297V14.7919H67.1712V7.97934C67.9282 7.06267 68.7057 6.47934 69.6468 6.47934C70.6083 6.47934 71.3858 7.04184 71.3858 8.3335V14.7919H74.1068V7.7085C74.1068 5.271 72.5315 3.9585 70.547 3.9585Z" fill="#263238"/>
<path d="M83.0031 6.3335V4.16684H79.9342V1.3335H77.2132V4.16684H75.7197V6.3335H77.2132V11.271C77.2132 13.5627 78.5635 15.0002 80.9163 15.0002C81.5914 15.0002 82.062 14.9794 82.7576 14.8127V12.396C81.9392 12.5835 81.5914 12.6044 81.3255 12.6044C80.3639 12.6044 79.9342 12.021 79.9342 10.8752V6.3335H83.0031Z" fill="#263238"/>
<path d="M88.9842 3.9585C88.3091 3.9585 86.8974 4.00017 85.1379 4.54184V7.0835C86.6928 6.18767 87.7362 6.0835 88.3296 6.0835C89.9867 6.0835 90.7437 6.93767 90.7437 8.25017V9.31267C89.9458 8.396 88.9433 8.04184 87.8181 8.04184C85.6085 8.04184 84.0332 9.54184 84.0332 11.521C84.0332 13.5002 85.588 15.0002 87.7772 15.0002C88.9638 15.0002 89.9867 14.5002 90.7437 13.5419V14.7919H93.4648V8.146C93.4648 5.4585 91.7667 3.9585 88.9842 3.9585ZM88.616 13.2085C87.5317 13.2085 86.7133 12.4794 86.7133 11.521C86.7133 10.5627 87.5316 9.8335 88.6364 9.8335C89.3116 9.8335 90.0276 10.0835 90.7437 11.021V12.021C90.0276 12.9377 89.3116 13.2085 88.616 13.2085Z" fill="#263238"/>
<path d="M95.8545 14.7919H98.5755V0.208496H95.8545V14.7919Z" fill="#263238"/>
<path d="M113.058 15C114.183 15 115.452 14.8125 117.109 14.25V11.5C115.268 12.2708 114.081 12.4792 113.079 12.4792C109.826 12.4792 107.902 10.2292 107.902 7.52083C107.902 4.79167 109.826 2.5 113.079 2.5C114.081 2.5 115.268 2.70833 117.109 3.5V0.75C115.452 0.1875 114.183 0 113.058 0C108.209 0 105.038 3.35417 105.038 7.52083C105.038 11.6667 108.209 15 113.058 15Z" fill="#263238"/>
<path d="M129.288 9.2085C129.288 5.9585 127.283 3.9585 124.378 3.9585C121.391 3.9585 119.14 6.04184 119.14 9.271C119.14 12.8752 121.289 15.0002 124.992 15.0002C125.81 15.0002 127.099 14.8752 128.674 14.396V12.0627C127.058 12.6877 126.096 12.8752 125.217 12.8752C123.15 12.8752 122.066 12.0835 121.821 10.1877H129.288V9.2085ZM124.398 5.91684C125.81 5.91684 126.608 6.87517 126.813 8.41684H121.821C122.046 6.8335 122.966 5.91684 124.398 5.91684Z" fill="#263238"/>
<path d="M137.438 3.9585C135.965 3.9585 134.922 4.72934 134.062 5.896V4.16684H131.321V14.7919H134.062V7.97934C134.819 7.06267 135.597 6.47934 136.538 6.47934C137.499 6.47934 138.277 7.04184 138.277 8.3335V14.7919H140.998V7.7085C140.998 5.271 139.423 3.9585 137.438 3.9585Z" fill="#263238"/>
<path d="M149.894 6.3335V4.16684H146.826V1.3335H144.105V4.16684H142.611V6.3335H144.105V11.271C144.105 13.5627 145.455 15.0002 147.808 15.0002C148.483 15.0002 148.953 14.9794 149.649 14.8127V12.396C148.831 12.5835 148.483 12.6044 148.217 12.6044C147.255 12.6044 146.826 12.021 146.826 10.8752V6.3335H149.894Z" fill="#263238"/>
<path d="M161.195 9.2085C161.195 5.9585 159.19 3.9585 156.285 3.9585C153.298 3.9585 151.048 6.04184 151.048 9.271C151.048 12.8752 153.196 15.0002 156.899 15.0002C157.717 15.0002 159.006 14.8752 160.582 14.396V12.0627C158.965 12.6877 158.004 12.8752 157.124 12.8752C155.058 12.8752 153.973 12.0835 153.728 10.1877H161.195V9.2085ZM156.306 5.91684C157.717 5.91684 158.515 6.87517 158.72 8.41684H153.728C153.953 6.8335 154.873 5.91684 156.306 5.91684Z" fill="#263238"/>
<path d="M165.99 6.47934V4.16684H163.228V14.7919H165.99V8.021C166.768 7.12517 168.015 6.8335 170 6.8335V3.9585C167.606 3.9585 166.563 5.25017 165.99 6.47934Z" fill="#263238"/>
<path d="M4.97822 22.5112V27.3825L1.5966 22.5112H0V29.2636H1.32885V24.3343L4.71046 29.2636H6.30706V22.5112H4.97822Z" fill="#263238"/>
<path d="M12.2898 26.6785C12.2898 25.1736 11.318 24.2476 9.90978 24.2476C8.46194 24.2476 7.37109 25.2122 7.37109 26.7074C7.37109 28.3762 8.41235 29.3601 10.2073 29.3601C10.604 29.3601 11.2287 29.3023 11.9923 29.0804V28C11.2089 28.2894 10.7428 28.3762 10.3164 28.3762C9.31478 28.3762 8.78919 28.0096 8.67019 27.1318H12.2898V26.6785ZM9.9197 25.1543C10.604 25.1543 10.9907 25.5981 11.0899 26.3119H8.67019C8.77927 25.5788 9.22553 25.1543 9.9197 25.1543Z" fill="#263238"/>
<path d="M17.8473 24.3442H16.3102L15.3284 26.0226L14.3367 24.3442H12.8096L14.4359 26.7943L12.8096 29.2638H14.3367L15.3284 27.5081L16.3102 29.2638H17.8473L16.2209 26.7943L17.8473 24.3442Z" fill="#263238"/>
<path d="M21.7744 25.3473V24.3441H20.2869V23.0322H18.968V24.3441H18.2441V25.3473H18.968V27.6334C18.968 28.6945 19.6225 29.3601 20.7629 29.3601C21.0902 29.3601 21.3183 29.3505 21.6554 29.2733V28.1543C21.2588 28.2412 21.0902 28.2508 20.9613 28.2508C20.4952 28.2508 20.2869 27.9807 20.2869 27.4502V25.3473H21.7744Z" fill="#263238"/>
<path d="M28.0635 25.3764V26.4568H29.7296V27.9906C29.2139 28.1545 28.8569 28.1931 28.4305 28.1931C26.8537 28.1931 25.9215 27.1417 25.9215 25.8877C25.9215 24.624 26.8537 23.5725 28.4305 23.5725C28.9164 23.5725 29.5907 23.669 30.4832 24.0356V22.7623C29.68 22.5018 28.966 22.415 28.4206 22.415C26.0703 22.415 24.5332 23.9584 24.5332 25.8877C24.5332 27.8073 26.0604 29.3603 28.4999 29.3603C29.1643 29.3603 29.7891 29.2928 30.9692 28.8105V25.3764H28.0635Z" fill="#263238"/>
<path d="M36.8689 26.6785C36.8689 25.1736 35.897 24.2476 34.4889 24.2476C33.041 24.2476 31.9502 25.2122 31.9502 26.7074C31.9502 28.3762 32.9914 29.3601 34.7864 29.3601C35.183 29.3601 35.8078 29.3023 36.5714 29.0804V28C35.7879 28.2894 35.3219 28.3762 34.8954 28.3762C33.8938 28.3762 33.3683 28.0096 33.2493 27.1318H36.8689V26.6785ZM34.4988 25.1543C35.183 25.1543 35.5698 25.5981 35.6689 26.3119H33.2493C33.3583 25.5788 33.8046 25.1543 34.4988 25.1543Z" fill="#263238"/>
<path d="M40.8186 24.2476C40.1046 24.2476 39.5988 24.6045 39.1823 25.1447V24.3441H37.8535V29.2637H39.1823V26.1093C39.5493 25.6849 39.9261 25.4148 40.3823 25.4148C40.8484 25.4148 41.2252 25.6752 41.2252 26.2733V29.2637H42.5441V25.9839C42.5441 24.8553 41.7805 24.2476 40.8186 24.2476Z" fill="#263238"/>
<path d="M48.4031 26.6785C48.4031 25.1736 47.4313 24.2476 46.0231 24.2476C44.5753 24.2476 43.4844 25.2122 43.4844 26.7074C43.4844 28.3762 44.5257 29.3601 46.3206 29.3601C46.7173 29.3601 47.342 29.3023 48.1056 29.0804V28C47.3222 28.2894 46.8561 28.3762 46.4297 28.3762C45.4281 28.3762 44.9025 28.0096 44.7835 27.1318H48.4031V26.6785ZM46.033 25.1543C46.7173 25.1543 47.104 25.5981 47.2032 26.3119H44.7835C44.8926 25.5788 45.3388 25.1543 46.033 25.1543Z" fill="#263238"/>
<path d="M50.7265 25.4148V24.3441H49.3877V29.2637H50.7265V26.1286C51.1033 25.7138 51.7083 25.5788 52.6702 25.5788V24.2476C51.5099 24.2476 51.0042 24.8457 50.7265 25.4148Z" fill="#263238"/>
<path d="M55.3832 24.2476C55.056 24.2476 54.3717 24.2669 53.5189 24.5177V25.6945C54.2725 25.2797 54.7783 25.2315 55.0659 25.2315C55.8691 25.2315 56.2361 25.627 56.2361 26.2347V26.7267C55.8493 26.3023 55.3634 26.1383 54.818 26.1383C53.7469 26.1383 52.9834 26.8328 52.9834 27.7492C52.9834 28.6656 53.737 29.3601 54.7981 29.3601C55.3733 29.3601 55.8691 29.1286 56.2361 28.6849V29.2637H57.555V26.1865C57.555 24.9421 56.7319 24.2476 55.3832 24.2476ZM55.2047 28.5305C54.6791 28.5305 54.2825 28.1929 54.2825 27.7492C54.2825 27.3055 54.6791 26.9678 55.2146 26.9678C55.5419 26.9678 55.889 27.0836 56.2361 27.5177V27.9807C55.889 28.4051 55.5419 28.5305 55.2047 28.5305Z" fill="#263238"/>
<path d="M61.8673 25.3473V24.3441H60.3798V23.0322H59.0609V24.3441H58.3369V25.3473H59.0609V27.6334C59.0609 28.6945 59.7154 29.3601 60.8558 29.3601C61.183 29.3601 61.4111 29.3505 61.7483 29.2733V28.1543C61.3516 28.2412 61.183 28.2508 61.0541 28.2508C60.588 28.2508 60.3798 27.9807 60.3798 27.4502V25.3473H61.8673Z" fill="#263238"/>
<path d="M63.4576 23.5627C63.9138 23.5627 64.2708 23.2154 64.2708 22.7717C64.2708 22.328 63.9138 22 63.4576 22C62.9915 22 62.6445 22.328 62.6445 22.7717C62.6445 23.2154 62.9915 23.5627 63.4576 23.5627ZM62.7932 29.2637H64.1121V24.3441H62.7932V29.2637Z" fill="#263238"/>
<path d="M67.9135 29.3601C69.4605 29.3601 70.6307 28.2508 70.6307 26.7749C70.6307 25.328 69.4605 24.2476 67.9135 24.2476C66.3665 24.2476 65.1963 25.328 65.1963 26.7749C65.1963 28.2508 66.3665 29.3601 67.9135 29.3601ZM67.9135 28.299C67.1102 28.299 66.5152 27.672 66.5152 26.7942C66.5152 25.926 67.1102 25.3087 67.9135 25.3087C68.7168 25.3087 69.3217 25.926 69.3217 26.7942C69.3217 27.672 68.7168 28.299 67.9135 28.299Z" fill="#263238"/>
<path d="M74.5784 24.2476C73.8644 24.2476 73.3587 24.6045 72.9422 25.1447V24.3441H71.6133V29.2637H72.9422V26.1093C73.3091 25.6849 73.6859 25.4148 74.1421 25.4148C74.6082 25.4148 74.985 25.6752 74.985 26.2733V29.2637H76.3039V25.9839C76.3039 24.8553 75.5404 24.2476 74.5784 24.2476Z" fill="#263238"/>
<path d="M84.3625 22.5112V25.27H81.0801V22.5112H79.7314V29.2636H81.0801V26.4372H84.3625V29.2636H85.7112V22.5112H84.3625Z" fill="#263238"/>
<path d="M87.8044 23.5627C88.2605 23.5627 88.6175 23.2154 88.6175 22.7717C88.6175 22.328 88.2605 22 87.8044 22C87.3383 22 86.9912 22.328 86.9912 22.7717C86.9912 23.2154 87.3383 23.5627 87.8044 23.5627ZM87.1399 29.2637H88.4589V24.3441H87.1399V29.2637Z" fill="#263238"/>
<path d="M93.4205 24.3441V25.0772C93.0635 24.5563 92.5379 24.2476 91.8041 24.2476C90.4851 24.2476 89.543 25.2701 89.543 26.6206C89.543 27.9711 90.4851 29.0032 91.7941 29.0032C92.5478 29.0032 93.0734 28.6945 93.4205 28.1736V28.8585C93.4205 29.6013 92.7957 30.0354 91.9131 30.0354C91.3677 30.0354 90.8025 29.8521 89.9199 29.3794V30.5563C90.6339 30.8842 91.3181 31 91.933 31C93.5792 31 94.7394 30.0932 94.7394 28.9357V24.3441H93.4205ZM92.2106 27.9807C91.4371 27.9807 90.852 27.3923 90.852 26.6109C90.852 25.8489 91.4371 25.2797 92.2007 25.2797C92.7263 25.2797 93.1726 25.5691 93.4205 26.0418V27.209C93.1726 27.6817 92.7362 27.9807 92.2106 27.9807Z" fill="#263238"/>
<path d="M98.9544 24.2475C98.2404 24.2475 97.7346 24.6044 97.3181 25.1446V22.5112H95.9893V29.2636H97.3181V26.1092C97.6851 25.6848 98.0619 25.4147 98.5181 25.4147C98.9842 25.4147 99.361 25.6751 99.361 26.2732V29.2636H100.68V25.9838C100.68 24.8552 99.9163 24.2475 98.9544 24.2475Z" fill="#263238"/>
<path d="M104.992 25.3473V24.3441H103.504V23.0322H102.186V24.3441H101.462V25.3473H102.186V27.6334C102.186 28.6945 102.84 29.3601 103.98 29.3601C104.308 29.3601 104.536 29.3505 104.873 29.2733V28.1543C104.476 28.2412 104.308 28.2508 104.179 28.2508C103.713 28.2508 103.504 27.9807 103.504 27.4502V25.3473H104.992Z" fill="#263238"/>
<path d="M110.47 26.6785C110.47 25.1736 109.498 24.2476 108.09 24.2476C106.642 24.2476 105.551 25.2122 105.551 26.7074C105.551 28.3762 106.592 29.3601 108.387 29.3601C108.784 29.3601 109.409 29.3023 110.172 29.0804V28C109.389 28.2894 108.923 28.3762 108.496 28.3762C107.495 28.3762 106.969 28.0096 106.85 27.1318H110.47V26.6785ZM108.1 25.1543C108.784 25.1543 109.171 25.5981 109.27 26.3119H106.85C106.959 25.5788 107.405 25.1543 108.1 25.1543Z" fill="#263238"/>
<path d="M114.004 29.3601C114.38 29.3601 114.866 29.3119 115.362 29.1672V28C114.866 28.1736 114.549 28.2797 114.063 28.2797C113.161 28.2797 112.496 27.6334 112.496 26.7942C112.496 25.955 113.161 25.328 114.063 25.328C114.549 25.328 114.866 25.4244 115.362 25.5981V24.4116C114.866 24.3055 114.38 24.2476 113.984 24.2476C112.387 24.2476 111.187 25.2797 111.187 26.7942C111.187 28.328 112.397 29.3601 114.004 29.3601Z" fill="#263238"/>
<path d="M119.427 24.2475C118.713 24.2475 118.207 24.6044 117.791 25.1446V22.5112H116.462V29.2636H117.791V26.1092C118.158 25.6848 118.534 25.4147 118.991 25.4147C119.457 25.4147 119.833 25.6751 119.833 26.2732V29.2636H121.152V25.9838C121.152 24.8552 120.389 24.2475 119.427 24.2475Z" fill="#263238"/>
<path d="M127.267 22.5112H124.579V29.2636H127.267C129.369 29.2636 130.956 27.8456 130.956 25.8874C130.956 23.9388 129.369 22.5112 127.267 22.5112ZM127.287 28.0964H125.928V23.6687H127.287C128.625 23.6687 129.587 24.614 129.587 25.8874C129.587 27.1703 128.635 28.0964 127.287 28.0964Z" fill="#263238"/>
<path d="M136.656 26.6785C136.656 25.1736 135.684 24.2476 134.276 24.2476C132.828 24.2476 131.737 25.2122 131.737 26.7074C131.737 28.3762 132.779 29.3601 134.574 29.3601C134.97 29.3601 135.595 29.3023 136.359 29.0804V28C135.575 28.2894 135.109 28.3762 134.683 28.3762C133.681 28.3762 133.156 28.0096 133.037 27.1318H136.656V26.6785ZM134.286 25.1543C134.97 25.1543 135.357 25.5981 135.456 26.3119H133.037C133.146 25.5788 133.592 25.1543 134.286 25.1543Z" fill="#263238"/>
<path d="M140.607 24.2476C139.893 24.2476 139.387 24.6045 138.97 25.1447V24.3441H137.641V29.2637H138.97V26.1093C139.337 25.6849 139.714 25.4148 140.17 25.4148C140.636 25.4148 141.013 25.6752 141.013 26.2733V29.2637H142.332V25.9839C142.332 24.8553 141.568 24.2476 140.607 24.2476Z" fill="#263238"/>
<path d="M146.644 25.3473V24.3441H145.157V23.0322H143.838V24.3441H143.114V25.3473H143.838V27.6334C143.838 28.6945 144.492 29.3601 145.633 29.3601C145.96 29.3601 146.188 29.3505 146.525 29.2733V28.1543C146.129 28.2412 145.96 28.2508 145.831 28.2508C145.365 28.2508 145.157 27.9807 145.157 27.4502V25.3473H146.644Z" fill="#263238"/>
<path d="M148.235 23.5627C148.691 23.5627 149.048 23.2154 149.048 22.7717C149.048 22.328 148.691 22 148.235 22C147.769 22 147.421 22.328 147.421 22.7717C147.421 23.2154 147.769 23.5627 148.235 23.5627ZM147.57 29.2637H148.889V24.3441H147.57V29.2637Z" fill="#263238"/>
<path d="M152.056 29.3601C153.325 29.3601 153.989 28.6752 153.989 27.7781C153.989 25.955 151.292 26.5338 151.292 25.627C151.292 25.3183 151.56 25.135 152.056 25.135C152.532 25.135 153.206 25.3183 153.751 25.6077L153.761 24.4887C153.255 24.3248 152.512 24.2476 152.065 24.2476C150.806 24.2476 149.983 24.8167 149.983 25.7524C149.983 27.4695 152.68 26.9486 152.68 27.9228C152.68 28.2412 152.413 28.4244 151.897 28.4244C151.282 28.4244 150.628 28.1061 149.983 27.7396V28.9453C150.766 29.2637 151.58 29.3601 152.056 29.3601Z" fill="#263238"/>
<path d="M158.12 25.3473V24.3441H156.633V23.0322H155.314V24.3441H154.59V25.3473H155.314V27.6334C155.314 28.6945 155.968 29.3601 157.109 29.3601C157.436 29.3601 157.664 29.3505 158.001 29.2733V28.1543C157.605 28.2412 157.436 28.2508 157.307 28.2508C156.841 28.2508 156.633 27.9807 156.633 27.4502V25.3473H158.12Z" fill="#263238"/>
<path d="M160.286 25.4148V24.3441H158.947V29.2637H160.286V26.1286C160.663 25.7138 161.268 25.5788 162.229 25.5788V24.2476C161.069 24.2476 160.563 24.8457 160.286 25.4148Z" fill="#263238"/>
<path d="M166.522 24.3442L165.422 27.7204L164.113 24.3442H162.655L164.787 28.9069L163.686 30.8843H165.303L168 24.3442H166.522Z" fill="#263238"/>
</svg>
