<svg width="10" height="21" viewBox="0 0 10 21" fill="none" xmlns="http://www.w3.org/2000/svg">
<path d="M4.99997 0.94812C4.14741 0.94812 3.45752 1.63801 3.45752 2.49057C3.45752 3.34314 4.14741 4.03303 4.99997 4.03303C5.85254 4.03303 6.54243 3.34314 6.54243 2.49057C6.54243 1.63801 5.85254 0.94812 4.99997 0.94812Z" fill="#384449"/>
<path d="M5.00003 4.41863C3.93658 4.41863 3.07196 3.55401 3.07196 2.49057C3.07196 1.42712 3.93658 0.5625 5.00003 0.5625C6.06348 0.5625 6.92809 1.42712 6.92809 2.49057C6.92809 3.55401 6.06348 4.41863 5.00003 4.41863ZM5.00003 1.33373C4.36286 1.33373 3.84319 1.8534 3.84319 2.49057C3.84319 3.12773 4.36286 3.64741 5.00003 3.64741C5.63719 3.64741 6.15687 3.12773 6.15687 2.49057C6.15687 1.8534 5.63719 1.33373 5.00003 1.33373Z" fill="#384449"/>
<path d="M3.45752 5.57547C3.45752 6.42804 4.14741 7.11792 4.99997 7.11792C5.85254 7.11792 6.54243 6.42804 6.54243 5.57547" fill="#384449"/>
<path d="M7.31366 5.18985H2.68631C1.62286 5.18985 0.75824 6.05447 0.75824 7.11792V13.2877C0.75824 13.9249 1.27791 14.4446 1.91508 14.4446C2.05065 14.4446 2.18019 14.4175 2.30069 14.3738V19.4575C2.30069 20.3086 2.99209 21 3.84315 21C4.30558 21 4.7168 20.7906 4.99999 20.4668C5.28317 20.7906 5.69439 21 6.15683 21C7.00789 21 7.69928 20.3086 7.69928 19.4575V14.3738C7.81978 14.4175 7.94932 14.4446 8.08489 14.4446C8.72206 14.4446 9.24173 13.9249 9.24173 13.2877V7.11792C9.24173 6.05447 8.37711 5.18985 7.31366 5.18985ZM6.92805 19.4575C6.92805 19.8823 6.5816 20.2288 6.15683 20.2288C5.73205 20.2288 5.3856 19.8823 5.3856 19.4575V14.4446H4.61437V19.4575C4.61437 19.8823 4.26792 20.2288 3.84315 20.2288C3.41837 20.2288 3.07192 19.8823 3.07192 19.4575V12.9021H6.92805V19.4575ZM8.4705 13.2877C8.4705 13.5001 8.29728 13.6733 8.08489 13.6733C7.8725 13.6733 7.69928 13.5001 7.69928 13.2877V8.66037H6.92805V12.1309H3.07192V8.66037H2.30069V13.2877C2.30069 13.5001 2.12747 13.6733 1.91508 13.6733C1.70269 13.6733 1.52947 13.5001 1.52947 13.2877V7.11792C1.52947 6.48075 2.04914 5.96108 2.68631 5.96108H7.31366C7.95083 5.96108 8.4705 6.48075 8.4705 7.11792V13.2877Z" fill="#384449"/>
</svg>
