<svg width="68" height="68" viewBox="0 0 68 68" fill="none" xmlns="http://www.w3.org/2000/svg">
<path d="M53.3071 18.915C53.3071 20.0928 52.3534 21.0465 51.1756 21.0465C49.9978 21.0465 49.044 20.0928 49.044 18.915C49.044 17.743 49.9978 16.7835 51.1756 16.7835C52.3534 16.7835 53.3071 17.743 53.3071 18.915ZM37.6797 18.915C37.6797 20.0928 36.726 21.0465 35.5482 21.0465C34.3704 21.0465 33.4166 20.0928 33.4166 18.915C33.4166 17.743 34.3704 16.7835 35.5482 16.7835C36.726 16.7835 37.6797 17.743 37.6797 18.915Z" fill="white" stroke="#263238" stroke-width="1.61749" stroke-miterlimit="10" stroke-linejoin="round"/>
<path d="M58.9893 42.3906V50.888H27.7344V42.3619H27.7689C27.7861 31.5548 39.0988 29.5727 39.0988 29.5727L43.3963 30.5839L47.6249 29.5727C47.6249 29.5727 59.0237 31.5951 59.0237 42.3906H58.9893Z" fill="#C3E7E8" stroke="#263238" stroke-width="1.61749" stroke-miterlimit="10" stroke-linejoin="round"/>
<path d="M43.3619 33.8358C39.0988 33.8358 39.0988 29.5727 39.0988 29.5727V23.8905H47.6249V29.5727C47.6249 29.5727 47.6249 33.8358 43.3619 33.8358Z" fill="white" stroke="#263238" stroke-width="1.61749" stroke-miterlimit="10" stroke-linejoin="round"/>
<path d="M36.318 30.4288C37.9152 29.7853 39.0988 29.5727 39.0988 29.5727C39.0988 29.5727 39.0988 33.8358 43.3619 33.8358C47.6249 33.8358 47.6249 29.5727 47.6249 29.5727C47.6249 29.5727 48.8085 29.7853 50.4057 30.4288C50.0667 33.2038 48.0731 36.6797 43.3619 36.6797C38.6506 36.6797 36.657 33.2038 36.318 30.4288Z" fill="#263238" stroke="#263238" stroke-width="1.61749" stroke-miterlimit="10" stroke-linejoin="round"/>
<path d="M51.888 20.133C51.888 24.7925 48.0731 28.5729 43.3619 28.5729C38.6507 28.5729 34.8357 24.7925 34.8357 20.133V12.7444C34.8357 8.07918 51.888 5.58569 51.888 12.7444V20.133Z" fill="white" stroke="#263238" stroke-width="1.61749" stroke-miterlimit="10" stroke-linejoin="round"/>
<path d="M46.3437 4L47.3434 5.9879C52.2729 6.97036 53.3071 11.423 53.3071 15.4275V16.7835L50.4689 19.6274V13.9452L47.6249 11.1013L36.2606 15.3643V19.6274L33.4166 16.7835V14.1578C33.4166 9.36043 37.3177 4 43.3619 4H46.3437Z" fill="#384449" stroke="#263238" stroke-width="1.61749" stroke-miterlimit="10" stroke-linejoin="round"/>
<path d="M30.5727 27.4412C30.5727 28.619 29.6189 29.5727 28.4411 29.5727C27.2633 29.5727 26.3153 28.619 26.3153 27.4412C26.3153 26.2634 27.2633 25.3096 28.4411 25.3096C29.6189 25.3096 30.5727 26.2634 30.5727 27.4412ZM14.9453 27.4412C14.9453 28.619 13.9915 29.5727 12.8137 29.5727C11.6359 29.5727 10.6822 28.619 10.6822 27.4412C10.6822 26.2634 11.6359 25.3096 12.8137 25.3096C13.9915 25.3096 14.9453 26.2634 14.9453 27.4412Z" fill="white" stroke="#263238" stroke-width="1.61749" stroke-miterlimit="10" stroke-linejoin="round"/>
<path d="M36.2606 50.9109V53.7262H5V50.8879H5.03447C5.05745 40.0752 16.3643 38.0987 16.3643 38.0987L20.6619 39.1099L24.8905 38.0987C24.8905 38.0987 36.295 40.1211 36.295 50.9109H36.2606Z" fill="#C3E7E8" stroke="#263238" stroke-width="1.61749" stroke-miterlimit="10" stroke-linejoin="round"/>
<path d="M20.6274 42.3619C16.3643 42.3619 16.3643 38.0988 16.3643 38.0988V32.4167H24.8905V38.0988C24.8905 38.0988 24.8905 42.3619 20.6274 42.3619Z" fill="white" stroke="#263238" stroke-width="1.61749" stroke-miterlimit="10" stroke-linejoin="round"/>
<path d="M13.5836 38.9548C15.1808 38.3113 16.3643 38.0987 16.3643 38.0987C16.3643 38.0987 16.3643 42.3618 20.6274 42.3618C24.8905 42.3618 24.8905 38.0987 24.8905 38.0987C24.8905 38.0987 26.074 38.3113 27.6712 38.9548C27.3323 41.7298 25.3444 45.2 20.6274 45.2C15.9162 45.2 13.9226 41.7298 13.5836 38.9548Z" fill="#263238" stroke="#263238" stroke-width="1.61749" stroke-miterlimit="10" stroke-linejoin="round"/>
<path d="M29.1535 28.6592C29.1535 33.3187 25.3386 37.0991 20.6274 37.0991C15.922 37.0991 12.107 33.3187 12.107 28.6592V21.2649C12.107 16.6054 29.1535 14.1061 29.1535 21.2649V28.6592Z" fill="white" stroke="#263238" stroke-width="1.61749" stroke-miterlimit="10" stroke-linejoin="round"/>
<path d="M29.1535 28.6592C29.1535 33.3187 25.3386 37.0991 20.6274 37.0991C15.922 37.0991 12.107 33.3187 12.107 28.6592V21.2649C12.107 16.6054 29.1535 14.1061 29.1535 21.2649V28.6592Z" fill="white" stroke="#263238" stroke-width="1.61749" stroke-miterlimit="10" stroke-linejoin="round"/>
<path d="M23.4714 12.5261L24.609 14.514C29.5442 15.4908 30.5727 19.9492 30.5727 23.9479V25.3096L27.7345 28.1536V22.4714L24.8905 19.6274L13.5261 23.8905V28.1536L10.6822 25.3096V22.684C10.6822 17.8866 14.589 12.5261 20.6274 12.5261H23.4714Z" fill="#384449" stroke="#263238" stroke-width="1.61749" stroke-miterlimit="10" stroke-linejoin="round"/>
<path d="M15.6577 27.0849C15.6577 26.4989 16.1345 26.022 16.7205 26.022C17.3123 26.022 17.7892 26.4989 17.7892 27.0849C17.7892 27.671 17.3123 28.1536 16.7205 28.1536C16.1345 28.1536 15.6577 27.671 15.6577 27.0849ZM23.4714 27.0849C23.4714 26.4989 23.9482 26.022 24.5343 26.022C25.126 26.022 25.6029 26.4989 25.6029 27.0849C25.6029 27.671 25.126 28.1536 24.5343 28.1536C23.9482 28.1536 23.4714 27.671 23.4714 27.0849ZM38.3921 18.5645C38.3921 17.9728 38.869 17.4959 39.455 17.4959C40.041 17.4959 40.5179 17.9728 40.5179 18.5645C40.5179 19.1506 40.041 19.6274 39.455 19.6274C38.869 19.6274 38.3921 19.1506 38.3921 18.5645ZM46.2058 18.5645C46.2058 17.9728 46.6827 17.4959 47.2687 17.4959C47.8605 17.4959 48.3373 17.9728 48.3373 18.5645C48.3373 19.1506 47.8605 19.6274 47.2687 19.6274C46.6827 19.6274 46.2058 19.1506 46.2058 18.5645Z" fill="#263238" stroke="#263238" stroke-width="1.61749" stroke-miterlimit="10" stroke-linejoin="round"/>
<path d="M61.8332 49.4631C61.8332 57.3113 55.4731 63.6714 47.6249 63.6714C39.7768 63.6714 33.4166 57.3113 33.4166 49.4631C33.4166 41.6149 39.7768 35.2548 47.6249 35.2548C55.4731 35.2548 61.8332 41.6149 61.8332 49.4631Z" fill="#43A047" stroke="#263238" stroke-width="1.61749" stroke-miterlimit="10" stroke-linejoin="round"/>
<path d="M44.7809 40.937H50.4689V57.9892H44.7809V40.937Z" fill="white" stroke="#263238" stroke-width="1.61749" stroke-miterlimit="10" stroke-linejoin="round"/>
<path d="M39.0988 46.6249H56.1511V52.3071H39.0988V46.6249Z" fill="white" stroke="#263238" stroke-width="1.61749" stroke-miterlimit="10" stroke-linejoin="round"/>
<path d="M53.3072 18.915C53.3072 20.0928 52.3534 21.0465 51.1756 21.0465C49.9978 21.0465 49.0441 20.0928 49.0441 18.915C49.0441 17.743 49.9978 16.7835 51.1756 16.7835C52.3534 16.7835 53.3072 17.743 53.3072 18.915ZM37.6797 18.915C37.6797 20.0928 36.726 21.0465 35.5482 21.0465C34.3704 21.0465 33.4167 20.0928 33.4167 18.915C33.4167 17.743 34.3704 16.7835 35.5482 16.7835C36.726 16.7835 37.6797 17.743 37.6797 18.915Z" fill="white"/>
<path d="M59.0238 42.3906C59.0238 31.5951 47.625 29.5727 47.625 29.5727L43.3964 30.5839L39.0988 29.5727C39.0988 29.5727 27.7862 31.5549 27.7689 42.3619H27.7345V50.8881H58.9893V42.3906H59.0238Z" fill="#BFBFBF"/>
<path d="M43.3619 33.8358C39.0988 33.8358 39.0988 29.5727 39.0988 29.5727V23.8905H47.625V29.5727C47.625 29.5727 47.625 33.8358 43.3619 33.8358Z" fill="white"/>
<path d="M43.3619 36.6797C48.0731 36.6797 50.0668 33.2038 50.4058 30.4288C48.8085 29.7853 47.625 29.5727 47.625 29.5727C47.625 29.5727 47.625 33.8358 43.3619 33.8358C39.0988 33.8358 39.0988 29.5727 39.0988 29.5727C39.0988 29.5727 37.9153 29.7853 36.3181 30.4288C36.6571 33.2038 38.6507 36.6797 43.3619 36.6797Z" fill="#263238"/>
<path d="M51.888 12.7445C51.888 5.58577 34.8358 8.07927 34.8358 12.7445V20.1331C34.8358 24.7926 38.6507 28.573 43.3619 28.573C48.0731 28.573 51.888 24.7926 51.888 20.1331V12.7445Z" fill="white"/>
<path d="M43.3619 4C37.3178 4 33.4167 9.36044 33.4167 14.1578V16.7835L36.2606 19.6274V15.3644L47.625 11.1013L50.4689 13.9453V19.6274L53.3072 16.7835V15.4276C53.3072 11.423 52.273 6.97036 47.3435 5.9879L46.3438 4H43.3619Z" fill="#384449"/>
<path d="M30.5727 27.4412C30.5727 28.619 29.619 29.5727 28.4412 29.5727C27.2634 29.5727 26.3154 28.619 26.3154 27.4412C26.3154 26.2634 27.2634 25.3096 28.4412 25.3096C29.619 25.3096 30.5727 26.2634 30.5727 27.4412ZM14.9453 27.4412C14.9453 28.619 13.9915 29.5727 12.8137 29.5727C11.6359 29.5727 10.6822 28.619 10.6822 27.4412C10.6822 26.2634 11.6359 25.3096 12.8137 25.3096C13.9915 25.3096 14.9453 26.2634 14.9453 27.4412Z" fill="white"/>
<path d="M36.2951 50.911C36.2951 40.1212 24.8905 38.0988 24.8905 38.0988L20.6619 39.11L16.3644 38.0988C16.3644 38.0988 5.05745 40.0753 5.03447 50.8881H5V53.7263H36.2606V50.911H36.2951Z" fill="#C3E7E8"/>
<path d="M20.6275 42.3619C16.3644 42.3619 16.3644 38.0988 16.3644 38.0988V32.4167H24.8905V38.0988C24.8905 38.0988 24.8905 42.3619 20.6275 42.3619Z" fill="white"/>
<path d="M20.6274 45.2001C25.3444 45.2001 27.3323 41.7299 27.6713 38.9549C26.074 38.3114 24.8905 38.0988 24.8905 38.0988C24.8905 38.0988 24.8905 42.3619 20.6274 42.3619C16.3644 42.3619 16.3644 38.0988 16.3644 38.0988C16.3644 38.0988 15.1808 38.3114 13.5836 38.9549C13.9226 41.7299 15.9162 45.2001 20.6274 45.2001Z" fill="#263238"/>
<path d="M29.1536 21.2649C29.1536 14.1061 12.107 16.6054 12.107 21.2649V28.6592C12.107 33.3187 15.922 37.0992 20.6274 37.0992C25.3386 37.0992 29.1536 33.3187 29.1536 28.6592V21.2649Z" fill="white"/>
<path d="M29.1536 21.2649C29.1536 14.1061 12.107 16.6054 12.107 21.2649V28.6592C12.107 33.3187 15.922 37.0992 20.6274 37.0992C25.3386 37.0992 29.1536 33.3187 29.1536 28.6592V21.2649Z" fill="white"/>
<path d="M20.6274 12.5261C14.5891 12.5261 10.6822 17.8866 10.6822 22.684V25.3096L13.5262 28.1536V23.8905L24.8905 19.6274L27.7345 22.4714V28.1536L30.5727 25.3096V23.948C30.5727 19.9492 29.5443 15.4908 24.609 14.514L23.4714 12.5261H20.6274Z" fill="#384449"/>
<path d="M15.6577 27.0849C15.6577 26.4989 16.1346 26.022 16.7206 26.022C17.3124 26.022 17.7892 26.4989 17.7892 27.0849C17.7892 27.671 17.3124 28.1536 16.7206 28.1536C16.1346 28.1536 15.6577 27.671 15.6577 27.0849ZM23.4714 27.0849C23.4714 27.671 23.9483 28.1536 24.5343 28.1536C25.1261 28.1536 25.6029 27.671 25.6029 27.0849C25.6029 26.4989 25.1261 26.022 24.5343 26.022C23.9483 26.022 23.4714 26.4989 23.4714 27.0849ZM38.3922 18.5645C38.3922 17.9728 38.869 17.4959 39.4551 17.4959C40.0411 17.4959 40.518 17.9728 40.518 18.5645C40.518 19.1506 40.0411 19.6274 39.4551 19.6274C38.869 19.6274 38.3922 19.1506 38.3922 18.5645ZM46.2059 18.5645C46.2059 19.1506 46.6827 19.6274 47.2688 19.6274C47.8605 19.6274 48.3374 19.1506 48.3374 18.5645C48.3374 17.9728 47.8605 17.4959 47.2688 17.4959C46.6827 17.4959 46.2059 17.9728 46.2059 18.5645Z" fill="#263238"/>
<path d="M62.625 49.3357C62.625 57.6213 55.9105 64.3357 47.625 64.3357C39.3395 64.3357 32.625 57.6213 32.625 49.3357C32.625 41.0502 39.3395 34.3357 47.625 34.3357C55.9105 34.3357 62.625 41.0502 62.625 49.3357Z" fill="#EDEBEB" stroke="#263238"/>
<path d="M45.0417 41.4583H50.2083V56.9583H45.0417V41.4583Z" fill="#384449"/>
<path d="M39.875 46.625H55.375V51.7917H39.875V46.625Z" fill="#384449"/>
<path d="M20.9072 33.7083C20.3118 33.7083 19.7637 33.4497 19.4518 33.0213C19.3856 32.9243 19.414 32.803 19.5274 32.7384C19.6408 32.6818 19.7826 32.706 19.8582 32.803C20.2268 33.3042 20.9923 33.4497 21.5782 33.1425C21.7389 33.0536 21.8712 32.9404 21.9751 32.803C22.0413 32.706 22.1925 32.6818 22.3059 32.7384C22.4193 32.795 22.4477 32.9243 22.3815 33.0213C22.0507 33.4497 21.4931 33.7083 20.9072 33.7083Z" fill="#384449"/>
<path d="M43.4041 24.7083C42.6102 24.7083 41.8793 24.4497 41.4635 24.0213C41.3753 23.9243 41.4131 23.803 41.5643 23.7384C41.7155 23.6818 41.9046 23.706 42.0054 23.803C42.4968 24.3042 43.5175 24.4497 44.2987 24.1425C44.5129 24.0536 44.6893 23.9404 44.828 23.803C44.9162 23.706 45.1178 23.6818 45.269 23.7384C45.4202 23.795 45.458 23.9243 45.3698 24.0213C44.9288 24.4497 44.1853 24.7083 43.4041 24.7083Z" fill="#384449"/>
</svg>
