<svg width="862" height="1140" viewBox="0 0 862 1140" fill="none" xmlns="http://www.w3.org/2000/svg">
<path d="M2.79885 1107.34C-48.9566 1166.38 634.217 1127.35 634.217 1127.35L861 1057.3V31.5914C749.961 -8.26949 419.976 -36.9388 332.623 117.151C233.346 292.272 256.553 417.143 149.126 557.455C35.7344 705.558 159.053 929.086 2.79885 1107.34Z" fill="#89EAEE"/>
<path d="M485.483 151.693L470.603 142.642C469.316 141.861 468.247 140.749 467.575 139.396C464.4 133.023 458.592 132.982 454.935 133.724C453.968 133.922 453.339 132.746 454.031 132.039C455.511 130.527 456.931 129.381 458.282 128.543C466.886 123.192 472.815 130.159 474.877 133.235C475.511 134.178 476.351 134.966 477.319 135.555L490.416 143.523L489.183 148.192L489.089 148.28L485.483 151.693Z" fill="#9FACBA"/>
<path d="M485.49 151.724L470.609 142.642C469.321 141.859 468.251 140.744 467.578 139.389C464.397 133.005 458.592 132.956 454.939 133.693C453.974 133.89 453.344 132.712 454.034 132.005C455.51 130.494 456.928 129.349 458.277 128.512C462.028 127.809 467.827 128.02 470.884 134.713C471.321 135.664 472.006 136.474 472.895 137.016L488.578 146.588L489.088 148.313L485.49 151.724Z" fill="#8D9CA8"/>
<path d="M491.685 166.755C491.003 166.339 490.378 165.828 489.834 165.239L488.529 163.833L485.633 160.712C483.598 158.679 483.21 155.507 484.697 153.037L490.839 142.832C492.325 140.363 495.298 139.241 498.029 140.117L503.9 141.754C504.693 141.968 505.449 142.295 506.15 142.723L503.792 147.868L500.581 154.872L495.612 161.509L491.685 166.755Z" fill="#89EAEE"/>
<path d="M491.685 166.755C491.003 166.339 490.378 165.828 489.834 165.239L488.529 163.834L485.633 160.712C483.598 158.68 483.21 155.507 484.697 153.037L487.423 148.508C487.16 150.614 487.957 152.939 489.445 154.426L495.48 160.454L495.612 161.51L491.685 166.755Z" fill="#46CDD3"/>
<path d="M636.551 232.911C632.894 233.653 627.087 233.611 623.913 227.238C623.24 225.887 622.171 224.776 620.885 223.994L606.006 214.942L602.304 218.442L601.072 223.114L614.168 231.081C615.137 231.671 615.975 232.457 616.609 233.4C618.999 236.959 626.56 245.728 637.455 234.596C638.147 233.889 637.518 232.715 636.551 232.911V232.911Z" fill="#9FACBA"/>
<path d="M601.079 223.085L614.178 231.077C615.166 231.68 616.007 232.496 616.658 233.458C619.092 237.058 626.637 245.697 637.451 234.629C638.142 233.923 637.513 232.747 636.546 232.941C636.464 232.958 636.381 232.972 636.298 232.989C627.747 238.303 621.828 231.405 619.736 228.305C619.09 227.348 618.251 226.542 617.268 225.942L604.17 217.948L602.305 218.409L601.079 223.085Z" fill="#8D9CA8"/>
<path d="M593.457 226.517L587.586 224.88C586.793 224.666 586.037 224.339 585.336 223.911L587.694 218.766L590.905 211.762L599.801 199.879C600.483 200.296 601.108 200.807 601.652 201.395L602.957 202.801L605.853 205.922C607.888 207.955 608.276 211.127 606.789 213.597L600.647 223.802C599.16 226.272 596.188 227.393 593.457 226.517Z" fill="#68DADF"/>
<path d="M593.457 226.517L587.586 224.88C586.793 224.666 586.037 224.339 585.336 223.911L587.694 218.766L590.026 216.12L591 216.431C593.731 217.307 596.704 216.186 598.19 213.716L601.917 207.263C602.587 206.155 602.983 204.277 602.957 202.801L605.853 205.923C607.888 207.955 608.276 211.128 606.789 213.598L600.647 223.802C599.16 226.272 596.188 227.393 593.457 226.517V226.517Z" fill="#46CDD3"/>
<path d="M506.153 142.714L599.787 199.859L585.324 223.887L491.691 166.742L506.153 142.714Z" fill="#D6FAFC"/>
<path d="M599.799 199.878L593.562 196.071L584.277 211.498C583.504 212.782 581.844 213.192 580.569 212.414L495.467 160.476L491.687 166.756L585.335 223.91L599.799 199.878Z" fill="#A5EAED"/>
<path d="M584.306 209.533L583.542 206.377L586.687 205.596C587.942 205.284 588.713 204.011 588.408 202.751C588.103 201.492 586.838 200.723 585.582 201.035L582.437 201.817L581.673 198.661C581.368 197.402 580.103 196.633 578.847 196.945C577.592 197.257 576.822 198.531 577.127 199.79L577.891 202.946L574.745 203.727C573.49 204.039 572.72 205.313 573.025 206.572C573.33 207.832 574.594 208.6 575.85 208.288L578.995 207.507L579.76 210.662C580.065 211.922 581.329 212.69 582.585 212.378C583.84 212.066 584.611 210.793 584.306 209.533V209.533Z" fill="#89EAEE"/>
<path d="M570.488 201.1L569.724 197.945L572.87 197.163C574.125 196.851 574.895 195.578 574.59 194.318C574.285 193.059 573.02 192.291 571.765 192.602L568.62 193.384L567.855 190.228C567.55 188.969 566.285 188.201 565.03 188.512C563.775 188.824 563.004 190.098 563.309 191.357L564.073 194.513L560.928 195.294C559.672 195.606 558.902 196.88 559.207 198.139C559.512 199.399 560.777 200.167 562.032 199.855L565.178 199.074L565.942 202.229C566.247 203.489 567.512 204.257 568.767 203.945C570.023 203.633 570.793 202.36 570.488 201.1Z" fill="#89EAEE"/>
<path d="M513.982 166.614L513.218 163.458L516.363 162.677C517.619 162.365 518.389 161.091 518.084 159.832C517.779 158.572 516.514 157.804 515.259 158.116L512.113 158.897L511.349 155.742C511.044 154.482 509.779 153.714 508.524 154.026C507.268 154.338 506.498 155.612 506.803 156.871L507.567 160.027L504.422 160.808C503.166 161.12 502.396 162.394 502.701 163.653C503.006 164.912 504.271 165.681 505.526 165.369L508.672 164.588L509.436 167.743C509.741 169.003 511.006 169.771 512.261 169.459C513.517 169.147 514.287 167.873 513.982 166.614Z" fill="#89EAEE"/>
<path d="M527.799 175.047L527.035 171.891L530.181 171.11C531.436 170.798 532.206 169.524 531.901 168.265C531.596 167.005 530.331 166.237 529.076 166.549L525.931 167.33L525.166 164.175C524.861 162.915 523.596 162.147 522.341 162.459C521.086 162.771 520.315 164.045 520.62 165.304L521.384 168.46L518.239 169.241C516.984 169.553 516.213 170.826 516.518 172.086C516.823 173.345 518.088 174.114 519.344 173.802L522.489 173.02L523.253 176.176C523.558 177.435 524.823 178.204 526.079 177.892C527.334 177.58 528.104 176.306 527.799 175.047Z" fill="#89EAEE"/>
<path d="M223.634 779.948C223.234 779.948 222.834 779.795 222.528 779.487C221.916 778.872 221.914 777.873 222.525 777.256L235.553 764.108C236.164 763.491 237.156 763.489 237.769 764.104C238.381 764.719 238.383 765.718 237.772 766.335L224.743 779.484C224.437 779.793 224.036 779.948 223.634 779.948Z" fill="#EAF6FF"/>
<path d="M225.965 783.261L225.041 779.1C224.803 778.029 223.973 777.193 222.91 776.952L218.794 776.02C216.899 775.591 214.919 776.171 213.546 777.557L209.838 781.302L214.749 788.553L220.734 792.306L224.442 788.561C225.815 787.174 226.39 785.175 225.965 783.261V783.261Z" fill="#4ED7DD"/>
<path d="M225.965 783.262L225.041 779.1C224.803 778.03 223.973 777.193 222.91 776.952L218.794 776.02C217.227 775.665 215.601 776.002 214.309 776.914C215.474 777.178 216.384 778.095 216.644 779.269L217.531 783.261C217.903 784.936 217.509 786.677 216.485 788.015L217.056 789.999L220.734 792.306L224.442 788.561C225.815 787.175 226.39 785.175 225.965 783.262Z" fill="#B4DBDD"/>
<path d="M161.07 841.555C158.061 838.516 158.061 833.59 161.07 830.551L209.838 781.303L220.734 792.306L171.967 841.555C168.958 844.593 164.079 844.593 161.07 841.555V841.555Z" fill="#EAF6FF"/>
<path d="M209.838 781.303L205.621 785.561L210.556 790.544C211.52 791.518 211.52 793.094 210.556 794.068L167.425 837.627C165.315 839.758 162.288 840.392 159.629 839.536C159.99 840.264 160.469 840.947 161.07 841.555C164.079 844.593 168.958 844.593 171.967 841.555L220.734 792.306L209.838 781.303Z" fill="#C8EFFE"/>
<path d="M246.386 771.796C255.353 771.796 262.623 764.454 262.623 755.398C262.623 746.342 255.353 739 246.386 739C237.418 739 230.148 746.342 230.148 755.398C230.148 764.454 237.418 771.796 246.386 771.796Z" fill="#9FACBA"/>
<path d="M257.867 743.803C253.559 739.452 247.434 738.061 241.96 739.622C244.544 740.358 246.983 741.749 249.016 743.803C255.357 750.206 255.357 760.589 249.016 766.993C246.983 769.046 244.544 770.438 241.96 771.174C247.434 772.735 253.559 771.343 257.867 766.993C264.209 760.589 264.209 750.206 257.867 743.803V743.803Z" fill="#8D9CA8"/>
<path d="M168.89 835.235C168.49 835.235 168.09 835.082 167.784 834.775C167.171 834.16 167.17 833.161 167.781 832.544L171.803 828.481C172.414 827.864 173.406 827.863 174.019 828.478C174.631 829.093 174.633 830.092 174.022 830.709L169.999 834.771C169.693 835.081 169.292 835.235 168.89 835.235V835.235Z" fill="#4ED7DD"/>
<path d="M734 53.3077C734.001 69.1347 737.934 84.6796 745.4 98.3644C752.865 112.049 763.597 123.386 776.507 131.225C789.416 139.064 804.043 143.126 818.903 142.997C833.763 142.869 848.326 138.555 861.114 130.494V33H736.177C734.723 39.658 733.992 46.472 734 53.3077V53.3077Z" fill="#7FBED7"/>
<path d="M382.832 287C354.586 287 331.689 262.6 331.689 232.5C331.689 202.4 354.586 178 382.832 178C411.078 178 433.976 202.4 433.976 232.5C433.976 262.6 411.078 287 382.832 287Z" fill="#7FBED7"/>
<path d="M146.479 1015C126.46 1015 110.232 997.763 110.232 976.5C110.232 955.237 126.46 938 146.479 938C166.498 938 182.727 955.237 182.727 976.5C182.727 997.763 166.498 1015 146.479 1015Z" fill="#7FBED7"/>
<path d="M780.561 736C760.267 736 743.817 718.539 743.817 697C743.817 675.461 760.267 658 780.561 658C800.854 658 817.304 675.461 817.304 697C817.304 718.539 800.854 736 780.561 736Z" fill="#7FBED7"/>
<path d="M815.634 1058H860.654V1004.76C853.412 1002.5 845.644 1002.41 838.35 1004.51C831.055 1006.6 824.569 1010.78 819.726 1016.5C814.883 1022.23 811.905 1029.24 811.176 1036.64C810.446 1044.04 811.999 1051.47 815.634 1058V1058Z" fill="#7FBED7"/>
<path d="M696.904 795.724L683.144 793.639L686.104 760.929L699.869 762.999L696.904 795.724Z" fill="#FFB573"/>
<path d="M629.874 783.524L616.216 781.858L618.15 749.712L631.811 751.363L629.874 783.524Z" fill="#FFB573"/>
<path d="M616.116 774.937L631.084 773.643C631.344 773.612 631.606 773.684 631.815 773.843C632.023 774.003 632.162 774.237 632.202 774.498L634.318 786.697C634.366 787.022 634.347 787.353 634.261 787.67C634.175 787.987 634.025 788.283 633.82 788.539C633.615 788.794 633.36 789.004 633.07 789.156C632.781 789.307 632.463 789.396 632.137 789.417C626.739 789.828 621.839 789.116 615.138 790.472C607.33 791.952 603.452 795.387 595.761 793.691C590.255 792.478 590.117 787.117 592.606 786.929C603.928 786.032 603.11 783.067 612.632 776.41C613.644 775.619 614.846 775.111 616.116 774.937V774.937Z" fill="#263238"/>
<path opacity="0.2" d="M618.15 749.712L617.151 766.298L630.827 767.952L631.826 751.366L618.15 749.712Z" fill="black"/>
<path opacity="0.2" d="M687.2 761.205L685.671 778.082L699.451 780.156L700.979 763.279L687.2 761.205Z" fill="black"/>
<path d="M648.494 613.354C657.695 573.591 683.413 479.718 683.413 479.718L626.469 472.143C626.469 472.143 616.305 572.486 614.164 614.654C611.946 658.486 611.808 762.287 611.808 762.287L634.986 765.348C634.986 765.348 652.119 646.47 648.494 613.354Z" fill="#263238"/>
<path d="M610.307 762.612L637.793 766.254L638.637 757.253L610.103 752.948L610.307 762.612Z" fill="#62A2A5"/>
<path d="M692.19 635.831C697.655 563.575 708.457 508.712 703.863 479.596L647.433 472.873C647.433 472.873 654.404 584.348 659.387 632.438C664.55 682.427 677.758 768.938 677.758 768.938L705.076 775.818C705.076 775.818 703.659 672.259 692.19 635.831Z" fill="#263238"/>
<path d="M683.815 786.706L698.91 784.911C699.172 784.871 699.439 784.935 699.655 785.091C699.87 785.247 700.018 785.482 700.066 785.746L702.574 798.116C702.632 798.446 702.622 798.784 702.545 799.11C702.468 799.436 702.325 799.742 702.125 800.009C701.926 800.276 701.674 800.499 701.386 800.662C701.098 800.826 700.779 800.927 700.451 800.959C695.005 801.549 690.03 800.979 683.296 802.575C675.446 804.332 671.629 807.957 663.802 806.474C658.199 805.411 657.897 799.951 660.408 799.68C671.828 798.405 670.912 795.408 680.338 788.319C681.337 787.48 682.537 786.923 683.815 786.706V786.706Z" fill="#263238"/>
<path d="M677.273 773.747L706.009 778.588L707.026 769.734L677.202 764.19L677.273 773.747Z" fill="#62A2A5"/>
<path d="M585.48 493.834C591.531 497.98 596.136 492.15 602.889 489.176C609.642 486.202 615.278 480.917 620.558 475.478C625.839 470.039 629.475 463.248 635.606 458.963C635.688 458.372 635.768 457.797 635.841 457.273C637.495 445.18 640.904 433.396 645.958 422.298C645.441 421.819 644.889 421.379 644.309 420.98C638.95 417.638 620.745 437.635 617.69 441.114C614.636 444.594 611.598 447.955 608.348 450.993C607.523 451.83 606.673 452.64 605.799 453.424L603.311 456.277L601.83 456.826C598.04 458.206 570.51 474.155 570.51 474.155C571.072 475.301 574.253 477.923 574.253 477.923L576.747 480.854L579.242 484.204L580.906 486.298L585.48 493.834Z" fill="#46CDD3"/>
<path opacity="0.7" d="M585.895 493.834C591.947 497.98 596.136 492.15 602.889 489.176C609.642 486.202 615.278 480.917 620.558 475.478C625.839 470.039 629.475 463.248 635.606 458.963C635.688 458.372 635.768 457.797 635.841 457.273C637.495 445.18 640.904 433.396 645.958 422.298C645.441 421.819 644.889 421.379 644.309 420.98C638.95 417.638 620.745 437.635 617.69 441.114C614.636 444.594 611.598 447.955 608.348 450.993C607.523 451.83 606.673 452.64 605.799 453.424L603.311 456.277L601.83 456.826C598.04 458.206 570.51 474.155 570.51 474.155L573.837 477.923L577.163 481.273L581.321 486.298L585.895 493.834Z" fill="white"/>
<path d="M662.222 416.954L683.056 416.159L708.42 421.07C712.272 421.808 715.777 423.799 718.394 426.738C721.011 429.676 722.596 433.399 722.903 437.332C724.117 453.2 712.848 475.437 711.691 494.554C708.264 521.398 707.41 548.511 709.14 575.521L624.715 556.301C621.322 481.731 624.569 458.068 629.593 437.378C629.839 433.467 631.353 429.746 633.903 426.786C636.454 423.825 639.9 421.788 643.712 420.988L662.222 416.954Z" fill="#46CDD3"/>
<g opacity="0.6">
<path opacity="0.6" d="M662.261 416.817L683.111 416.039L708.501 420.972C712.357 421.713 715.866 423.708 718.488 426.649C721.109 429.59 722.698 433.315 723.009 437.249C724.236 453.121 712.975 475.353 711.832 494.473C708.424 521.32 707.59 548.438 709.343 575.454L624.833 556.162C621.378 481.575 624.609 457.909 629.621 437.219C629.864 433.308 631.376 429.588 633.926 426.629C636.476 423.669 639.923 421.635 643.738 420.838L662.261 416.817Z" fill="black"/>
</g>
<path d="M650.215 416.404C635.63 431.338 630.905 478.126 631.28 557.167C631.28 557.167 596.241 558.463 588.462 561.258C581.189 559.047 573.739 557.479 566.196 556.571C579.041 546.635 600.712 545.527 616.759 547.344C617.649 498.007 613.466 469.483 623.816 433.511C626.733 423.383 639.972 418.349 650.215 416.404Z" fill="#46CDD3"/>
<path d="M700.356 419.685C692.243 413.054 682.065 409.414 671.569 409.389C661.073 409.365 650.913 412.957 642.834 419.549C661.789 418.868 681.452 418.031 700.356 419.685Z" fill="#46CDD3"/>
<path opacity="0.8" d="M700.356 419.685C692.243 413.054 682.065 409.414 671.569 409.389C661.073 409.365 650.913 412.957 642.834 419.549C661.789 418.868 681.452 418.031 700.356 419.685Z" fill="white"/>
<g opacity="0.8">
<path opacity="0.8" d="M650.077 416.737C635.48 431.589 630.816 478.185 631.316 556.915C631.316 556.915 596.193 558.15 588.399 560.921C581.105 558.708 573.634 557.134 566.071 556.217C578.932 546.34 600.655 545.271 616.744 547.108C617.559 497.966 613.321 469.548 623.64 433.734C626.548 423.651 639.812 418.658 650.077 416.737Z" fill="white"/>
</g>
<path d="M698.574 628.422C699.266 624.25 698.497 619.965 696.399 616.299C694.321 612.669 691.993 609.188 689.434 605.883C682.785 596.409 675.896 584.587 674.336 573.104C670.43 544.066 670.523 514.195 672.282 484.938C673.754 460.202 681.903 436.859 694.727 415.713L720.395 421.707C724.236 422.613 726.888 426.633 728.408 430.268C716.378 460.629 713.172 494.725 717.459 527.185C719.668 543.873 724.055 560.213 726.429 576.821C728.804 593.429 729.045 610.928 723.154 626.696C720.574 633.621 713.73 639.961 707.597 644.035C703.2 646.868 696.558 644.738 691.329 644.051C694.323 642.66 696.791 640.334 698.364 637.419C699.937 634.504 700.532 631.155 700.059 627.872C699.921 627.507 698.472 628.908 698.574 628.422Z" fill="#46CDD3"/>
<path opacity="0.8" d="M672.292 484.914C670.619 514.172 670.428 544.019 674.335 573.064C675.879 584.541 682.79 596.345 689.44 605.832C691.995 609.144 694.328 612.624 696.424 616.248C698.517 619.915 699.286 624.196 698.6 628.367C698.536 628.824 699.921 627.397 700.05 627.829C700.524 631.11 699.932 634.456 698.362 637.371C696.792 640.285 694.327 642.612 691.335 644.004C696.558 644.742 703.198 646.907 707.591 643.987C713.741 639.918 720.603 633.583 723.169 626.641C729.04 610.894 728.806 593.471 726.441 576.784C724.076 560.097 719.682 543.796 717.481 527.167C716.145 517.17 715.54 507.088 715.672 497.002C715.837 478.188 718.783 459.504 724.413 441.563C725.617 437.773 726.946 434.03 728.401 430.333C726.868 426.662 724.227 422.68 720.385 421.774L694.652 415.703C681.895 436.849 673.744 460.201 672.292 484.914Z" fill="white"/>
<path d="M692.888 417.168C692.973 420.883 691.655 424.49 689.193 427.279C686.746 430.047 683.957 432.497 680.892 434.572C677.095 437.337 668.407 442.64 668.407 442.64C668.407 442.64 661.617 435.793 660.404 430.542C656.141 436.035 651.254 440.868 651.254 440.868C651.254 440.868 646.885 436.725 645.234 434.612C642.328 430.985 641.077 428.945 640.956 424.306C640.744 416.774 647.518 410.518 654.859 408.644C662.731 406.624 669.55 406.656 677.529 406.565C684.209 406.493 692.333 409.402 692.888 417.168Z" fill="#46CDD3"/>
<path d="M566.159 477.702C565.579 476.23 565.58 474.597 566.162 473.14C566.743 471.682 567.862 470.511 569.287 469.866C572.015 468.736 575.492 469.501 578.553 471.052C581.789 472.774 584.63 475.165 586.886 478.065C589.142 480.965 590.761 484.308 591.635 487.869C592.588 492.193 592.152 496.838 589.702 499.663C588.316 501.126 586.437 502.021 584.421 502.179C582.406 502.337 580.393 501.748 578.763 500.522C579.096 493.484 573.97 484.487 567.707 480.289C567.096 479.487 566.577 478.619 566.159 477.702V477.702Z" fill="#46CDD3"/>
<path opacity="0.6" d="M566.159 477.702C565.579 476.23 565.58 474.597 566.162 473.14C566.743 471.682 567.862 470.511 569.287 469.866C572.015 468.736 575.492 469.501 578.553 471.052C581.789 472.774 584.63 475.165 586.886 478.065C589.142 480.965 590.761 484.308 591.635 487.869C592.588 492.193 592.152 496.838 589.702 499.663C588.316 501.126 586.437 502.021 584.421 502.179C582.406 502.337 580.393 501.748 578.763 500.522C579.096 493.484 573.97 484.487 567.707 480.289C567.096 479.487 566.577 478.619 566.159 477.702Z" fill="white"/>
<path d="M616.215 446.558C616.748 446.965 617.36 447.261 618.012 447.426C618.665 447.592 619.345 447.623 620.008 447.518C620.672 447.413 621.305 447.175 621.868 446.817C622.432 446.46 622.912 445.992 623.281 445.442L616.774 411.347L617.126 410.331L613.522 411.025C613.513 411.064 613.507 411.103 613.505 411.143C613.557 411.528 613.555 445.013 616.215 446.558Z" fill="#263238"/>
<path opacity="0.4" d="M597.386 390.236C599.312 401.085 605.664 411.507 612.707 410.932C612.704 410.892 612.71 410.852 612.723 410.814L613.561 410.725C607.658 410.029 601.818 401.111 600.03 389.523C598.241 377.934 601.187 367.532 606.707 365.172C606.89 365.09 607.078 365.018 607.27 364.958C606.53 365.099 605.801 365.296 605.091 365.547C604.728 365.687 604.381 365.863 604.054 366.074C602.144 367.302 600.611 369.038 599.625 371.09C596.871 377.069 596.087 383.775 597.386 390.236V390.236Z" fill="black"/>
<path opacity="0.4" d="M599.066 387.626C600.972 398.488 607.28 408.934 614.285 408.366C614.284 408.32 614.29 408.274 614.304 408.231L618.155 407.84C621.218 406.669 623.72 404.352 625.145 401.368C627.974 395.471 628.9 388.826 627.792 382.373C625.907 369.644 617.796 360.848 612.006 361.656C611.056 361.787 610.116 361.978 609.19 362.228V362.228C608.406 362.367 607.634 362.571 606.882 362.836C606.52 362.982 606.174 363.165 605.848 363.382C603.939 364.609 602.41 366.354 601.435 368.419C598.648 374.406 597.818 381.134 599.066 387.626V387.626Z" fill="white"/>
<path opacity="0.2" d="M700.448 493.12C701.862 501.65 711.898 499.172 715.403 497.364C715.463 497.331 715.52 497.292 715.573 497.249C715.754 478.382 718.706 459.643 724.333 441.646C722.646 436.724 719.576 432.409 715.5 429.227C698.755 424.436 695.615 463.67 700.448 493.12Z" fill="black"/>
<path d="M701.697 447.96C685.76 467.356 678.965 474.982 669.09 474.9C657.723 474.813 630.888 435.586 631.969 433.371C628.351 433.223 623.843 440.447 622.015 444.577C622.015 444.577 650.986 502.092 671.998 504.647C681.467 505.795 707.002 484.767 717.81 468.551C717.389 460.855 701.697 447.96 701.697 447.96Z" fill="#FFB573"/>
<path d="M604.976 437.021L611.36 442.071C611.36 442.071 624.251 450.325 626.756 446.687L632.593 439.756C635.836 434.689 628.606 430.042 624.774 427.286L619.65 423.32C618.512 422.443 617.105 422.022 615.684 422.132L608.57 422.678C607.354 422.768 606.2 423.284 605.299 424.142C604.397 425 603.803 426.149 603.613 427.398L603 431.791C602.841 432.771 602.941 433.774 603.289 434.695C603.637 435.616 604.22 436.419 604.976 437.021Z" fill="#FFB573"/>
<path d="M715.343 420.722C743.221 424.662 725.732 462.592 711.534 481.201C711.534 481.201 675.701 532.741 646.532 485.631C639.38 479.225 649.214 471.911 657.196 464.989C657.196 464.989 669.4 478.607 675.857 470.35C677.79 467.9 695.188 443.642 697.318 440.634C697.311 440.684 705.116 421.896 715.343 420.722Z" fill="#46CDD3"/>
<path opacity="0.8" d="M715.343 420.722C743.221 424.662 725.732 462.592 711.534 481.201C711.534 481.201 675.701 532.741 646.532 485.631C639.38 479.225 649.214 471.911 657.196 464.989C657.196 464.989 669.4 478.607 675.857 470.35C677.79 467.9 695.188 443.642 697.318 440.634C697.311 440.684 705.116 421.896 715.343 420.722Z" fill="white"/>
<path d="M669.755 470.126C667.98 475.742 665.008 480.907 661.042 485.268C659.042 487.432 656.593 489.136 653.864 490.262C651.135 491.389 648.191 491.911 645.236 491.792C644.738 489.206 643.36 486.866 641.333 485.17C640.082 484.144 639.523 483.406 638.238 482.374C645.122 476.442 651.423 469.87 657.055 462.747C659.384 464.304 661.368 466.32 662.885 468.67C664.369 466.521 668.256 468.007 669.755 470.126Z" fill="#46CDD3"/>
<path opacity="0.6" d="M669.755 470.126C667.98 475.742 665.008 480.907 661.042 485.268C659.042 487.432 656.593 489.136 653.864 490.262C651.135 491.389 648.191 491.911 645.236 491.792C644.738 489.206 643.36 486.866 641.333 485.17C640.082 484.144 639.523 483.406 638.238 482.374C645.122 476.442 651.423 469.87 657.055 462.747C659.384 464.304 661.368 466.32 662.885 468.67C664.369 466.521 668.256 468.007 669.755 470.126Z" fill="white"/>
<path opacity="0.4" d="M626.121 376.625C626.299 378.495 628.463 379.586 631.05 379.321C633.637 379.056 635.644 377.132 635.45 375.265" fill="#62A2A5"/>
<path d="M595.019 390.284C592.929 376.112 599.292 363.135 609.221 361.607C619.15 360.079 628.894 370.285 630.977 384.507C633.008 398.376 627.044 410.906 617.571 413.036L616.789 413.203C615.713 413.379 614.62 413.411 613.537 413.299C604.81 412.499 596.878 402.966 595.019 390.284ZM613.373 410.726C613.86 410.786 614.353 410.786 614.84 410.725L615.039 410.753L615.384 410.698L615.467 410.709C615.944 410.63 616.413 410.504 616.868 410.335C623.579 407.815 627.582 396.881 625.822 384.941C623.956 372.189 615.854 363.395 610.59 364.125C609.738 364.246 608.892 364.416 608.057 364.634V364.634C607.636 364.716 607.227 364.85 606.837 365.034C601.443 367.429 598.489 377.731 600.202 389.525C601.915 401.319 607.566 410.027 613.373 410.726V410.726Z" fill="#263238"/>
<path d="M684.214 376.336C681.452 387.691 678.25 408.576 685.886 416.631C679.397 422.52 670.975 429.272 657.424 429.065C643.873 428.859 646.669 419.618 650.466 414.853C663.317 412.433 663.419 402.931 661.618 393.904L684.214 376.336Z" fill="#FFB573"/>
<path opacity="0.2" d="M675.003 383.506L661.636 393.905C662.083 396.004 662.346 398.137 662.422 400.282C667.319 399.824 674.236 394.802 674.973 389.713C675.367 387.664 675.377 385.559 675.003 383.506V383.506Z" fill="black"/>
<path d="M661.516 339.625C650.404 343.048 649.027 351.92 649.27 361.749C649.512 371.579 660.546 365.933 663.356 360.01C666.165 354.087 676.904 334.881 661.516 339.625Z" fill="#263238"/>
<path d="M694.464 361.723C690.306 376.857 688.617 385.9 679.358 392.303C665.402 401.877 648.279 391.373 647.901 375.412C647.563 361.033 654.419 338.655 670.468 335.416C673.972 334.663 677.61 334.843 681.023 335.94C684.436 337.036 687.506 339.01 689.929 341.667C692.353 344.324 694.046 347.571 694.841 351.089C695.636 354.606 695.507 358.272 694.464 361.723V361.723Z" fill="#FFB573"/>
<path d="M692.871 374.393C679.979 374.095 683.25 366.966 685.899 362.929C688.548 358.892 684.328 351.56 687.702 348.182C681.999 349.979 676.304 347.697 669.287 341.943C663.847 337.462 655.426 353.049 649.032 344.415C642.989 336.269 650.009 325.223 666.055 324.592C682.101 323.96 684.134 335.507 694.65 335.302C705.166 335.098 700.884 343.481 698.701 345.087C707.416 346.342 711.56 355.14 692.871 374.393Z" fill="#263238"/>
<path d="M696.605 346.009C698.698 345.053 700.5 343.552 701.823 341.661C703.146 339.769 703.944 337.556 704.133 335.25C707.138 341.637 706.244 348.558 696.605 346.009Z" fill="#263238"/>
<path d="M660.886 375.645C662.263 375.996 663.697 376.062 665.1 375.841C666.504 375.619 667.848 375.114 669.053 374.356C669.09 374.326 669.12 374.288 669.142 374.246C669.165 374.203 669.178 374.157 669.181 374.109C669.185 374.061 669.179 374.013 669.164 373.968C669.148 373.922 669.124 373.88 669.092 373.845C669.028 373.774 668.94 373.73 668.846 373.723C668.751 373.716 668.657 373.745 668.584 373.806C667.237 374.62 665.722 375.107 664.156 375.23C662.59 375.353 661.018 375.108 659.562 374.515C659.469 374.484 659.367 374.488 659.277 374.527C659.186 374.565 659.113 374.636 659.07 374.726C659.036 374.817 659.039 374.918 659.078 375.008C659.118 375.097 659.191 375.167 659.281 375.203C659.802 375.398 660.339 375.547 660.886 375.645Z" fill="#263238"/>
<path d="M696.246 379.389C693.611 382.317 689.941 384.087 686.024 384.317C680.875 384.596 679.538 379.685 682.013 375.386C684.262 371.514 689.717 366.717 694.306 368.47C698.895 370.224 699.482 375.734 696.246 379.389Z" fill="#FFB573"/>
<path d="M671.378 360.874C671.125 362.114 670.247 363.005 669.466 362.856C668.684 362.707 668.224 361.572 668.495 360.315C668.766 359.059 669.625 358.184 670.407 358.333C671.189 358.482 671.648 359.635 671.378 360.874Z" fill="#263238"/>
<path d="M657.169 358.648C656.915 359.906 656.039 360.779 655.257 360.63C654.476 360.482 654.015 359.346 654.285 358.107C654.555 356.868 655.416 355.976 656.197 356.125C656.979 356.274 657.444 357.339 657.169 358.648Z" fill="#263238"/>
<path d="M661.086 360.439C658.729 363.541 655.971 366.312 652.886 368.68C654.594 370.78 658.471 370.546 658.471 370.546L661.086 360.439Z" fill="#ED893E"/>
<path opacity="0.4" d="M648.107 358.271C647.692 360.262 649.579 362.092 652.338 362.659C655.096 363.225 657.787 361.889 658.185 359.896" fill="#62A2A5"/>
<path opacity="0.4" d="M664.518 361.412C663.982 363.376 665.79 365.324 668.483 366.063C671.176 366.802 673.962 365.596 674.48 363.649" fill="#62A2A5"/>
<path d="M669.527 366.693C669.211 366.687 668.895 366.662 668.582 366.621C667.247 366.355 666.026 365.686 665.08 364.702C664.666 364.287 664.357 363.778 664.178 363.218C664 362.658 663.958 362.063 664.055 361.483C663.195 361.025 662.266 360.714 661.305 360.562C660.352 360.243 659.335 360.165 658.345 360.335C657.937 362.468 655.162 363.745 652.212 363.146C650.877 362.895 649.652 362.23 648.709 361.245C648.298 360.829 647.99 360.32 647.812 359.76C647.634 359.201 647.59 358.606 647.684 358.026L648.517 358.197C648.448 358.645 648.485 359.104 648.627 359.534C648.77 359.965 649.012 360.355 649.334 360.672C650.157 361.522 651.222 362.094 652.382 362.308C654.879 362.837 657.21 361.827 657.571 360.081C657.769 359.102 659.796 359.329 661.461 359.669C663.127 360.01 665.088 360.64 664.839 361.596C664.768 362.045 664.805 362.504 664.947 362.935C665.09 363.365 665.333 363.756 665.656 364.072C666.491 364.912 667.552 365.488 668.708 365.728C669.863 365.968 671.064 365.862 672.161 365.423C672.583 365.263 672.961 365.003 673.263 364.665C673.564 364.327 673.781 363.92 673.893 363.48L673.926 363.057L695.329 367.521L695.16 368.359L674.554 364.063C674.366 364.542 674.082 364.978 673.722 365.344C673.361 365.71 672.93 365.998 672.455 366.191C671.534 366.594 670.529 366.767 669.527 366.693Z" fill="#263238"/>
<path d="M677.298 355.758C677.422 355.768 677.547 355.74 677.656 355.679C677.834 355.592 677.971 355.439 678.038 355.251C678.105 355.064 678.096 354.858 678.014 354.677C677.549 353.61 676.829 352.674 675.918 351.954C675.007 351.234 673.934 350.752 672.794 350.551C672.598 350.526 672.399 350.58 672.242 350.7C672.085 350.821 671.981 350.999 671.952 351.196C671.928 351.389 671.98 351.584 672.096 351.738C672.213 351.893 672.385 351.996 672.576 352.024V352.024C673.477 352.202 674.322 352.598 675.036 353.178C675.751 353.759 676.314 354.506 676.676 355.355C676.734 355.472 676.822 355.572 676.932 355.643C677.041 355.714 677.168 355.753 677.298 355.758V355.758Z" fill="#263238"/>
<path d="M653.029 351.89C653.15 351.911 653.273 351.902 653.39 351.865C653.506 351.828 653.612 351.762 653.698 351.675C654.321 350.971 655.099 350.425 655.969 350.079C656.84 349.733 657.779 349.597 658.711 349.682C658.807 349.699 658.906 349.697 659.001 349.676C659.096 349.654 659.186 349.614 659.265 349.558C659.345 349.501 659.413 349.429 659.465 349.346C659.516 349.263 659.552 349.171 659.568 349.074C659.587 348.98 659.588 348.882 659.57 348.788C659.551 348.694 659.515 348.604 659.462 348.524C659.409 348.444 659.341 348.375 659.261 348.322C659.182 348.269 659.092 348.232 658.998 348.214C657.824 348.093 656.638 348.25 655.535 348.674C654.432 349.098 653.443 349.776 652.647 350.654C652.511 350.794 652.435 350.983 652.437 351.179C652.439 351.376 652.517 351.563 652.656 351.701C652.764 351.793 652.892 351.857 653.029 351.89Z" fill="#263238"/>
<g filter="url(#filter0_f)">
<ellipse cx="650.904" cy="802.804" rx="80.2638" ry="10.2633" transform="rotate(8.34537 650.904 802.804)" fill="#036792" fill-opacity="0.3"/>
</g>
<path d="M616.501 588.563C616.501 676.491 548.934 747.772 465.586 747.772C382.238 747.772 314.67 676.491 314.67 588.563C314.67 500.634 382.238 429.354 465.586 429.354C548.934 429.354 616.501 500.634 616.501 588.563Z" fill="#7FBED7"/>
<path d="M643.823 615.571C643.823 615.572 643.823 615.572 643.823 615.571C643.229 622.745 637.634 628.419 626.762 632.837C623.829 634.029 620.517 632.65 619.115 629.681C619.091 629.63 619.067 629.579 619.043 629.527C617.423 626.108 618.989 621.983 622.375 620.622C629.227 617.869 631.418 615.431 631.5 614.433C631.68 612.264 623.174 601.577 578.277 588.919C540.506 578.272 489.753 569.643 435.368 564.624C403.353 561.669 372.37 560.177 344.354 560.177C324.78 560.177 306.653 560.905 290.632 562.372C244.333 566.614 234.197 575.58 234.018 577.75C233.963 578.415 234.725 579.884 237.108 581.965C241.555 585.851 238.957 593.482 233.18 593.482C231.752 593.482 230.355 592.972 229.263 592.004C223.735 587.109 221.245 582.02 221.694 576.612C222.367 568.495 229.441 562.298 243.318 557.667C254.445 553.955 270.004 551.164 289.562 549.373C329.206 545.742 381.37 546.542 436.447 551.624C491.525 556.708 543.028 565.476 581.471 576.314C600.436 581.661 615.3 587.259 625.647 592.954C638.55 600.055 644.496 607.454 643.823 615.571V615.571Z" fill="#036792"/>
<path d="M559.315 606.632L504.323 758.92C499.692 771.746 484.966 776.712 474.142 769.098C469.241 765.651 466.004 760.126 465.273 753.96L460.022 709.635C460.022 709.635 459.37 687.227 450.887 670.004C443.186 654.37 422.031 654.209 414.632 670.004C407.75 684.691 405.647 708.364 405.647 708.364L400.244 753.96C399.514 760.126 396.277 765.651 391.376 769.098C380.55 776.711 365.826 771.745 361.194 758.92L306.202 606.631C297.796 583.354 296.359 557.916 302.087 533.75L312.982 487.773C318.07 466.305 338.52 453.092 358.96 458.068L379.397 463.044C387.305 464.969 395.563 464.102 403.036 460.762C422.369 452.121 443.15 452.121 462.483 460.762C469.956 464.102 478.214 464.969 486.122 463.044L506.559 458.068C526.998 453.093 547.449 466.305 552.537 487.773L563.432 533.75C569.157 557.917 567.72 583.354 559.315 606.632Z" fill="#ECF4F4"/>
<path d="M394.438 758.92C395.045 760.602 395.826 762.149 396.749 763.549C395.318 765.712 393.503 767.602 391.375 769.098C380.549 776.711 365.825 771.745 361.193 758.92L306.201 606.632C297.795 583.354 296.358 557.916 302.086 533.75L312.981 487.774C318.069 466.306 338.519 453.092 358.959 458.069L368.314 460.346C357.681 465.194 349.247 475.029 346.226 487.774L335.331 533.75C329.604 557.916 331.041 583.354 339.446 606.632L394.438 758.92ZM490.922 753.961L485.67 709.636C485.67 709.636 485.019 687.228 476.535 670.005C471.46 659.7 447.156 655.274 432.956 658.222C440.029 658.354 447.091 662.3 450.886 670.005C459.37 687.228 460.021 709.636 460.021 709.636L465.272 753.961C466.003 760.127 469.24 765.652 474.141 769.099C481.876 774.539 491.602 773.556 498.214 767.872L498.215 767.871C494.2 764.413 491.571 759.439 490.922 753.961V753.961Z" fill="#94D4D7"/>
<path d="M495.92 608.756C484.187 597.648 495.668 579.769 491.319 545.963C488.404 523.301 481.44 517.011 486.43 507.657C492.405 496.456 510.377 491.101 522.339 496.834C545.221 507.798 539.023 555.149 538.37 559.746C535.057 583.075 522.005 613.45 506.501 613.491C501.049 613.506 496.987 609.767 495.92 608.756V608.756Z" fill="#E8FEFF"/>
<path d="M411.316 558.682C411.316 562.286 408.547 565.207 405.131 565.207H401.008V569.557C401.008 573.161 398.239 576.082 394.823 576.082C391.407 576.082 388.638 573.161 388.638 569.557V565.207H384.514C381.099 565.207 378.329 562.286 378.329 558.682C378.329 555.079 381.099 552.157 384.514 552.157H388.638V547.807C388.638 544.204 391.407 541.282 394.823 541.282C398.239 541.282 401.008 544.204 401.008 547.807V552.157H405.131C408.547 552.157 411.316 555.079 411.316 558.682Z" fill="#036792"/>
<path d="M394.823 608.873V638.988C394.823 644.532 390.563 649.026 385.308 649.026H356.762V679.141C356.762 684.685 352.502 689.179 347.247 689.179H318.701C313.446 689.179 309.186 684.685 309.186 679.141V649.026H280.637C275.382 649.026 271.122 644.532 271.122 638.988V608.873C271.122 603.329 275.382 598.835 280.637 598.835H309.183V568.72C309.183 563.175 313.443 558.682 318.698 558.682H347.244C352.499 558.682 356.759 563.176 356.759 568.72V598.835H385.305C390.563 598.835 394.823 603.33 394.823 608.873V608.873ZM643.822 615.572C643.149 623.689 636.076 629.886 622.199 634.516C611.072 638.228 595.513 641.019 575.955 642.81C559.601 644.308 541.111 645.052 521.169 645.052C492.771 645.052 461.426 643.545 429.07 640.558C422.183 639.922 415.352 639.229 408.595 638.481C405.451 638.133 403.071 635.327 403.071 631.992C403.071 628.122 406.242 625.101 409.891 625.504C416.574 626.244 423.333 626.929 430.149 627.558C484.533 632.578 535.934 633.377 574.885 629.81C621.185 625.569 631.321 616.602 631.5 614.433C631.798 610.843 634.79 608.193 638.2 608.502C641.603 608.817 644.121 611.981 643.822 615.572V615.572ZM258.885 593.813C238.472 585.578 233.883 579.348 234.016 577.749C234.314 574.16 231.797 570.996 228.393 570.681C224.997 570.37 221.991 573.022 221.693 576.611C221.02 584.728 226.966 592.127 239.87 599.23C244.029 601.518 248.917 603.792 254.508 606.039C258.547 607.662 262.878 604.493 262.878 599.933V599.912C262.878 597.203 261.285 594.781 258.885 593.813V593.813Z" fill="#46CDD3"/>
<path d="M394.823 608.873V638.988C394.823 644.532 390.563 649.026 385.308 649.026H356.762V679.141C356.762 684.685 352.502 689.179 347.247 689.179H332.973V558.682H347.246C352.501 558.682 356.761 563.176 356.761 568.72V598.835H385.307C390.563 598.835 394.823 603.33 394.823 608.873V608.873ZM394.823 506.482C394.823 510.085 392.054 513.007 388.638 513.007H384.515V517.357C384.515 520.96 381.745 523.882 378.33 523.882C374.914 523.882 372.145 520.96 372.145 517.357V513.007H368.021C364.605 513.007 361.836 510.085 361.836 506.482C361.836 502.878 364.605 499.957 368.021 499.957H372.145V495.607C372.145 492.003 374.914 489.082 378.33 489.082C381.745 489.082 384.515 492.003 384.515 495.607V499.957H388.638C392.054 499.957 394.823 502.878 394.823 506.482Z" fill="#89EAEE"/>
<path d="M662.707 986.925C663.201 986.816 663.654 986.52 663.95 986.06C664.542 985.141 664.28 983.919 663.364 983.331L632.931 963.778C632.016 963.19 630.794 963.458 630.202 964.377C629.61 965.297 629.872 966.519 630.788 967.107L661.221 986.659C661.678 986.953 662.213 987.033 662.707 986.925V986.925Z" fill="#8D9CA8"/>
<path d="M618.976 968.66C619.351 968.902 619.794 969.013 620.242 968.977L627.798 968.366C628.145 968.355 628.486 968.31 628.817 968.238C630.275 967.919 631.564 967.036 632.389 965.755C632.997 964.805 633.301 963.716 633.291 962.62C633.286 961.898 633.143 961.172 632.858 960.486L630.299 953.363C630.149 952.94 629.861 952.579 629.486 952.338L629.464 952.324L622.801 959.521L620.503 965.009L618.976 968.66Z" fill="#9FACBA"/>
<path d="M618.975 968.66C619.351 968.902 619.794 969.013 620.241 968.977L627.797 968.367C628.145 968.355 628.485 968.311 628.817 968.238C630.274 967.919 631.564 967.036 632.389 965.755C632.997 964.805 633.301 963.716 633.291 962.62C632.647 962.896 631.953 963.058 631.234 963.081L623.316 963.546C622.997 963.565 622.678 963.486 622.407 963.316L620.503 965.008L618.975 968.66Z" fill="#8D9CA8"/>
<path d="M558.734 913.39L558.155 917.636L554.278 920.33L530.817 905.213L531.405 900.899L535.273 898.273L558.734 913.39Z" fill="#8D9CA8"/>
<path d="M535.273 898.274L539.339 900.893L538.454 902.272C537.929 903.089 538.163 904.177 538.977 904.701L556.898 916.249L558.155 917.636L554.278 920.33L530.817 905.213L531.406 900.9L535.273 898.274Z" fill="#7A8C98"/>
<path d="M618.975 968.659L629.465 952.324L580.813 920.975L574.109 928.214L570.323 937.31L618.975 968.659Z" fill="#D6FAFC"/>
<path d="M580.812 920.975L586.129 924.4L580.775 932.738C579.831 934.207 580.253 936.164 581.717 937.107L622.402 963.323L618.975 968.659L570.323 937.31L574.109 928.214L580.812 920.975Z" fill="#A5EAED"/>
<path d="M567.701 935.621C561.526 931.642 553.292 933.442 549.311 939.642L550.687 929.326C551.065 926.495 552.06 923.782 553.603 921.379L559.407 912.341C560.95 909.938 563.002 907.905 565.417 906.387L574.218 900.856C570.237 907.055 572.016 915.307 578.191 919.286C578.987 919.799 580.812 920.975 580.812 920.975L570.322 937.31C570.322 937.31 568.497 936.134 567.701 935.621V935.621Z" fill="#C5F7FA"/>
<path d="M573.545 932.298L570.318 937.299C570.318 937.299 568.494 936.13 567.699 935.62C565.986 934.521 564.114 933.869 562.217 933.63C565.572 931.541 569.741 931.01 573.545 932.298V932.298Z" fill="#46CDD3"/>
<path d="M568.179 910.429L562.349 919.467C560.799 921.87 559.796 924.582 559.412 927.41L558.567 933.639C554.883 934.186 551.436 936.259 549.255 939.641L550.654 929.337C551.037 926.509 552.04 923.797 553.59 921.394L559.42 912.356C560.97 909.953 563.029 907.919 565.451 906.398L574.274 900.855C573.268 902.414 572.628 904.102 572.33 905.818C570.714 907.122 569.31 908.676 568.179 910.429V910.429Z" fill="#46CDD3"/>
<path d="M512.693 908.543C511.435 906.318 512.3 903.483 514.513 902.201C517.258 900.61 519.926 897.932 522.035 894.649C524.165 891.332 525.497 887.749 525.786 884.563C526.016 882.023 528.256 880.146 530.789 880.372C533.322 880.598 535.189 882.84 534.959 885.38C534.748 887.703 534.181 890.129 533.302 892.544C533 893.375 533.298 894.304 534.039 894.782L534.739 895.233C535.71 895.859 535.99 897.156 535.364 898.131L530.725 905.356C530.099 906.33 528.804 906.613 527.833 905.988L527.133 905.536C526.392 905.059 525.424 905.172 524.794 905.793C522.965 907.595 520.996 909.119 518.974 910.273C516.76 911.537 513.946 910.762 512.693 908.543V908.543Z" fill="#46CDD3"/>
<path d="M514.497 902.207C517.246 900.614 519.921 897.934 522.035 894.651C524.172 891.334 525.51 887.753 525.803 884.568C526.036 882.03 528.281 880.152 530.816 880.375C531.67 880.45 532.445 880.757 533.093 881.224C532.772 881.784 532.56 882.416 532.497 883.099C532.204 886.283 530.866 889.864 528.73 893.182C526.615 896.465 523.941 899.145 521.191 900.738C518.975 902.022 518.106 904.855 519.361 907.077C519.799 907.852 520.43 908.445 521.158 908.842C520.432 909.362 519.696 909.842 518.952 910.267C516.734 911.533 513.919 910.763 512.667 908.547C511.411 906.325 512.281 903.491 514.497 902.207V902.207Z" fill="#89EAEE"/>
<path d="M613.044 954.954C613.537 954.846 613.99 954.549 614.285 954.09C614.875 953.171 614.612 951.947 613.696 951.358L603.005 944.469C602.089 943.879 600.868 944.146 600.278 945.065C599.688 945.984 599.952 947.207 600.867 947.797L611.559 954.686C612.016 954.981 612.55 955.062 613.044 954.954Z" fill="#A5EAED"/>
<path d="M588.608 923.001C592.436 922.161 595.951 919.863 598.239 916.31C602.816 909.203 600.78 899.72 593.701 895.171C586.621 890.623 577.138 892.704 572.56 899.811C570.343 903.254 569.594 907.349 570.451 911.342C571.308 915.334 573.669 918.747 577.099 920.95C580.639 923.224 584.78 923.841 588.608 923.001V923.001ZM583.02 896.978C585.86 896.355 588.931 896.813 591.557 898.499C596.809 901.873 598.319 908.908 594.924 914.179C591.529 919.451 584.494 920.995 579.243 917.621C576.699 915.987 574.947 913.456 574.311 910.494C573.676 907.532 574.231 904.495 575.876 901.941C577.573 899.306 580.181 897.602 583.02 896.978V896.978Z" fill="#46CDD3"/>
<path d="M563.718 961.79C567.545 960.95 571.061 958.652 573.349 955.099C577.926 947.992 575.89 938.509 568.81 933.96C561.731 929.412 552.247 931.493 547.67 938.6C545.453 942.043 544.704 946.138 545.561 950.131C546.418 954.123 548.779 957.536 552.209 959.739C555.749 962.013 559.89 962.63 563.718 961.79V961.79ZM558.13 935.768C560.97 935.144 564.041 935.602 566.667 937.289C571.918 940.662 573.429 947.697 570.034 952.968C566.639 958.24 559.604 959.784 554.353 956.41C551.809 954.776 550.057 952.245 549.421 949.283C548.785 946.322 549.341 943.284 550.986 940.73C552.683 938.095 555.291 936.391 558.13 935.768V935.768Z" fill="#46CDD3"/>
<path d="M596.682 531.51C597.191 529.135 597.555 526.731 597.773 524.311C598.766 516.17 603.617 509.873 609.617 508.618L613.961 507.735C613.961 507.735 607.123 507.735 604.221 505.773C598.162 501.517 596.779 488.923 596.779 488.923C596.779 488.923 595.084 501.517 588.987 505.773C586.143 507.735 579.247 507.735 579.247 507.735L583.61 508.618C589.649 509.873 594.442 516.17 595.454 524.311C595.694 526.737 596.104 529.143 596.682 531.51Z" fill="#FFF5C6"/>
<g opacity="0.7">
<path opacity="0.7" d="M596.682 531.51C597.191 529.135 597.555 526.731 597.773 524.311C598.766 516.17 603.617 509.873 609.617 508.618L613.961 507.735C613.961 507.735 607.123 507.735 604.221 505.773C598.162 501.517 596.779 488.923 596.779 488.923C596.779 488.923 595.084 501.517 588.987 505.773C586.143 507.735 579.247 507.735 579.247 507.735L583.61 508.618C589.649 509.873 594.442 516.17 595.454 524.311C595.694 526.737 596.104 529.143 596.682 531.51Z" fill="white"/>
</g>
<path d="M587.993 498.044C588.283 496.752 588.478 495.441 588.578 494.121C589.123 489.766 591.695 486.274 594.928 485.705L597.266 485.234C595.474 485.266 593.698 484.898 592.065 484.155C588.831 481.86 588.071 475.112 588.071 475.112C588.071 475.112 587.175 481.86 583.922 484.155C582.289 484.899 580.512 485.268 578.72 485.234L581.058 485.705C584.311 486.372 586.902 489.766 587.409 494.121C587.52 495.44 587.715 496.75 587.993 498.044Z" fill="#FFF5C6"/>
<g opacity="0.7">
<path opacity="0.7" d="M587.993 498.044C588.283 496.752 588.478 495.441 588.578 494.121C589.123 489.766 591.695 486.274 594.928 485.705L597.266 485.234C595.474 485.266 593.698 484.898 592.065 484.155C588.831 481.86 588.071 475.112 588.071 475.112C588.071 475.112 587.175 481.86 583.922 484.155C582.289 484.899 580.512 485.268 578.72 485.234L581.058 485.705C584.311 486.372 586.902 489.766 587.409 494.121C587.52 495.44 587.715 496.75 587.993 498.044Z" fill="white"/>
</g>
<path d="M373.044 466.58C373.333 465.288 373.528 463.977 373.628 462.657C374.173 458.302 376.745 454.928 379.979 454.261L382.316 453.77C380.525 453.803 378.748 453.434 377.115 452.692C373.862 450.396 373.122 443.648 373.122 443.648C373.122 443.648 372.225 450.396 368.972 452.692C367.339 453.434 365.562 453.803 363.771 453.77L366.108 454.261C369.342 454.928 371.953 458.302 372.459 462.657C372.559 463.977 372.754 465.288 373.044 466.58V466.58Z" fill="#FFF5C6"/>
<g opacity="0.7">
<path opacity="0.7" d="M373.044 466.58C373.333 465.288 373.528 463.977 373.628 462.657C374.173 458.302 376.745 454.928 379.979 454.261L382.316 453.77C380.525 453.803 378.748 453.434 377.115 452.692C373.862 450.396 373.122 443.648 373.122 443.648C373.122 443.648 372.225 450.396 368.972 452.692C367.339 453.434 365.562 453.803 363.771 453.77L366.108 454.261C369.342 454.928 371.953 458.302 372.459 462.657C372.559 463.977 372.754 465.288 373.044 466.58V466.58Z" fill="white"/>
</g>
<path d="M508.22 450.494C508.51 449.202 508.705 447.891 508.805 446.571C509.35 442.216 511.922 438.842 515.155 438.175L517.513 437.685C515.715 437.717 513.932 437.349 512.292 436.606C509.058 434.311 508.396 427.562 508.396 427.562C508.396 427.562 507.48 434.311 504.227 436.606C502.594 437.349 500.817 437.718 499.025 437.685L501.363 438.175C504.616 438.842 507.207 442.216 507.714 446.571C507.799 447.888 507.968 449.199 508.22 450.494V450.494Z" fill="#FFF5C6"/>
<g opacity="0.7">
<path opacity="0.7" d="M508.22 450.494C508.51 449.202 508.705 447.891 508.805 446.571C509.35 442.216 511.922 438.842 515.155 438.175L517.513 437.685C515.715 437.717 513.932 437.349 512.292 436.606C509.058 434.311 508.396 427.562 508.396 427.562C508.396 427.562 507.48 434.311 504.227 436.606C502.594 437.349 500.817 437.718 499.025 437.685L501.363 438.175C504.616 438.842 507.207 442.216 507.714 446.571C507.799 447.888 507.968 449.199 508.22 450.494V450.494Z" fill="white"/>
</g>
<path d="M442.336 398.785C442.603 397.489 442.798 396.179 442.921 394.862C443.447 390.507 446.018 387.133 449.272 386.466L451.609 385.976C449.817 386.009 448.041 385.64 446.408 384.897C443.155 382.602 442.414 375.854 442.414 375.854C442.414 375.854 441.499 382.602 438.265 384.897C436.625 385.64 434.842 386.008 433.044 385.976L435.401 386.466C438.635 387.133 441.246 390.507 441.733 394.862C441.844 396.182 442.046 397.493 442.336 398.785V398.785Z" fill="#FFF5C6"/>
<g opacity="0.7">
<path opacity="0.7" d="M442.336 398.785C442.603 397.489 442.798 396.179 442.921 394.862C443.447 390.507 446.018 387.133 449.272 386.466L451.609 385.976C449.817 386.009 448.041 385.64 446.408 384.897C443.155 382.602 442.414 375.854 442.414 375.854C442.414 375.854 441.499 382.602 438.265 384.897C436.625 385.64 434.842 386.008 433.044 385.976L435.401 386.466C438.635 387.133 441.246 390.507 441.733 394.862C441.844 396.182 442.046 397.493 442.336 398.785V398.785Z" fill="white"/>
</g>
<path d="M423.343 394.607C423.852 392.232 424.216 389.828 424.434 387.408C425.427 379.267 430.278 372.97 436.258 371.715L440.622 370.812C440.622 370.812 433.784 370.812 430.882 368.851C424.843 364.594 423.46 352 423.46 352C423.46 352 421.765 364.594 415.667 368.851C412.823 370.812 405.927 370.812 405.927 370.812L410.291 371.715C416.33 372.95 421.122 379.247 422.135 387.408C422.368 389.833 422.772 392.239 423.343 394.607V394.607Z" fill="#FFF5C6"/>
<g opacity="0.7">
<path opacity="0.7" d="M423.343 394.607C423.852 392.232 424.216 389.828 424.434 387.408C425.427 379.267 430.278 372.97 436.258 371.715L440.622 370.812C440.622 370.812 433.784 370.812 430.882 368.851C424.843 364.594 423.46 352 423.46 352C423.46 352 421.765 364.594 415.667 368.851C412.823 370.812 405.927 370.812 405.927 370.812L410.291 371.715C416.33 372.95 421.122 379.247 422.135 387.408C422.368 389.833 422.772 392.239 423.343 394.607V394.607Z" fill="white"/>
</g>
<path d="M331.063 497.888C331.35 496.596 331.545 495.285 331.647 493.964C332.192 489.59 334.764 486.216 337.998 485.549L340.335 485.059C338.544 485.091 336.767 484.722 335.134 483.98C331.9 481.704 331.141 474.937 331.141 474.937C331.141 474.937 330.244 481.704 326.991 483.98C325.358 484.723 323.582 485.092 321.79 485.059L324.127 485.549C327.361 486.216 329.972 489.59 330.478 493.964C330.592 495.283 330.787 496.594 331.063 497.888V497.888Z" fill="#FFF5C6"/>
<g opacity="0.7">
<path opacity="0.7" d="M331.063 497.888C331.35 496.596 331.545 495.285 331.647 493.964C332.192 489.59 334.764 486.216 337.998 485.549L340.335 485.059C338.544 485.091 336.767 484.722 335.134 483.98C331.9 481.704 331.141 474.937 331.141 474.937C331.141 474.937 330.244 481.704 326.991 483.98C325.358 484.723 323.582 485.092 321.79 485.059L324.127 485.549C327.361 486.216 329.972 489.59 330.478 493.964C330.592 495.283 330.787 496.594 331.063 497.888V497.888Z" fill="white"/>
</g>
<path d="M310.374 519.368C310.908 516.997 311.272 514.591 311.465 512.169C312.478 504.028 317.309 497.731 323.309 496.475L327.673 495.573C327.673 495.573 320.816 495.573 317.933 493.611C311.874 489.335 310.491 476.741 310.491 476.741C310.491 476.741 308.796 489.335 302.699 493.611C299.835 495.573 292.958 495.573 292.958 495.573L297.322 496.475C303.361 497.711 308.153 504.008 309.147 512.169C309.408 514.592 309.817 516.996 310.374 519.368Z" fill="#FFF5C6"/>
<g opacity="0.7">
<path opacity="0.7" d="M310.374 519.368C310.908 516.997 311.272 514.591 311.465 512.169C312.478 504.028 317.309 497.731 323.309 496.475L327.673 495.573C327.673 495.573 320.816 495.573 317.933 493.611C311.874 489.335 310.491 476.741 310.491 476.741C310.491 476.741 308.796 489.335 302.699 493.611C299.835 495.573 292.958 495.573 292.958 495.573L297.322 496.475C303.361 497.711 308.153 504.008 309.147 512.169C309.408 514.592 309.817 516.996 310.374 519.368Z" fill="white"/>
</g>
<defs>
<filter id="filter0_f" x="550" y="761" width="201.807" height="83.6084" filterUnits="userSpaceOnUse" color-interpolation-filters="sRGB">
<feFlood flood-opacity="0" result="BackgroundImageFix"/>
<feBlend mode="normal" in="SourceGraphic" in2="BackgroundImageFix" result="shape"/>
<feGaussianBlur stdDeviation="10" result="effect1_foregroundBlur"/>
</filter>
</defs>
</svg>
