<svg width="867" height="1140" viewBox="0 0 867 1140" fill="none" xmlns="http://www.w3.org/2000/svg">
<path d="M2.79885 1107.34C-48.9566 1166.38 634.217 1127.35 634.217 1127.35L861 1057.3V31.5914C749.961 -8.26949 419.976 -36.9388 332.623 117.151C233.346 292.272 256.553 417.143 149.126 557.455C35.7344 705.558 159.053 929.086 2.79885 1107.34Z" fill="#89EAEE"/>
<path d="M488.873 151.724L473.888 142.642C472.592 141.859 471.514 140.744 470.836 139.389C467.633 133.005 461.788 132.956 458.11 133.693C457.138 133.89 456.503 132.712 457.199 132.005C458.685 130.494 460.113 129.349 461.471 128.512C470.12 123.168 476.096 130.151 478.176 133.232C478.814 134.177 479.661 134.967 480.635 135.558L493.826 143.552L492.591 148.225L492.497 148.313L488.873 151.724Z" fill="#9FACBA"/>
<path d="M488.873 151.724L473.888 142.642C472.592 141.859 471.514 140.744 470.836 139.389C467.633 133.005 461.788 132.956 458.11 133.693C457.137 133.89 456.503 132.712 457.198 132.005C458.685 130.494 460.112 129.349 461.47 128.512C465.248 127.809 471.087 128.02 474.166 134.713C474.606 135.664 475.295 136.474 476.19 137.016L491.983 146.588L492.496 148.313L488.873 151.724Z" fill="#8D9CA8"/>
<path d="M495.112 166.755C494.425 166.339 493.796 165.828 493.247 165.239L491.934 163.833L489.017 160.712C486.968 158.679 486.578 155.507 488.075 153.037L494.26 142.832C495.756 140.363 498.75 139.241 501.5 140.117L507.411 141.754C508.21 141.968 508.971 142.295 509.677 142.723L507.303 147.868L504.069 154.872L499.066 161.509L495.112 166.755Z" fill="#89EAEE"/>
<path d="M495.111 166.755C494.424 166.339 493.795 165.828 493.247 165.239L491.933 163.834L489.017 160.712C486.968 158.68 486.577 155.507 488.074 153.037L490.819 148.508C490.554 150.614 491.357 152.939 492.856 154.426L498.933 160.454L499.066 161.51L495.111 166.755Z" fill="#46CDD3"/>
<path d="M640.982 232.942C637.304 233.679 631.46 233.629 628.258 227.245C627.579 225.892 626.501 224.778 625.206 223.993L610.222 214.912L606.502 218.41L605.268 223.085L618.458 231.078C619.433 231.67 620.278 232.458 620.917 233.403C623.327 236.969 630.948 245.757 641.894 234.63C642.59 233.923 641.955 232.747 640.982 232.942Z" fill="#9FACBA"/>
<path d="M605.267 223.085L618.458 231.077C619.453 231.68 620.3 232.496 620.955 233.458C623.407 237.058 631.004 245.697 641.893 234.629C642.589 233.923 641.955 232.747 640.982 232.941C640.899 232.958 640.815 232.972 640.733 232.989C632.122 238.303 626.162 231.405 624.055 228.305C623.404 227.348 622.559 226.542 621.57 225.942L608.381 217.948L606.502 218.409L605.267 223.085Z" fill="#8D9CA8"/>
<path d="M597.592 226.517L591.681 224.88C590.882 224.666 590.121 224.339 589.415 223.911L591.79 218.766L595.023 211.762L603.981 199.879C604.668 200.296 605.297 200.807 605.845 201.395L607.159 202.801L610.075 205.922C612.124 207.955 612.515 211.128 611.018 213.597L604.833 223.802C603.336 226.272 600.343 227.393 597.592 226.517Z" fill="#68DADF"/>
<path d="M597.592 226.517L591.681 224.88C590.882 224.666 590.121 224.339 589.415 223.911L591.79 218.766L594.138 216.12L595.119 216.431C597.869 217.307 600.862 216.186 602.359 213.716L606.111 207.263C606.786 206.155 607.185 204.277 607.158 202.801L610.075 205.923C612.124 207.955 612.514 211.128 611.017 213.598L604.832 223.802C603.336 226.272 600.343 227.393 597.592 226.517Z" fill="#46CDD3"/>
<path d="M509.68 142.714L603.966 199.859L589.403 223.887L495.117 166.742L509.68 142.714Z" fill="#D6FAFC"/>
<path d="M603.979 199.878L597.699 196.071L588.349 211.498C587.571 212.782 585.899 213.192 584.614 212.414L498.919 160.476L495.113 166.756L589.414 223.91L603.979 199.878Z" fill="#A5EAED"/>
<path d="M588.384 209.548L587.608 206.386L590.77 205.611C592.031 205.301 592.804 204.027 592.494 202.766C592.185 201.504 590.911 200.732 589.649 201.041L586.487 201.817L585.712 198.655C585.403 197.393 584.129 196.621 582.867 196.931C581.605 197.24 580.833 198.514 581.143 199.776L581.918 202.937L578.757 203.713C577.495 204.022 576.723 205.296 577.032 206.558C577.342 207.82 578.616 208.592 579.877 208.282L583.039 207.507L583.814 210.668C584.124 211.93 585.397 212.702 586.659 212.393C587.921 212.083 588.693 210.81 588.384 209.548Z" fill="#89EAEE"/>
<path d="M574.47 201.115L573.694 197.953L576.856 197.178C578.118 196.868 578.89 195.594 578.58 194.333C578.271 193.071 576.997 192.299 575.735 192.608L572.574 193.384L571.798 190.222C571.489 188.96 570.215 188.188 568.953 188.498C567.691 188.807 566.919 190.081 567.229 191.343L568.004 194.504L564.843 195.28C563.581 195.589 562.809 196.863 563.118 198.125C563.428 199.387 564.702 200.159 565.964 199.849L569.125 199.074L569.9 202.235C570.21 203.497 571.484 204.269 572.745 203.96C574.007 203.65 574.779 202.376 574.47 201.115Z" fill="#89EAEE"/>
<path d="M517.569 166.628L516.794 163.467L519.955 162.691C521.217 162.382 521.989 161.108 521.68 159.846C521.37 158.585 520.097 157.813 518.835 158.122L515.673 158.897L514.898 155.736C514.588 154.474 513.315 153.702 512.053 154.012C510.791 154.321 510.019 155.595 510.328 156.857L511.104 160.018L507.942 160.794C506.681 161.103 505.909 162.377 506.218 163.639C506.528 164.9 507.801 165.672 509.063 165.363L512.225 164.588L513 167.749C513.309 169.011 514.583 169.783 515.845 169.473C517.107 169.164 517.879 167.89 517.569 166.628Z" fill="#89EAEE"/>
<path d="M531.483 175.061L530.708 171.9L533.869 171.124C535.131 170.815 535.903 169.541 535.594 168.279C535.284 167.017 534.01 166.245 532.749 166.555L529.587 167.33L528.812 164.169C528.502 162.907 527.228 162.135 525.967 162.444C524.705 162.754 523.933 164.028 524.242 165.29L525.018 168.451L521.856 169.226C520.594 169.536 519.822 170.81 520.132 172.071C520.441 173.333 521.715 174.105 522.977 173.796L526.138 173.02L526.914 176.182C527.223 177.444 528.497 178.216 529.759 177.906C531.021 177.597 531.793 176.323 531.483 175.061Z" fill="#89EAEE"/>
<path d="M225.193 779.948C224.79 779.948 224.387 779.795 224.079 779.487C223.462 778.872 223.46 777.873 224.076 777.256L237.195 764.108C237.81 763.491 238.809 763.489 239.426 764.104C240.043 764.719 240.044 765.718 239.429 766.335L226.31 779.484C226.001 779.793 225.597 779.948 225.193 779.948Z" fill="#EAF6FF"/>
<path d="M227.539 783.261L226.609 779.1C226.369 778.029 225.534 777.193 224.463 776.952L220.319 776.02C218.411 775.591 216.417 776.171 215.034 777.557L211.3 781.302L216.245 788.553L222.272 792.306L226.006 788.561C227.389 787.174 227.967 785.175 227.539 783.261Z" fill="#4ED7DD"/>
<path d="M227.54 783.262L226.609 779.1C226.369 778.03 225.534 777.193 224.463 776.952L220.319 776.02C218.74 775.665 217.104 776.002 215.802 776.914C216.976 777.178 217.892 778.095 218.154 779.269L219.047 783.261C219.421 784.936 219.025 786.677 217.993 788.015L218.568 789.999L222.272 792.306L226.006 788.561C227.389 787.175 227.967 785.175 227.54 783.262Z" fill="#B4DBDD"/>
<path d="M162.193 841.555C159.163 838.516 159.163 833.59 162.193 830.551L211.3 781.303L222.272 792.306L173.165 841.555C170.135 844.593 165.223 844.593 162.193 841.555Z" fill="#EAF6FF"/>
<path d="M211.3 781.303L207.054 785.561L212.023 790.544C212.994 791.518 212.994 793.094 212.023 794.068L168.591 837.627C166.467 839.758 163.419 840.392 160.741 839.536C161.105 840.264 161.587 840.947 162.193 841.555C165.223 844.593 170.135 844.593 173.165 841.555L222.272 792.306L211.3 781.303Z" fill="#C8EFFE"/>
<path d="M248.103 771.796C257.133 771.796 264.453 764.454 264.453 755.398C264.453 746.342 257.133 739 248.103 739C239.072 739 231.752 746.342 231.752 755.398C231.752 764.454 239.072 771.796 248.103 771.796Z" fill="#9FACBA"/>
<path d="M259.664 743.803C255.327 739.452 249.158 738.061 243.646 739.622C246.248 740.358 248.704 741.749 250.752 743.803C257.137 750.206 257.137 760.589 250.752 766.993C248.704 769.046 246.248 770.437 243.646 771.174C249.158 772.735 255.327 771.343 259.664 766.993C266.05 760.589 266.05 750.206 259.664 743.803Z" fill="#8D9CA8"/>
<path d="M170.067 835.235C169.664 835.235 169.261 835.082 168.953 834.775C168.336 834.16 168.335 833.161 168.95 832.544L173.001 828.481C173.616 827.864 174.615 827.863 175.231 828.478C175.848 829.093 175.85 830.092 175.235 830.709L171.184 834.771C170.876 835.081 170.471 835.235 170.067 835.235Z" fill="#4ED7DD"/>
<path d="M739 54.3077C739.001 70.1347 742.962 85.6796 750.479 99.3644C757.997 113.049 768.804 124.386 781.803 132.225C794.802 140.064 809.531 144.126 824.495 143.997C839.458 143.869 854.123 139.555 867 131.494V34H741.192C739.728 40.658 738.992 47.472 739 54.3077Z" fill="#7FBED7"/>
<path d="M391.5 287C363.057 287 340 262.6 340 232.5C340 202.4 363.057 178 391.5 178C419.943 178 443 202.4 443 232.5C443 262.6 419.943 287 391.5 287Z" fill="#7FBED7"/>
<path d="M153.5 1015C133.342 1015 117 997.763 117 976.5C117 955.237 133.342 938 153.5 938C173.658 938 190 955.237 190 976.5C190 997.763 173.658 1015 153.5 1015Z" fill="#7FBED7"/>
<path d="M792 736C771.565 736 755 718.539 755 697C755 675.461 771.565 658 792 658C812.435 658 829 675.461 829 697C829 718.539 812.435 736 792 736Z" fill="#7FBED7"/>
<path d="M815.667 1058H861V1004.76C853.708 1002.5 845.885 1002.41 838.54 1004.51C831.195 1006.6 824.663 1010.78 819.786 1016.5C814.91 1022.23 811.911 1029.24 811.177 1036.64C810.443 1044.04 812.006 1051.47 815.667 1058V1058Z" fill="#7FBED7"/>
<path d="M701.761 795.724L687.905 793.639L690.886 760.929L704.746 762.999L701.761 795.724Z" fill="#FFB573"/>
<path d="M634.263 783.524L620.511 781.858L622.458 749.712L636.214 751.363L634.263 783.524Z" fill="#FFB573"/>
<path d="M620.409 774.937L635.482 773.643C635.744 773.612 636.007 773.684 636.217 773.843C636.427 774.003 636.567 774.237 636.607 774.498L638.738 786.697C638.787 787.022 638.767 787.353 638.681 787.67C638.594 787.987 638.443 788.283 638.237 788.539C638.03 788.794 637.773 789.004 637.482 789.156C637.19 789.307 636.87 789.396 636.542 789.417C631.106 789.828 626.172 789.116 619.425 790.472C611.562 791.952 607.657 795.387 599.913 793.691C594.368 792.478 594.229 787.117 596.736 786.929C608.136 786.032 607.313 783.067 616.901 776.41C617.92 775.619 619.13 775.111 620.409 774.937Z" fill="#263238"/>
<path opacity="0.2" d="M622.458 749.712L621.452 766.298L635.223 767.952L636.229 751.366L622.458 749.712Z" fill="black"/>
<path opacity="0.2" d="M691.988 761.205L690.449 778.082L704.325 780.156L705.864 763.279L691.988 761.205Z" fill="black"/>
<path d="M653.013 613.354C662.278 573.591 688.175 479.718 688.175 479.718L630.835 472.143C630.835 472.143 620.6 572.486 618.444 614.654C616.211 658.486 616.072 762.287 616.072 762.287L639.411 765.348C639.411 765.348 656.664 646.47 653.013 613.354Z" fill="#263238"/>
<path d="M614.56 762.612L642.237 766.254L643.088 757.253L614.355 752.948L614.56 762.612Z" fill="#62A2A5"/>
<path d="M697.014 635.831C702.517 563.575 713.394 508.712 708.768 479.596L651.944 472.873C651.944 472.873 658.964 584.348 663.982 632.438C669.181 682.427 682.481 768.938 682.481 768.938L709.99 775.819C709.99 775.819 708.562 672.259 697.014 635.831Z" fill="#263238"/>
<path d="M688.581 786.706L703.781 784.911C704.044 784.871 704.313 784.935 704.53 785.091C704.748 785.247 704.896 785.482 704.944 785.746L707.47 798.116C707.528 798.446 707.518 798.784 707.441 799.11C707.363 799.436 707.219 799.742 707.018 800.009C706.817 800.276 706.564 800.499 706.274 800.662C705.983 800.826 705.663 800.927 705.332 800.959C699.848 801.549 694.838 800.979 688.058 802.575C680.153 804.332 676.309 807.957 668.428 806.474C662.785 805.411 662.482 799.951 665.01 799.68C676.509 798.405 675.587 795.408 685.079 788.319C686.085 787.48 687.293 786.923 688.581 786.706Z" fill="#263238"/>
<path d="M681.993 773.747L710.929 778.588L711.953 769.734L681.922 764.19L681.993 773.747Z" fill="#62A2A5"/>
<path d="M589.56 493.834C595.654 497.98 600.29 492.15 607.09 489.176C613.89 486.202 619.565 480.917 624.883 475.478C630.2 470.039 633.862 463.248 640.035 458.963C640.118 458.372 640.199 457.797 640.272 457.273C641.938 445.18 645.37 433.396 650.46 422.298C649.938 421.819 649.383 421.379 648.799 420.98C643.403 417.638 625.071 437.635 621.995 441.114C618.919 444.594 615.86 447.955 612.587 450.993C611.757 451.83 610.901 452.64 610.02 453.424L607.516 456.277L606.024 456.826C602.207 458.206 574.486 474.155 574.486 474.155C575.052 475.301 578.254 477.923 578.254 477.923L580.767 480.854L583.279 484.204L584.954 486.298L589.56 493.834Z" fill="#46CDD3"/>
<path opacity="0.7" d="M589.978 493.834C596.072 497.98 600.29 492.15 607.09 489.176C613.89 486.202 619.565 480.917 624.883 475.478C630.2 470.039 633.862 463.248 640.035 458.963C640.118 458.372 640.199 457.797 640.272 457.273C641.938 445.18 645.37 433.396 650.46 422.298C649.938 421.819 649.383 421.379 648.799 420.98C643.403 417.638 625.071 437.635 621.995 441.114C618.919 444.594 615.86 447.955 612.587 450.993C611.757 451.83 610.901 452.64 610.02 453.424L607.516 456.277L606.024 456.826C602.207 458.206 574.486 474.155 574.486 474.155L577.836 477.923L581.185 481.273L585.372 486.298L589.978 493.834Z" fill="white"/>
<path d="M666.837 416.954L687.816 416.159L713.357 421.07C717.236 421.808 720.765 423.799 723.401 426.738C726.036 429.676 727.631 433.399 727.941 437.332C729.163 453.2 717.816 475.437 716.65 494.554C713.2 521.398 712.34 548.511 714.082 575.521L629.069 556.301C625.652 481.731 628.921 458.068 633.981 437.378C634.228 433.467 635.753 429.746 638.321 426.786C640.889 423.825 644.359 421.788 648.198 420.988L666.837 416.954Z" fill="#46CDD3"/>
<g opacity="0.6">
<path opacity="0.6" d="M666.955 416.793L687.929 415.995L713.463 420.907C717.341 421.644 720.869 423.637 723.504 426.577C726.138 429.517 727.733 433.242 728.042 437.177C729.262 453.055 717.914 475.307 716.747 494.436C713.294 521.297 712.431 548.428 714.169 575.454L629.178 556.232C625.771 481.616 629.042 457.938 634.103 437.234C634.351 433.321 635.876 429.598 638.443 426.635C641.011 423.672 644.481 421.634 648.319 420.833L666.955 416.793Z" fill="black"/>
</g>
<path d="M654.746 416.404C640.06 431.338 635.301 478.126 635.679 557.167C635.679 557.167 600.396 558.463 592.563 561.258C585.239 559.047 577.737 557.479 570.141 556.571C583.076 546.635 604.898 545.527 621.057 547.344C621.953 498.007 617.741 469.483 628.163 433.511C631.1 423.383 644.432 418.349 654.746 416.404Z" fill="#46CDD3"/>
<path d="M705.237 419.685C697.067 413.054 686.818 409.414 676.249 409.389C665.679 409.365 655.449 412.957 647.314 419.549C666.401 418.868 686.201 418.031 705.237 419.685Z" fill="#46CDD3"/>
<path opacity="0.8" d="M705.237 419.685C697.067 413.054 686.818 409.414 676.249 409.389C665.679 409.365 655.449 412.957 647.314 419.549C666.401 418.868 686.201 418.031 705.237 419.685Z" fill="white"/>
<g opacity="0.8">
<path opacity="0.8" d="M654.608 416.68C639.918 431.55 635.186 478.161 635.617 556.911C635.617 556.911 600.301 558.179 592.463 560.958C585.13 558.751 577.62 557.183 570.017 556.273C582.957 546.382 604.799 545.293 620.974 547.115C621.839 497.96 617.604 469.538 628.012 433.706C630.945 423.618 644.286 418.611 654.608 416.68Z" fill="white"/>
</g>
<path d="M703.442 628.422C704.139 624.25 703.365 619.965 701.252 616.299C699.159 612.669 696.816 609.188 694.239 605.883C687.543 596.409 680.606 584.587 679.035 573.104C675.102 544.066 675.196 514.195 676.967 484.938C678.449 460.202 686.655 436.859 699.568 415.713L725.415 421.707C729.283 422.613 731.954 426.633 733.484 430.268C721.371 460.629 718.142 494.725 722.459 527.185C724.683 543.873 729.101 560.213 731.492 576.821C733.883 593.429 734.125 610.928 728.193 626.696C725.596 633.621 718.704 639.961 712.528 644.035C708.101 646.868 701.412 644.738 696.147 644.051C699.162 642.66 701.646 640.334 703.231 637.419C704.815 634.504 705.414 631.155 704.938 627.872C704.799 627.507 703.34 628.908 703.442 628.422Z" fill="#46CDD3"/>
<path opacity="0.8" d="M676.977 484.914C675.293 514.172 675.1 544.019 679.034 573.064C680.589 584.541 687.548 596.345 694.244 605.832C696.818 609.144 699.167 612.624 701.277 616.248C703.385 619.915 704.16 624.196 703.469 628.367C703.404 628.824 704.799 627.397 704.928 627.829C705.406 631.11 704.81 634.456 703.229 637.371C701.648 640.285 699.166 642.612 696.153 644.004C701.413 644.742 708.098 646.907 712.522 643.987C718.715 639.918 725.625 633.583 728.208 626.641C734.121 610.894 733.884 593.471 731.503 576.784C729.122 560.097 724.698 543.796 722.481 527.167C721.136 517.17 720.527 507.088 720.66 497.002C720.826 478.188 723.792 459.504 729.461 441.563C730.674 437.773 732.012 434.03 733.477 430.333C731.933 426.662 729.274 422.68 725.405 421.774L699.493 415.703C686.647 436.849 678.439 460.201 676.977 484.914Z" fill="white"/>
<path d="M697.717 417.168C697.802 420.883 696.475 424.49 693.996 427.279C691.531 430.047 688.723 432.497 685.637 434.572C681.814 437.337 673.065 442.64 673.065 442.64C673.065 442.64 666.227 435.793 665.006 430.542C660.714 436.035 655.793 440.868 655.793 440.868C655.793 440.868 651.393 436.725 649.731 434.612C646.805 430.985 645.545 428.945 645.423 424.306C645.209 416.774 652.03 410.518 659.422 408.644C667.349 406.624 674.216 406.656 682.251 406.565C688.977 406.493 697.157 409.402 697.717 417.168Z" fill="#46CDD3"/>
<path d="M570.105 477.702C569.521 476.23 569.522 474.597 570.107 473.14C570.693 471.682 571.819 470.511 573.254 469.866C576.001 468.736 579.502 469.501 582.585 471.052C585.843 472.774 588.704 475.165 590.976 478.065C593.247 480.965 594.878 484.308 595.758 487.869C596.718 492.193 596.278 496.838 593.812 499.663C592.415 501.126 590.524 502.021 588.494 502.179C586.464 502.337 584.437 501.748 582.796 500.522C583.131 493.484 577.97 484.487 571.663 480.289C571.048 479.487 570.525 478.619 570.105 477.702Z" fill="#46CDD3"/>
<path opacity="0.6" d="M570.105 477.702C569.521 476.23 569.522 474.597 570.107 473.14C570.693 471.682 571.819 470.511 573.254 469.866C576.001 468.736 579.502 469.501 582.585 471.052C585.843 472.774 588.704 475.165 590.976 478.065C593.247 480.965 594.878 484.308 595.758 487.869C596.718 492.193 596.278 496.838 593.812 499.663C592.415 501.126 590.524 502.021 588.494 502.179C586.464 502.337 584.437 501.748 582.796 500.522C583.131 493.484 577.97 484.487 571.663 480.289C571.048 479.487 570.525 478.619 570.105 477.702Z" fill="white"/>
<path d="M620.51 446.558C621.046 446.965 621.662 447.261 622.319 447.426C622.976 447.592 623.661 447.623 624.329 447.518C624.997 447.413 625.635 447.175 626.202 446.817C626.769 446.46 627.253 445.992 627.624 445.442L621.072 411.347L621.426 410.331L617.797 411.025C617.788 411.064 617.783 411.103 617.78 411.143C617.832 411.528 617.83 445.013 620.51 446.558Z" fill="#263238"/>
<path opacity="0.4" d="M601.549 390.236C603.488 401.085 609.885 411.507 616.976 410.932C616.974 410.892 616.979 410.852 616.993 410.814L617.836 410.725C611.893 410.029 606.012 401.111 604.211 389.523C602.41 377.934 605.376 367.532 610.935 365.172C611.12 365.09 611.309 365.018 611.502 364.958C610.756 365.099 610.023 365.296 609.307 365.547C608.942 365.687 608.592 365.863 608.264 366.074C606.34 367.302 604.796 369.038 603.803 371.09C601.03 377.069 600.241 383.775 601.549 390.236Z" fill="black"/>
<path opacity="0.4" d="M603.241 387.626C605.16 398.488 611.512 408.934 618.566 408.366C618.565 408.32 618.571 408.274 618.585 408.231L622.463 407.84C625.547 406.669 628.067 404.352 629.501 401.368C632.35 395.471 633.283 388.826 632.167 382.373C630.269 369.644 622.101 360.848 616.271 361.656C615.315 361.787 614.368 361.978 613.435 362.228C612.645 362.367 611.868 362.571 611.111 362.836C610.747 362.982 610.398 363.165 610.07 363.382C608.148 364.609 606.608 366.354 605.627 368.419C602.82 374.406 601.984 381.134 603.241 387.626Z" fill="white"/>
<path opacity="0.2" d="M705.329 493.12C706.753 501.65 716.859 499.172 720.388 497.364C720.449 497.331 720.506 497.292 720.559 497.249C720.742 478.382 723.714 459.643 729.38 441.646C727.682 436.724 724.591 432.409 720.486 429.227C703.624 424.436 700.463 463.67 705.329 493.12Z" fill="black"/>
<path d="M706.587 447.96C690.539 467.356 683.696 474.982 673.753 474.9C662.306 474.813 635.285 435.586 636.373 433.371C632.73 433.223 628.19 440.447 626.349 444.577C626.349 444.577 655.522 502.092 676.681 504.647C686.216 505.795 711.929 484.767 722.812 468.551C722.389 460.855 706.587 447.96 706.587 447.96Z" fill="#FFB573"/>
<path d="M609.192 437.021L615.62 442.071C615.62 442.071 628.601 450.325 631.124 446.687L637.002 439.756C640.267 434.689 632.987 430.042 629.128 427.286L623.968 423.32C622.822 422.443 621.405 422.022 619.974 422.132L612.811 422.678C611.586 422.768 610.424 423.284 609.517 424.142C608.609 425 608.01 426.149 607.819 427.398L607.202 431.791C607.042 432.771 607.143 433.774 607.493 434.695C607.843 435.616 608.43 436.419 609.192 437.021Z" fill="#FFB573"/>
<path d="M720.328 420.722C748.4 424.662 730.789 462.592 716.493 481.201C716.493 481.201 680.409 532.741 651.037 485.631C643.836 479.225 653.738 471.911 661.775 464.989C661.775 464.989 674.065 478.607 680.566 470.35C682.513 467.9 700.032 443.642 702.178 440.634C702.171 440.684 710.029 421.896 720.328 420.722Z" fill="#46CDD3"/>
<path opacity="0.8" d="M720.328 420.722C748.4 424.662 730.789 462.592 716.493 481.201C716.493 481.201 680.409 532.741 651.037 485.631C643.836 479.225 653.738 471.911 661.775 464.989C661.775 464.989 674.065 478.607 680.566 470.35C682.513 467.9 700.032 443.642 702.178 440.634C702.171 440.684 710.029 421.896 720.328 420.722Z" fill="white"/>
<path d="M674.423 470.126C672.635 475.742 669.642 480.907 665.648 485.268C663.635 487.432 661.169 489.136 658.421 490.262C655.673 491.389 652.708 491.911 649.732 491.792C649.231 489.206 647.843 486.866 645.802 485.17C644.543 484.144 643.979 483.406 642.686 482.374C649.618 476.442 655.962 469.87 661.634 462.747C663.979 464.304 665.977 466.32 667.504 468.67C668.999 466.521 672.913 468.007 674.423 470.126Z" fill="#46CDD3"/>
<path opacity="0.6" d="M674.423 470.126C672.635 475.742 669.642 480.907 665.648 485.268C663.635 487.432 661.169 489.136 658.421 490.262C655.673 491.389 652.708 491.911 649.732 491.792C649.231 489.206 647.843 486.866 645.802 485.17C644.543 484.144 643.979 483.406 642.686 482.374C649.618 476.442 655.962 469.87 661.634 462.747C663.979 464.304 665.977 466.32 667.504 468.67C668.999 466.521 672.913 468.007 674.423 470.126Z" fill="white"/>
<path opacity="0.4" d="M630.484 376.625C630.664 378.495 632.843 379.586 635.448 379.321C638.052 379.056 640.073 377.132 639.878 375.265" fill="#62A2A5"/>
<path d="M599.166 390.284C597.061 376.112 603.468 363.135 613.466 361.607C623.465 360.079 633.277 370.285 635.374 384.507C637.419 398.376 631.414 410.906 621.875 413.036L621.087 413.203C620.004 413.379 618.903 413.411 617.813 413.299C609.025 412.499 601.038 402.966 599.166 390.284ZM617.647 410.726C618.138 410.786 618.634 410.786 619.125 410.725L619.325 410.753L619.672 410.698L619.756 410.709C620.236 410.63 620.709 410.504 621.167 410.335C627.924 407.815 631.956 396.881 630.184 384.941C628.304 372.189 620.146 363.395 614.846 364.125C613.987 364.246 613.135 364.416 612.294 364.634C611.871 364.716 611.458 364.85 611.066 365.034C605.634 367.429 602.66 377.731 604.385 389.525C606.11 401.319 611.8 410.027 617.647 410.726Z" fill="#263238"/>
<path d="M688.982 376.336C686.2 387.691 682.976 408.576 690.665 416.631C684.131 422.52 675.65 429.272 662.005 429.065C648.36 428.859 651.176 419.618 654.998 414.853C667.939 412.433 668.042 402.931 666.229 393.904L688.982 376.336Z" fill="#FFB573"/>
<path opacity="0.2" d="M679.707 383.506L666.246 393.905C666.697 396.004 666.962 398.137 667.038 400.282C671.969 399.824 678.934 394.802 679.677 389.713C680.073 387.664 680.083 385.559 679.707 383.506Z" fill="black"/>
<path d="M666.126 339.625C654.936 343.048 653.55 351.92 653.795 361.749C654.039 371.579 665.15 365.933 667.979 360.01C670.807 354.087 681.621 334.881 666.126 339.625Z" fill="#263238"/>
<path d="M699.304 361.723C695.116 376.857 693.416 385.9 684.092 392.303C670.039 401.877 652.796 391.373 652.416 375.412C652.075 361.033 658.979 338.655 675.14 335.416C678.668 334.663 682.332 334.843 685.769 335.94C689.205 337.036 692.297 339.01 694.737 341.667C697.177 344.324 698.882 347.571 699.683 351.089C700.484 354.606 700.353 358.272 699.304 361.723Z" fill="#FFB573"/>
<path d="M697.7 374.393C684.718 374.095 688.011 366.966 690.678 362.929C693.346 358.892 689.097 351.56 692.494 348.182C686.751 349.979 681.017 347.697 673.951 341.943C668.473 337.462 659.993 353.049 653.555 344.415C647.469 336.269 654.539 325.223 670.696 324.592C686.854 323.96 688.901 335.507 699.491 335.302C710.08 335.098 705.769 343.481 703.57 345.087C712.346 346.342 716.518 355.14 697.7 374.393Z" fill="#263238"/>
<path d="M701.46 346.009C703.567 345.053 705.381 343.552 706.714 341.661C708.046 339.769 708.849 337.556 709.039 335.25C712.065 341.637 711.165 348.558 701.46 346.009Z" fill="#263238"/>
<path d="M665.492 375.645C666.879 375.996 668.322 376.062 669.735 375.841C671.149 375.619 672.502 375.114 673.716 374.356C673.753 374.326 673.783 374.288 673.806 374.246C673.828 374.203 673.841 374.157 673.845 374.109C673.849 374.061 673.842 374.013 673.827 373.968C673.811 373.922 673.787 373.88 673.755 373.845C673.691 373.774 673.602 373.73 673.507 373.723C673.411 373.716 673.317 373.745 673.243 373.806C671.887 374.62 670.361 375.107 668.784 375.23C667.208 375.353 665.624 375.108 664.159 374.515C664.064 374.484 663.962 374.488 663.871 374.527C663.78 374.565 663.706 374.636 663.663 374.726C663.629 374.817 663.632 374.918 663.671 375.008C663.711 375.097 663.784 375.167 663.875 375.203C664.4 375.398 664.941 375.547 665.492 375.645Z" fill="#263238"/>
<path d="M701.098 379.389C698.445 382.317 694.749 384.087 690.804 384.317C685.62 384.596 684.274 379.685 686.766 375.386C689.03 371.514 694.523 366.717 699.144 368.47C703.765 370.224 704.357 375.734 701.098 379.389Z" fill="#FFB573"/>
<path d="M676.056 360.874C675.802 362.114 674.918 363.005 674.131 362.856C673.344 362.707 672.88 361.572 673.154 360.315C673.427 359.059 674.292 358.184 675.079 358.333C675.866 358.482 676.328 359.635 676.056 360.874Z" fill="#263238"/>
<path d="M661.749 358.648C661.493 359.906 660.611 360.779 659.824 360.63C659.037 360.482 658.573 359.346 658.845 358.107C659.117 356.868 659.983 355.976 660.77 356.125C661.557 356.274 662.026 357.339 661.749 358.648Z" fill="#263238"/>
<path d="M665.693 360.439C663.319 363.541 660.542 366.312 657.436 368.68C659.156 370.78 663.059 370.546 663.059 370.546L665.693 360.439Z" fill="#ED893E"/>
<path opacity="0.4" d="M652.623 358.271C652.205 360.262 654.106 362.092 656.883 362.659C659.661 363.225 662.371 361.889 662.771 359.896" fill="#62A2A5"/>
<path opacity="0.4" d="M669.149 361.412C668.609 363.376 670.43 365.324 673.141 366.063C675.853 366.802 678.659 365.596 679.18 363.649" fill="#62A2A5"/>
<path d="M674.193 366.693C673.875 366.687 673.557 366.662 673.241 366.621C671.897 366.355 670.667 365.686 669.714 364.702C669.298 364.287 668.986 363.778 668.807 363.218C668.627 362.658 668.585 362.063 668.682 361.483C667.817 361.025 666.881 360.714 665.914 360.562C664.954 360.243 663.93 360.165 662.933 360.335C662.522 362.468 659.728 363.745 656.757 363.146C655.412 362.895 654.179 362.23 653.23 361.245C652.815 360.829 652.506 360.32 652.326 359.76C652.147 359.201 652.103 358.606 652.198 358.026L653.036 358.197C652.966 358.645 653.005 359.104 653.148 359.534C653.291 359.965 653.535 360.355 653.859 360.672C654.688 361.522 655.76 362.094 656.928 362.308C659.442 362.837 661.79 361.827 662.154 360.081C662.353 359.102 664.393 359.329 666.071 359.669C667.748 360.01 669.722 360.64 669.472 361.596C669.401 362.045 669.438 362.504 669.581 362.935C669.724 363.365 669.969 363.756 670.295 364.072C671.135 364.912 672.204 365.488 673.368 365.728C674.532 365.968 675.74 365.862 676.845 365.423C677.27 365.263 677.651 365.003 677.955 364.665C678.258 364.327 678.476 363.92 678.59 363.48L678.622 363.057L700.175 367.521L700.004 368.359L679.255 364.063C679.065 364.542 678.78 364.978 678.417 365.344C678.053 365.71 677.619 365.998 677.141 366.191C676.214 366.594 675.202 366.767 674.193 366.693Z" fill="#263238"/>
<path d="M682.017 355.758C682.143 355.768 682.268 355.74 682.378 355.679C682.557 355.592 682.695 355.439 682.763 355.251C682.83 355.064 682.821 354.858 682.738 354.677C682.27 353.61 681.545 352.674 680.628 351.954C679.711 351.234 678.63 350.752 677.482 350.551C677.285 350.526 677.085 350.58 676.927 350.7C676.768 350.821 676.663 350.999 676.635 351.196C676.61 351.389 676.662 351.584 676.78 351.738C676.897 351.893 677.071 351.996 677.263 352.024C678.171 352.202 679.021 352.598 679.74 353.178C680.46 353.759 681.027 354.506 681.392 355.355C681.45 355.472 681.539 355.572 681.649 355.643C681.759 355.714 681.886 355.753 682.017 355.758Z" fill="#263238"/>
<path d="M657.58 351.89C657.701 351.911 657.826 351.902 657.943 351.865C658.06 351.828 658.166 351.762 658.253 351.675C658.88 350.971 659.664 350.425 660.54 350.079C661.417 349.733 662.363 349.597 663.301 349.682C663.398 349.699 663.497 349.697 663.593 349.676C663.689 349.654 663.779 349.614 663.86 349.558C663.94 349.501 664.008 349.429 664.06 349.346C664.112 349.263 664.148 349.171 664.164 349.074C664.183 348.98 664.184 348.882 664.166 348.788C664.148 348.694 664.111 348.604 664.057 348.524C664.004 348.444 663.935 348.375 663.855 348.322C663.775 348.269 663.685 348.232 663.591 348.214C662.408 348.093 661.214 348.25 660.103 348.674C658.992 349.098 657.996 349.776 657.195 350.654C657.058 350.794 656.982 350.983 656.984 351.179C656.985 351.376 657.065 351.563 657.204 351.701C657.313 351.793 657.442 351.857 657.58 351.89Z" fill="#263238"/>
<g filter="url(#filter0_f)">
<ellipse cx="650.904" cy="802.804" rx="80.2638" ry="10.2633" transform="rotate(8.34537 650.904 802.804)" fill="#036792" fill-opacity="0.3"/>
</g>
<path d="M620.797 588.563C620.797 676.491 552.759 747.772 468.83 747.772C384.901 747.772 316.863 676.491 316.863 588.563C316.863 500.634 384.901 429.354 468.83 429.354C552.759 429.354 620.797 500.634 620.797 588.563Z" fill="#7FBED7"/>
<path d="M648.31 615.571C648.31 615.572 648.31 615.572 648.31 615.571C647.711 622.745 642.077 628.419 631.13 632.837C628.176 634.029 624.841 632.65 623.43 629.681C623.405 629.63 623.381 629.579 623.357 629.527C621.726 626.108 623.303 621.983 626.712 620.622C633.611 617.869 635.818 615.431 635.901 614.433C636.082 612.264 627.517 601.577 582.306 588.919C544.272 578.272 493.166 569.643 438.402 564.624C406.164 561.669 374.965 560.177 346.754 560.177C327.043 560.177 308.789 560.905 292.658 562.372C246.035 566.614 235.829 575.58 235.648 577.75C235.593 578.415 236.361 579.884 238.76 581.965C243.239 585.851 240.622 593.482 234.805 593.482C233.367 593.482 231.961 592.972 230.86 592.004C225.294 587.109 222.787 582.02 223.239 576.612C223.916 568.495 231.04 562.298 245.014 557.667C256.218 553.955 271.886 551.164 291.58 549.373C331.5 545.742 384.027 546.542 439.488 551.624C494.95 556.708 546.813 565.476 585.523 576.314C604.621 581.661 619.587 587.259 630.007 592.954C643 600.055 648.987 607.454 648.31 615.571Z" fill="#036792"/>
<path d="M563.213 606.632L507.837 758.92C503.174 771.746 488.346 776.712 477.446 769.098C472.51 765.651 469.251 760.126 468.515 753.96L463.227 709.635C463.227 709.635 462.571 687.227 454.029 670.004C446.274 654.37 424.972 654.209 417.521 670.004C410.592 684.691 408.473 708.364 408.473 708.364L403.033 753.96C402.298 760.126 399.038 765.651 394.103 769.098C383.202 776.711 368.375 771.745 363.711 758.92L308.336 606.631C299.871 583.354 298.425 557.916 304.192 533.75L315.163 487.773C320.286 466.305 340.879 453.092 361.461 458.068L382.041 463.044C390.004 464.969 398.32 464.102 405.844 460.762C425.312 452.121 446.238 452.121 465.706 460.762C473.231 464.102 481.546 464.969 489.509 463.044L510.089 458.068C530.671 453.093 551.264 466.305 556.387 487.773L567.359 533.75C573.123 557.917 571.677 583.354 563.213 606.632Z" fill="#ECF4F4"/>
<path d="M397.186 758.92C397.797 760.602 398.585 762.149 399.514 763.549C398.072 765.712 396.245 767.602 394.102 769.098C383.201 776.711 368.374 771.745 363.71 758.92L308.335 606.632C299.87 583.354 298.424 557.916 304.191 533.75L315.162 487.774C320.285 466.306 340.878 453.092 361.46 458.069L370.88 460.346C360.174 465.194 351.681 475.029 348.639 487.774L337.668 533.75C331.901 557.916 333.348 583.354 341.811 606.632L397.186 758.92ZM494.343 753.961L489.055 709.636C489.055 709.636 488.399 687.228 479.856 670.005C474.745 659.7 450.272 655.274 435.973 658.222C443.095 658.354 450.207 662.3 454.028 670.005C462.571 687.228 463.226 709.636 463.226 709.636L468.514 753.961C469.25 760.127 472.51 765.652 477.445 769.099C485.234 774.539 495.028 773.556 501.685 767.872L501.687 767.871C497.644 764.413 494.996 759.439 494.343 753.961Z" fill="#94D4D7"/>
<path d="M499.376 608.756C487.561 597.648 499.122 579.769 494.743 545.963C491.808 523.301 484.795 517.011 489.82 507.657C495.837 496.456 513.933 491.101 525.979 496.834C549.02 507.798 542.78 555.149 542.122 559.746C538.785 583.075 525.643 613.45 510.03 613.491C504.54 613.506 500.451 609.767 499.376 608.756Z" fill="#E8FEFF"/>
<path d="M414.183 558.682C414.183 562.286 411.394 565.207 407.954 565.207H403.802V569.557C403.802 573.161 401.014 576.082 397.574 576.082C394.135 576.082 391.346 573.161 391.346 569.557V565.207H387.194C383.754 565.207 380.966 562.286 380.966 558.682C380.966 555.079 383.754 552.157 387.194 552.157H391.346V547.807C391.346 544.204 394.135 541.282 397.574 541.282C401.014 541.282 403.802 544.204 403.802 547.807V552.157H407.954C411.394 552.157 414.183 555.079 414.183 558.682Z" fill="#036792"/>
<path d="M397.574 608.873V638.988C397.574 644.532 393.284 649.026 387.993 649.026H359.248V679.141C359.248 684.685 354.958 689.179 349.667 689.179H320.922C315.63 689.179 311.34 684.685 311.34 679.141V649.026H282.593C277.301 649.026 273.011 644.532 273.011 638.988V608.873C273.011 603.329 277.301 598.835 282.593 598.835H311.338V568.72C311.338 563.175 315.628 558.682 320.919 558.682H349.664C354.956 558.682 359.245 563.176 359.245 568.72V598.835H387.99C393.284 598.835 397.574 603.33 397.574 608.873ZM648.309 615.572C647.631 623.689 640.509 629.886 626.534 634.516C615.33 638.228 599.663 641.019 579.968 642.81C563.5 644.308 544.882 645.052 524.8 645.052C496.205 645.052 464.641 643.544 432.06 640.558C425.125 639.922 418.246 639.229 411.442 638.481C408.276 638.133 405.879 635.327 405.879 631.992C405.879 628.122 409.073 625.101 412.747 625.504C419.477 626.244 426.283 626.929 433.146 627.558C487.91 632.578 539.669 633.377 578.891 629.81C625.514 625.569 635.72 616.602 635.901 614.433C636.2 610.843 639.213 608.193 642.648 608.502C646.074 608.817 648.609 611.981 648.309 615.572ZM260.689 593.813C240.134 585.578 235.513 579.348 235.647 577.749C235.946 574.16 233.412 570.996 229.985 570.681C226.564 570.37 223.537 573.022 223.238 576.611C222.56 584.728 228.547 592.127 241.542 599.23C245.73 601.518 250.651 603.792 256.282 606.039C260.349 607.662 264.71 604.493 264.71 599.933V599.912C264.71 597.203 263.105 594.781 260.689 593.813Z" fill="#46CDD3"/>
<path d="M397.574 608.873V638.988C397.574 644.532 393.284 649.026 387.993 649.026H359.248V679.141C359.248 684.685 354.958 689.179 349.667 689.179H335.293V558.682H349.666C354.957 558.682 359.247 563.176 359.247 568.72V598.835H387.992C393.284 598.835 397.574 603.33 397.574 608.873ZM397.574 506.482C397.574 510.085 394.786 513.007 391.346 513.007H387.194V517.357C387.194 520.96 384.406 523.882 380.966 523.882C377.526 523.882 374.738 520.96 374.738 517.357V513.007H370.586C367.146 513.007 364.358 510.085 364.358 506.482C364.358 502.878 367.146 499.957 370.586 499.957H374.738V495.607C374.738 492.003 377.526 489.082 380.966 489.082C384.406 489.082 387.194 492.003 387.194 495.607V499.957H391.346C394.786 499.957 397.574 502.878 397.574 506.482Z" fill="#89EAEE"/>
<path d="M667.327 986.956C667.824 986.848 668.28 986.551 668.577 986.092C669.171 985.173 668.906 983.949 667.984 983.359L637.339 963.75C636.417 963.16 635.188 963.427 634.593 964.346C633.999 965.265 634.265 966.489 635.187 967.078L665.831 986.688C666.292 986.983 666.83 987.063 667.327 986.956Z" fill="#8D9CA8"/>
<path d="M623.289 968.66C623.667 968.902 624.113 969.013 624.564 968.977L632.172 968.366C632.522 968.355 632.865 968.31 633.199 968.238C634.667 967.919 635.966 967.036 636.796 965.755C637.408 964.805 637.714 963.716 637.704 962.62C637.699 961.898 637.555 961.172 637.268 960.486L634.692 953.363C634.54 952.94 634.25 952.579 633.873 952.338L633.851 952.324L627.141 959.521L624.827 965.009L623.289 968.66Z" fill="#9FACBA"/>
<path d="M623.289 968.66C623.667 968.902 624.113 969.013 624.564 968.977L632.172 968.367C632.522 968.355 632.865 968.311 633.199 968.238C634.667 967.919 635.966 967.036 636.796 965.755C637.408 964.805 637.714 963.716 637.704 962.62C637.056 962.896 636.357 963.058 635.633 963.081L627.659 963.546C627.338 963.565 627.018 963.486 626.745 963.316L624.827 965.008L623.289 968.66Z" fill="#8D9CA8"/>
<path d="M562.628 913.39L562.044 917.636L558.14 920.33L534.516 905.213L535.109 900.899L539.003 898.273L562.628 913.39Z" fill="#8D9CA8"/>
<path d="M539.003 898.274L543.097 900.893L542.206 902.272C541.677 903.089 541.914 904.177 542.733 904.701L560.779 916.249L562.044 917.636L558.14 920.33L534.516 905.213L535.109 900.9L539.003 898.274Z" fill="#7A8C98"/>
<path d="M623.289 968.659L633.851 952.324L584.86 920.975L578.11 928.214L574.297 937.31L623.289 968.659Z" fill="#D6FAFC"/>
<path d="M584.86 920.975L590.213 924.4L584.822 932.738C583.872 934.207 584.296 936.164 585.77 937.107L626.739 963.323L623.288 968.659L574.297 937.31L578.11 928.214L584.86 920.975Z" fill="#A5EAED"/>
<path d="M571.657 935.621C565.439 931.642 557.148 933.442 553.139 939.642L554.525 929.326C554.905 926.495 555.908 923.782 557.461 921.379L563.306 912.341C564.859 909.938 566.926 907.905 569.358 906.387L578.219 900.856C574.21 907.055 576.002 915.307 582.22 919.286C583.022 919.799 584.86 920.975 584.86 920.975L574.297 937.31C574.297 937.31 572.459 936.134 571.657 935.621Z" fill="#C5F7FA"/>
<path d="M577.534 932.303L574.297 937.31C574.297 937.31 572.459 936.134 571.658 935.621C569.931 934.516 568.046 933.859 566.136 933.615C569.509 931.527 573.703 931.005 577.534 932.303Z" fill="#46CDD3"/>
<path d="M572.11 910.429L566.266 919.467C564.712 921.87 563.709 924.584 563.329 927.414L562.491 933.651C558.788 934.19 555.326 936.259 553.139 939.641L554.525 929.326C554.905 926.495 555.908 923.781 557.461 921.378L563.306 912.341C564.859 909.938 566.926 907.905 569.358 906.387L578.219 900.855C577.211 902.414 576.571 904.103 576.274 905.821C574.652 907.123 573.243 908.676 572.11 910.429Z" fill="#46CDD3"/>
<path d="M516.265 908.543C514.999 906.318 515.87 903.483 518.098 902.201C520.862 900.61 523.55 897.932 525.673 894.649C527.818 891.332 529.159 887.749 529.45 884.563C529.682 882.023 531.937 880.146 534.488 880.372C537.038 880.598 538.918 882.84 538.687 885.38C538.475 887.703 537.903 890.129 537.018 892.544C536.714 893.375 537.014 894.304 537.76 894.782L538.466 895.233C539.443 895.859 539.725 897.156 539.095 898.131L534.423 905.356C533.793 906.33 532.489 906.613 531.512 905.988L530.806 905.536C530.06 905.059 529.085 905.172 528.451 905.793C526.609 907.595 524.626 909.119 522.59 910.273C520.361 911.537 517.528 910.762 516.265 908.543Z" fill="#46CDD3"/>
<path d="M518.098 902.202C520.862 900.611 523.549 897.932 525.673 894.649C527.818 891.332 529.159 887.75 529.45 884.563C529.682 882.023 531.937 880.147 534.488 880.373C535.348 880.449 536.128 880.758 536.78 881.226C536.458 881.786 536.246 882.418 536.183 883.101C535.892 886.288 534.551 889.87 532.406 893.187C530.283 896.471 527.596 899.149 524.831 900.74C522.604 902.022 521.732 904.856 522.999 907.082C523.44 907.858 524.076 908.452 524.808 908.85C524.078 909.369 523.339 909.849 522.591 910.273C520.361 911.537 517.528 910.763 516.266 908.544C514.999 906.318 515.87 903.484 518.098 902.202Z" fill="#89EAEE"/>
<path d="M617.316 954.954C617.813 954.846 618.269 954.549 618.566 954.09C619.16 953.171 618.895 951.947 617.973 951.358L607.207 944.469C606.285 943.879 605.056 944.146 604.462 945.065C603.867 945.984 604.133 947.207 605.055 947.797L615.821 954.686C616.281 954.981 616.819 955.062 617.316 954.954Z" fill="#A5EAED"/>
<path d="M592.726 923.018C596.577 922.182 600.11 919.887 602.408 916.334C607.004 909.227 604.943 899.733 597.814 895.171C590.685 890.609 581.146 892.68 576.55 899.787C574.324 903.23 573.575 907.328 574.443 911.325C575.311 915.322 577.691 918.74 581.144 920.95C584.709 923.231 588.876 923.854 592.726 923.018ZM587.071 896.966C589.927 896.346 593.017 896.808 595.662 898.499C600.95 901.883 602.479 908.925 599.07 914.197C595.66 919.469 588.585 921.005 583.297 917.621C580.735 915.982 578.97 913.447 578.326 910.482C577.682 907.516 578.237 904.477 579.889 901.923C581.593 899.288 584.215 897.586 587.071 896.966Z" fill="#46CDD3"/>
<path d="M567.663 961.807C571.513 960.971 575.047 958.676 577.345 955.123C581.94 948.016 579.879 938.522 572.751 933.96C565.622 929.398 556.083 931.469 551.487 938.576C549.26 942.019 548.512 946.117 549.38 950.114C550.247 954.111 552.627 957.529 556.081 959.739C559.646 962.02 563.813 962.643 567.663 961.807ZM562.007 935.755C564.863 935.135 567.954 935.597 570.598 937.289C575.886 940.672 577.415 947.714 574.006 952.986C570.597 958.258 563.521 959.794 558.234 956.41C555.672 954.771 553.906 952.236 553.263 949.271C552.619 946.306 553.174 943.266 554.826 940.712C556.53 938.077 559.151 936.375 562.007 935.755Z" fill="#46CDD3"/>
<path d="M600.84 531.51C601.353 529.135 601.719 526.731 601.938 524.311C602.939 516.17 607.823 509.873 613.865 508.618L618.24 507.735C618.24 507.735 611.354 507.735 608.431 505.773C602.331 501.517 600.938 488.923 600.938 488.923C600.938 488.923 599.231 501.517 593.091 505.773C590.227 507.735 583.283 507.735 583.283 507.735L587.677 508.618C593.758 509.873 598.584 516.17 599.604 524.311C599.846 526.737 600.259 529.143 600.84 531.51Z" fill="#FFF5C6"/>
<g opacity="0.7">
<path opacity="0.7" d="M600.84 531.51C601.353 529.135 601.719 526.731 601.938 524.311C602.939 516.17 607.823 509.873 613.865 508.618L618.24 507.735C618.24 507.735 611.354 507.735 608.431 505.773C602.331 501.517 600.938 488.923 600.938 488.923C600.938 488.923 599.231 501.517 593.091 505.773C590.227 507.735 583.283 507.735 583.283 507.735L587.677 508.618C593.758 509.873 598.584 516.17 599.604 524.311C599.846 526.737 600.259 529.143 600.84 531.51Z" fill="white"/>
</g>
<path d="M592.091 498.044C592.382 496.752 592.579 495.441 592.679 494.121C593.229 489.766 595.818 486.274 599.074 485.705L601.428 485.234C599.624 485.266 597.835 484.898 596.191 484.155C592.934 481.86 592.169 475.112 592.169 475.112C592.169 475.112 591.267 481.86 587.991 484.155C586.347 484.899 584.558 485.268 582.753 485.234L585.107 485.705C588.383 486.372 590.992 489.766 591.502 494.121C591.614 495.44 591.811 496.75 592.091 498.044Z" fill="#FFF5C6"/>
<g opacity="0.7">
<path opacity="0.7" d="M592.091 498.044C592.382 496.752 592.579 495.441 592.679 494.121C593.229 489.766 595.818 486.274 599.074 485.705L601.428 485.234C599.624 485.266 597.835 484.898 596.191 484.155C592.934 481.86 592.169 475.112 592.169 475.112C592.169 475.112 591.267 481.86 587.991 484.155C586.347 484.899 584.558 485.268 582.753 485.234L585.107 485.705C588.383 486.372 590.992 489.766 591.502 494.121C591.614 495.44 591.811 496.75 592.091 498.044Z" fill="white"/>
</g>
<path d="M375.643 466.58C375.935 465.288 376.131 463.977 376.232 462.657C376.781 458.302 379.37 454.928 382.627 454.261L384.981 453.77C383.176 453.803 381.388 453.434 379.743 452.692C376.467 450.396 375.722 443.648 375.722 443.648C375.722 443.648 374.819 450.396 371.543 452.692C369.899 453.434 368.11 453.803 366.306 453.77L368.66 454.261C371.916 454.928 374.545 458.302 375.055 462.657C375.155 463.977 375.352 465.288 375.643 466.58Z" fill="#FFF5C6"/>
<g opacity="0.7">
<path opacity="0.7" d="M375.643 466.58C375.935 465.288 376.131 463.977 376.232 462.657C376.781 458.302 379.37 454.928 382.627 454.261L384.981 453.77C383.176 453.803 381.388 453.434 379.743 452.692C376.467 450.396 375.722 443.648 375.722 443.648C375.722 443.648 374.819 450.396 371.543 452.692C369.899 453.434 368.11 453.803 366.306 453.77L368.66 454.261C371.916 454.928 374.545 458.302 375.055 462.657C375.155 463.977 375.352 465.288 375.643 466.58Z" fill="white"/>
</g>
<path d="M511.762 450.494C512.053 449.202 512.25 447.891 512.35 446.571C512.9 442.216 515.489 438.842 518.745 438.175L521.119 437.685C519.308 437.717 517.513 437.349 515.862 436.606C512.605 434.311 511.938 427.562 511.938 427.562C511.938 427.562 511.016 434.311 507.74 436.606C506.096 437.349 504.307 437.718 502.503 437.685L504.857 438.175C508.133 438.842 510.742 442.216 511.252 446.571C511.338 447.888 511.508 449.199 511.762 450.494Z" fill="#FFF5C6"/>
<g opacity="0.7">
<path opacity="0.7" d="M511.762 450.494C512.053 449.202 512.25 447.891 512.35 446.571C512.9 442.216 515.489 438.842 518.745 438.175L521.119 437.685C519.308 437.717 517.513 437.349 515.862 436.606C512.605 434.311 511.938 427.562 511.938 427.562C511.938 427.562 511.016 434.311 507.74 436.606C506.096 437.349 504.307 437.718 502.503 437.685L504.857 438.175C508.133 438.842 510.742 442.216 511.252 446.571C511.338 447.888 511.508 449.199 511.762 450.494Z" fill="white"/>
</g>
<path d="M445.419 398.785C445.687 397.489 445.884 396.179 446.008 394.862C446.537 390.507 449.127 387.133 452.403 386.466L454.756 385.976C452.952 386.009 451.163 385.64 449.519 384.897C446.243 382.602 445.498 375.854 445.498 375.854C445.498 375.854 444.576 382.602 441.319 384.897C439.668 385.64 437.873 386.008 436.062 385.976L438.436 386.466C441.692 387.133 444.321 390.507 444.811 394.862C444.923 396.182 445.127 397.493 445.419 398.785Z" fill="#FFF5C6"/>
<g opacity="0.7">
<path opacity="0.7" d="M445.419 398.785C445.687 397.489 445.884 396.179 446.008 394.862C446.537 390.507 449.127 387.133 452.403 386.466L454.756 385.976C452.952 386.009 451.163 385.64 449.519 384.897C446.243 382.602 445.498 375.854 445.498 375.854C445.498 375.854 444.576 382.602 441.319 384.897C439.668 385.64 437.873 386.008 436.062 385.976L438.436 386.466C441.692 387.133 444.321 390.507 444.811 394.862C444.923 396.182 445.127 397.493 445.419 398.785Z" fill="white"/>
</g>
<path d="M426.293 394.607C426.806 392.232 427.172 389.828 427.391 387.408C428.392 379.267 433.276 372.97 439.299 371.715L443.693 370.812C443.693 370.812 436.807 370.812 433.885 368.851C427.803 364.594 426.411 352 426.411 352C426.411 352 424.704 364.594 418.564 368.851C415.7 370.812 408.756 370.812 408.756 370.812L413.15 371.715C419.231 372.95 424.057 379.247 425.077 387.408C425.312 389.833 425.718 392.239 426.293 394.607Z" fill="#FFF5C6"/>
<g opacity="0.7">
<path opacity="0.7" d="M426.293 394.607C426.806 392.232 427.172 389.828 427.391 387.408C428.392 379.267 433.276 372.97 439.299 371.715L443.693 370.812C443.693 370.812 436.807 370.812 433.885 368.851C427.803 364.594 426.411 352 426.411 352C426.411 352 424.704 364.594 418.564 368.851C415.7 370.812 408.756 370.812 408.756 370.812L413.15 371.715C419.231 372.95 424.057 379.247 425.077 387.408C425.312 389.833 425.718 392.239 426.293 394.607Z" fill="white"/>
</g>
<path d="M333.37 497.888C333.659 496.596 333.856 495.285 333.958 493.964C334.507 489.59 337.097 486.216 340.353 485.549L342.707 485.059C340.903 485.091 339.114 484.722 337.469 483.98C334.213 481.704 333.448 474.937 333.448 474.937C333.448 474.937 332.546 481.704 329.27 483.98C327.626 484.723 325.837 485.092 324.032 485.059L326.386 485.549C329.643 486.216 332.271 489.59 332.781 493.964C332.895 495.283 333.092 496.594 333.37 497.888Z" fill="#FFF5C6"/>
<g opacity="0.7">
<path opacity="0.7" d="M333.37 497.888C333.659 496.596 333.856 495.285 333.958 493.964C334.507 489.59 337.097 486.216 340.353 485.549L342.707 485.059C340.903 485.091 339.114 484.722 337.469 483.98C334.213 481.704 333.448 474.937 333.448 474.937C333.448 474.937 332.546 481.704 329.27 483.98C327.626 484.723 325.837 485.092 324.032 485.059L326.386 485.549C329.643 486.216 332.271 489.59 332.781 493.964C332.895 495.283 333.092 496.594 333.37 497.888Z" fill="white"/>
</g>
<path d="M312.537 519.368C313.074 516.997 313.441 514.591 313.636 512.168C314.656 504.028 319.521 497.731 325.562 496.475L329.957 495.573C329.957 495.573 323.052 495.573 320.148 493.611C314.048 489.335 312.655 476.741 312.655 476.741C312.655 476.741 310.948 489.335 304.808 493.611C301.925 495.573 295 495.573 295 495.573L299.394 496.475C305.475 497.711 310.301 504.008 311.301 512.168C311.564 514.592 311.976 516.996 312.537 519.368Z" fill="#FFF5C6"/>
<g opacity="0.7">
<path opacity="0.7" d="M312.537 519.368C313.074 516.997 313.441 514.591 313.636 512.168C314.656 504.028 319.521 497.731 325.562 496.475L329.957 495.573C329.957 495.573 323.052 495.573 320.148 493.611C314.048 489.335 312.655 476.741 312.655 476.741C312.655 476.741 310.948 489.335 304.808 493.611C301.925 495.573 295 495.573 295 495.573L299.394 496.475C305.475 497.711 310.301 504.008 311.301 512.168C311.564 514.592 311.976 516.996 312.537 519.368Z" fill="white"/>
</g>
<defs>
<filter id="filter0_f" x="551.476" y="767.35" width="198.856" height="70.9082" filterUnits="userSpaceOnUse" color-interpolation-filters="sRGB">
<feFlood flood-opacity="0" result="BackgroundImageFix"/>
<feBlend mode="normal" in="SourceGraphic" in2="BackgroundImageFix" result="shape"/>
<feGaussianBlur stdDeviation="10" result="effect1_foregroundBlur"/>
</filter>
</defs>
</svg>