<svg width="64" height="64" viewBox="0 0 64 64" fill="none" xmlns="http://www.w3.org/2000/svg">
<path d="M50.5859 39.082C50.5859 40.6484 48.8242 41.918 46.6484 41.918C44.4727 41.918 42.7109 40.6484 42.7109 39.082C42.7109 37.5117 44.4727 36.2422 46.6484 36.2422C48.8242 36.2422 50.5859 37.5117 50.5859 39.082Z" fill="#BFBFBF"/>
<path d="M51.6016 53.5508C51.6016 55.1172 49.8398 56.3906 47.6641 56.3906C45.4883 56.3906 43.7266 55.1172 43.7266 53.5508C43.7266 51.9844 45.4883 50.7148 47.6641 50.7148C49.8398 50.7148 51.6016 51.9844 51.6016 53.5508Z" fill="#BFBFBF"/>
<path d="M51.6016 55.5352C51.6016 57.1016 49.8398 58.375 47.6641 58.375C45.4883 58.375 43.7266 57.1016 43.7266 55.5352C43.7266 53.9688 45.4883 52.6992 47.6641 52.6992C49.8398 52.6992 51.6016 53.9688 51.6016 55.5352Z" fill="#BFBFBF"/>
<path d="M39.4297 48.5156C39.4297 50.082 37.668 51.3555 35.4922 51.3555C33.3164 51.3555 31.5547 50.082 31.5547 48.5156C31.5547 46.9492 33.3164 45.6797 35.4922 45.6797C37.668 45.6797 39.4297 46.9492 39.4297 48.5156Z" fill="#BFBFBF"/>
<path d="M39.3359 50.5C39.3359 52.0664 37.5742 53.3398 35.3984 53.3398C33.2227 53.3398 31.4609 52.0664 31.4609 50.5C31.4609 48.9336 33.2227 47.6602 35.3984 47.6602C37.5742 47.6602 39.3359 48.9336 39.3359 50.5Z" fill="#BFBFBF"/>
<path d="M39.3359 52.4844C39.3359 54.0508 37.5742 55.3203 35.3984 55.3203C33.2227 55.3203 31.4609 54.0508 31.4609 52.4844C31.4609 50.918 33.2227 49.6445 35.3984 49.6445C37.5742 49.6445 39.3359 50.918 39.3359 52.4844Z" fill="#BFBFBF"/>
<path d="M50.5859 40.9961C50.5859 42.5625 48.8242 43.8359 46.6484 43.8359C44.4727 43.8359 42.7109 42.5625 42.7109 40.9961C42.7109 39.4297 44.4727 38.1602 46.6484 38.1602C48.8242 38.1602 50.5859 39.4297 50.5859 40.9961Z" fill="#BFBFBF"/>
<path d="M50.5859 42.9141C50.5859 44.4805 48.8242 45.75 46.6484 45.75C44.4727 45.75 42.7109 44.4805 42.7109 42.9141C42.7109 41.3438 44.4727 40.0742 46.6484 40.0742C48.8242 40.0742 50.5859 41.3438 50.5859 42.9141Z" fill="#BFBFBF"/>
<path d="M50.5859 44.8281C50.5859 46.3945 48.8242 47.668 46.6484 47.668C44.4727 47.668 42.7109 46.3945 42.7109 44.8281C42.7109 43.2617 44.4727 41.9922 46.6484 41.9922C48.8242 41.9922 50.5859 43.2617 50.5859 44.8281Z" fill="#BFBFBF"/>
<path d="M20.582 50.8086L7.92578 41.6875C7.77344 41.5977 7.67969 41.4336 7.67969 41.2578C7.67969 41.0781 7.77344 40.918 7.92578 40.8281L31.6602 23.7188C32.0234 23.4844 32.4922 23.4844 32.8516 23.7188L45.5117 32.8438C45.6641 32.9336 45.7578 33.0977 45.7578 33.2734C45.7578 33.4492 45.6641 33.6133 45.5117 33.7031L21.7773 50.8086C21.4141 51.0469 20.9453 51.0469 20.582 50.8086Z" fill="#EDEBEB"/>
<path d="M20.582 42.8242L7.92578 33.6992C7.77344 33.6094 7.67969 33.4453 7.67969 33.2695C7.67969 33.0938 7.77344 32.9297 7.92578 32.8398L31.6602 15.7344C32.0234 15.4961 32.4922 15.4961 32.8555 15.7344L45.5117 24.8594C45.6641 24.9492 45.7578 25.1094 45.7578 25.2891C45.7578 25.4648 45.6641 25.6289 45.5117 25.7188L21.7773 42.8242C21.4141 43.0625 20.9453 43.0625 20.582 42.8242Z" fill="#EDEBEB"/>
<path d="M20.582 45.4766L7.92578 36.3516C7.77344 36.2617 7.67969 36.0977 7.67969 35.918C7.67969 35.7422 7.77344 35.5781 7.92578 35.4883L31.6602 18.3867C32.0234 18.1484 32.4922 18.1484 32.8516 18.3867L45.5117 27.5078C45.6641 27.5977 45.7578 27.7617 45.7578 27.9375C45.7578 28.1172 45.6641 28.2773 45.5117 28.3672L21.7773 45.4766C21.4141 45.7148 20.9453 45.7148 20.582 45.4766Z" fill="#EDEBEB"/>
<path d="M20.582 48.1562L7.92578 39.0312C7.77344 38.9414 7.67969 38.7773 7.67969 38.6016C7.67969 38.4258 7.77344 38.2617 7.92578 38.1719L31.6602 21.0664C32.0234 20.8281 32.4922 20.8281 32.8516 21.0664L45.5117 30.1875C45.6641 30.2773 45.7578 30.4414 45.7578 30.6172C45.7578 30.7969 45.6641 30.957 45.5117 31.0469L21.7773 48.1562C21.4141 48.3906 20.9453 48.3906 20.582 48.1562Z" fill="#EDEBEB"/>
<path d="M20.3242 40.0586L7.66406 30.9336C7.51172 30.8438 7.42188 30.6797 7.42188 30.5039C7.42188 30.3281 7.51172 30.1641 7.66406 30.0742L31.3984 12.9648C31.7617 12.7305 32.2305 12.7305 32.5938 12.9648L45.2539 22.0898C45.4062 22.1797 45.5 22.3438 45.5 22.5195C45.5 22.6953 45.4062 22.8594 45.2539 22.9492L21.5195 40.0586C21.1562 40.293 20.6875 40.293 20.3242 40.0586Z" fill="#EDEBEB"/>
<path d="M19.7891 36.9023L12.3008 31.5039V29.3086L30.6016 16.1211H33.6484L41.1367 21.5195V23.7148L22.8359 36.9062L19.7891 36.9023Z" fill="#C3E7E8"/>
<path d="M31.8555 26.5117C31.8555 28.5586 29.5547 30.2148 26.7188 30.2148C23.8828 30.2148 21.582 28.5586 21.582 26.5117C21.582 24.4687 23.8828 22.8086 26.7188 22.8086C29.5547 22.8086 31.8555 24.4687 31.8555 26.5117Z" fill="#384449"/>
<path d="M16.0039 9.48047L14.9961 11.3242C14.9648 11.3828 14.9141 11.4336 14.8555 11.4648L13.0117 12.4727C12.8984 12.5391 12.8242 12.6562 12.8242 12.7891C12.8242 12.918 12.8984 13.0391 13.0117 13.1016L14.8555 14.1094C14.9141 14.1445 14.9648 14.1914 14.9961 14.2539L16.0039 16.0938C16.0664 16.2109 16.1875 16.2812 16.3164 16.2812C16.4492 16.2812 16.5703 16.2109 16.6328 16.0938L17.6406 14.2539C17.6719 14.1914 17.7227 14.1445 17.7812 14.1094L19.625 13.1016C19.7383 13.0391 19.8125 12.918 19.8125 12.7852C19.8125 12.6563 19.7383 12.5352 19.625 12.4727L17.7812 11.4648C17.7227 11.4336 17.6719 11.3828 17.6406 11.3242L16.6328 9.48047C16.5703 9.36328 16.4492 9.29297 16.3164 9.29297C16.1875 9.29297 16.0664 9.36719 16.0039 9.48047Z" fill="#EDEBEB"/>
<path d="M24.3633 5.75391L23.6758 7.01562C23.6523 7.05469 23.6172 7.08984 23.5781 7.11328L22.3164 7.80078C22.2383 7.84375 22.1875 7.92578 22.1875 8.01562C22.1875 8.10547 22.2383 8.1875 22.3164 8.23047L23.5781 8.91797C23.6172 8.94141 23.6523 8.97656 23.6758 9.01953L24.3633 10.2812C24.4063 10.3594 24.4883 10.4062 24.5781 10.4062C24.668 10.4062 24.75 10.3594 24.793 10.2812L25.4844 9.01953C25.5078 8.97656 25.5391 8.94141 25.582 8.91797L26.8438 8.23047C26.9219 8.1875 26.9727 8.10547 26.9727 8.01562C26.9727 7.92578 26.9219 7.84375 26.8438 7.80078L25.582 7.10938C25.5391 7.08594 25.5078 7.05469 25.4844 7.01172L24.793 5.75C24.75 5.67188 24.668 5.625 24.5781 5.625C24.4883 5.625 24.4063 5.67578 24.3633 5.75391Z" fill="#EDEBEB"/>
<path d="M53.5703 27.9961L52.8398 29.3281C52.8164 29.3711 52.7813 29.4062 52.7383 29.4297L51.4062 30.1602C51.3203 30.207 51.2695 30.293 51.2695 30.3867C51.2695 30.4805 51.3203 30.5703 51.4062 30.6133L52.7383 31.3438C52.7813 31.3672 52.8164 31.4023 52.8398 31.4414L53.5703 32.7773C53.6133 32.8594 53.7031 32.9102 53.7969 32.9102C53.8906 32.9102 53.9766 32.8594 54.0234 32.7773L54.7539 31.4414C54.7773 31.4023 54.8125 31.3672 54.8555 31.3438L56.1875 30.6133C56.2734 30.5703 56.3242 30.4805 56.3242 30.3867C56.3242 30.293 56.2734 30.207 56.1875 30.1602L54.8555 29.4297C54.8125 29.4062 54.7773 29.3711 54.7539 29.3281L54.0234 27.9961C53.9766 27.9102 53.8906 27.8594 53.7969 27.8594C53.7031 27.8594 53.6133 27.9102 53.5703 27.9961Z" fill="#EDEBEB"/>
<path d="M22.8359 37.4023H19.7891C19.6875 37.4023 19.5859 37.3711 19.5 37.3086L12.0117 31.9102C11.8789 31.8164 11.8008 31.6641 11.8008 31.5039V29.3086C11.8008 29.1484 11.8789 28.9961 12.0117 28.9023L30.3086 15.7148C30.3945 15.6523 30.4961 15.6211 30.6016 15.6211H33.6484C33.7539 15.6211 33.8555 15.6523 33.9414 15.7148L41.4336 21.1133C41.5625 21.2109 41.6406 21.3594 41.6406 21.5195V23.7148C41.6406 23.8789 41.5625 24.0273 41.4336 24.1211L23.1289 37.3086C23.043 37.3711 22.9414 37.4023 22.8359 37.4023ZM19.9531 36.4023H22.6758L40.6367 23.457V21.7734L33.4883 16.6211H30.7617L12.8008 29.5664V31.25L19.9531 36.4023Z" fill="#263238"/>
<path d="M46.2617 27.9492C46.2539 27.6172 46.082 27.3047 45.8047 27.1211L45.125 26.6328L45.8047 26.1406C46.0898 25.957 46.2617 25.6406 46.2617 25.3047C46.2617 24.9648 46.0898 24.6484 45.8047 24.4648L45.0352 23.9102L45.8047 23.3555C46.0898 23.1719 46.2617 22.8594 46.2617 22.5195C46.2617 22.1836 46.0898 21.8672 45.8047 21.6836L33.1445 12.5625C32.6094 12.1953 31.9023 12.1953 31.3672 12.5625L7.63281 29.668C7.34766 29.8516 7.17578 30.1641 7.17578 30.5039C7.17578 30.8398 7.34766 31.1562 7.63281 31.3398L8.40234 31.8945L7.62891 32.4531C7.34766 32.6367 7.17578 32.9531 7.17578 33.2891C7.17578 33.625 7.34766 33.9375 7.62891 34.1211L8.30859 34.6133L7.625 35.1055C7.34766 35.293 7.17969 35.6094 7.17578 35.9453C7.18359 36.2773 7.35156 36.5859 7.62891 36.7734L8.30859 37.2656L7.625 37.7539C7.34375 37.9414 7.17578 38.2539 7.17578 38.5898C7.17578 38.9297 7.34375 39.2422 7.625 39.4297L8.30469 39.918L7.62891 40.4062C7.34375 40.5898 7.17188 40.9062 7.17188 41.2422C7.17188 41.582 7.34375 41.8945 7.62891 42.0781L20.2891 51.1992C20.8242 51.5664 21.5312 51.5664 22.0664 51.1992L45.8008 34.0938C46.082 33.9102 46.25 33.6016 46.2617 33.2656C46.2539 32.9258 46.082 32.6133 45.8047 32.4219L45.125 31.9336L45.8008 31.4453C46.082 31.2578 46.2539 30.9492 46.2617 30.6133C46.2539 30.2734 46.082 29.9609 45.8047 29.7734L45.1211 29.2812L45.8047 28.793C46.0859 28.6016 46.2539 28.2891 46.2617 27.9492ZM8.1875 30.5039C8.19531 30.4961 8.20703 30.4844 8.21875 30.4766L31.9492 13.3711C32.1367 13.2617 32.3711 13.2617 32.5586 13.3711L45.2188 22.4961C45.2344 22.5078 45.2461 22.5156 45.25 22.5195C45.2422 22.5273 45.2305 22.5352 45.2188 22.5469L21.4844 39.6484C21.2969 39.7617 21.0625 39.7617 20.875 39.6484L8.21875 30.5273C8.20703 30.5195 8.19531 30.5117 8.1875 30.5039ZM8.1875 33.2891C8.19531 33.2773 8.20312 33.2695 8.21484 33.2617L9.25781 32.5117L20.293 40.4609C20.8281 40.8281 21.5352 40.8281 22.0703 40.4609L44.1797 24.5273L45.2188 25.2773C45.2383 25.2891 45.2461 25.2969 45.2539 25.3008C45.2422 25.3125 45.2344 25.3203 45.2188 25.3281L44.0117 26.1992L44 26.2109L32.7402 34.3242L21.4805 42.4375C21.293 42.5469 21.0625 42.5469 20.875 42.4375L9.43359 34.1914L9.42188 34.1797L8.21484 33.3086C8.19922 33.3008 8.19141 33.293 8.18359 33.2891H8.1875ZM45.2188 33.2344C45.2344 33.2422 45.2461 33.2539 45.2539 33.2578C45.2422 33.2656 45.2305 33.2734 45.2188 33.2812L21.4805 50.3906C21.2969 50.5039 21.0625 50.5039 20.8789 50.3906L8.21875 41.2695C8.20703 41.2617 8.19531 41.2539 8.18359 41.2461C8.19531 41.2344 8.20312 41.2266 8.21484 41.2188L9.16406 40.5352L20.293 48.5508C20.832 48.9062 21.5312 48.9062 22.0664 48.5508L44.2695 32.5508L45.2188 33.2344ZM45.2539 30.6055C45.2422 30.6133 45.2344 30.6211 45.2227 30.6289L45.2188 30.6328L44.0156 31.5C44.0078 31.5039 44.0039 31.5078 43.9961 31.5117L21.4844 47.7383C21.2969 47.8477 21.0625 47.8477 20.875 47.7383L9.4375 39.4961C9.42969 39.4922 9.42578 39.4883 9.42188 39.4883L8.21875 38.6172C8.20703 38.6094 8.19531 38.6016 8.18359 38.5938C8.19141 38.582 8.20312 38.5742 8.21484 38.5664L9.16406 37.8828L20.293 45.8984C20.832 46.2578 21.5312 46.2578 22.0664 45.8984L44.2656 29.8945L45.2188 30.582C45.2344 30.5938 45.2422 30.6016 45.25 30.6055H45.2539ZM45.2227 27.9805L43.9766 28.8711L21.4844 45.0898C21.2969 45.1992 21.0625 45.1992 20.875 45.0898L9.46094 36.8594L8.21484 35.9609C8.20312 35.9531 8.19531 35.9453 8.18359 35.9375C8.19531 35.9297 8.20312 35.9219 8.21484 35.9141L9.16406 35.2266L20.2891 43.2422C20.8281 43.6055 21.5312 43.6055 22.0664 43.2422L44.2695 27.25L45.2227 27.9375C45.2344 27.9453 45.2422 27.9531 45.25 27.957C45.2422 27.9648 45.2305 27.9727 45.2188 27.9805H45.2227Z" fill="#263238"/>
<path d="M26.7188 30.707C25.3203 30.7305 23.9492 30.3203 22.793 29.5352C21.7305 28.8984 21.082 27.75 21.082 26.5117C21.082 25.2734 21.7305 24.125 22.793 23.4883C25.1797 21.9297 28.2617 21.9297 30.6445 23.4883C31.707 24.125 32.3555 25.2734 32.3555 26.5117C32.3555 27.75 31.707 28.8984 30.6445 29.5352C29.4883 30.3203 28.1172 30.7305 26.7188 30.707ZM26.7188 23.3047C25.5312 23.2852 24.3633 23.6328 23.3789 24.3008C22.6094 24.7812 22.125 25.6055 22.0781 26.5117C22.125 27.418 22.6094 28.2422 23.3789 28.7266C25.4062 30.0508 28.0312 30.0508 30.0586 28.7266C30.8242 28.2422 31.3086 27.418 31.3555 26.5117C31.3086 25.6094 30.8242 24.7812 30.0586 24.3008C29.0742 23.6328 27.9062 23.2852 26.7188 23.3047Z" fill="#263238"/>
<path d="M50.8945 41.9531C51.1445 41.3438 51.1445 40.6602 50.8984 40.0469C51.0234 39.7422 51.0859 39.4141 51.0859 39.082C51.0586 38.1016 50.5469 37.1992 49.7266 36.668C47.8633 35.4258 45.4336 35.4258 43.5703 36.668C42.75 37.1992 42.2422 38.1016 42.2109 39.082C42.2109 39.4102 42.2734 39.7383 42.3984 40.043C42.1484 40.6562 42.1523 41.3398 42.3984 41.9531C42.1484 42.5703 42.1484 43.2617 42.4062 43.8789C41.9336 45.0742 42.3672 46.3711 43.5703 47.2344C45.4336 48.4805 47.8594 48.4805 49.7227 47.2344C50.9297 46.3711 51.3633 45.0742 50.8906 43.8789C51.1445 43.2617 51.1445 42.5703 50.8945 41.9531ZM43.5703 41.4922C45.4336 42.7383 47.8633 42.7383 49.7266 41.4922C49.8398 41.4102 49.9492 41.3203 50.0547 41.2266C50.0312 41.4063 49.9766 41.5781 49.8984 41.7383C49.7383 42.0547 49.5039 42.3281 49.2188 42.5352C49.1914 42.5586 49.1602 42.582 49.1406 42.5977C47.6289 43.5859 45.6758 43.5898 44.1602 42.6055C44.1328 42.582 44.1016 42.5586 44.0547 42.5195C43.7773 42.3086 43.5508 42.0391 43.3906 41.7305C43.3125 41.5703 43.2617 41.3984 43.2383 41.2227C43.3438 41.3203 43.457 41.4102 43.5703 41.4922ZM43.3906 43.6445C43.3125 43.4805 43.2617 43.3086 43.2383 43.1328C43.2969 43.1836 43.3516 43.2383 43.4141 43.2891C43.4648 43.332 43.5117 43.3672 43.5703 43.4102C45.4375 44.6563 47.8672 44.6523 49.7305 43.4063C49.7812 43.3672 49.832 43.332 49.8555 43.3047C49.9258 43.25 49.9922 43.1914 50.0547 43.1328C50.0312 43.3125 49.9766 43.4883 49.8945 43.6523C49.7188 44 49.4609 44.293 49.1367 44.5078C47.625 45.5 45.668 45.5 44.1562 44.5078C43.832 44.2891 43.5703 43.9922 43.3906 43.6406V43.6445ZM44.1562 37.4805C45.6719 36.4883 47.6289 36.4883 49.1406 37.4805C49.7266 37.8008 50.0859 38.4141 50.0859 39.082C50.0859 39.7461 49.7266 40.3594 49.1406 40.6836C47.6289 41.6719 45.6719 41.6719 44.1562 40.6836C43.5742 40.3594 43.2109 39.7461 43.2109 39.082C43.2109 38.4141 43.5742 37.8008 44.1562 37.4805ZM49.1406 46.4258C47.625 47.418 45.668 47.418 44.1562 46.4258C43.6719 46.1133 43.3359 45.6133 43.2305 45.0469C43.3398 45.1445 43.4531 45.2383 43.5703 45.3242C45.4336 46.5664 47.8594 46.5664 49.7188 45.3242C49.8398 45.2383 49.9531 45.1484 50.0625 45.0508C49.9531 45.6172 49.6211 46.1133 49.1406 46.4258Z" fill="#263238"/>
<path d="M35.4883 51.8594C34.3945 51.875 33.3203 51.5508 32.4141 50.9297C31.9609 50.6094 31.5937 50.1875 31.3398 49.6914C30.7109 48.4375 31.1328 47.0273 32.4141 46.1055C34.2773 44.8594 36.707 44.8594 38.5703 46.1055C39.8516 47.0273 40.2734 48.4336 39.6445 49.6953C39.4219 50.1406 39.0977 50.5273 38.6992 50.8242C38.6758 50.8477 38.625 50.8867 38.5781 50.9219C37.668 51.5469 36.5898 51.875 35.4883 51.8594ZM35.4883 46.1719C34.6016 46.1563 33.7344 46.418 33 46.9141C32.1211 47.5469 31.832 48.4414 32.2383 49.25C32.418 49.5977 32.6797 49.8945 33 50.1172C34.5117 51.1094 36.4687 51.1094 37.9844 50.1172C38.0039 50.1016 38.0352 50.0781 38.0664 50.0547C38.3516 49.8437 38.582 49.5742 38.7422 49.2578L38.75 49.25C39.1562 48.4414 38.8633 47.5508 37.9883 46.918C37.2539 46.418 36.3789 46.1563 35.4922 46.1719H35.4883Z" fill="#263238"/>
<path d="M39.7344 49.4609C40.207 48.2656 39.7734 46.9727 38.5703 46.1055C36.707 44.8594 34.2773 44.8594 32.4141 46.1055C31.2109 46.9727 30.7773 48.2695 31.25 49.4609C30.9922 50.082 30.9922 50.7773 31.25 51.3984C30.7773 52.5977 31.2109 53.8906 32.4141 54.7617C34.2773 56.0039 36.707 56.0039 38.5703 54.7617C39.7773 53.8906 40.207 52.5977 39.7344 51.3984C39.9922 50.7773 39.9922 50.082 39.7344 49.4609ZM32.2344 51.1602C32.1562 51.0039 32.1055 50.832 32.082 50.6562C32.1875 50.7539 32.2969 50.8438 32.4141 50.9258C34.2812 52.1719 36.7109 52.1719 38.5742 50.9219C38.625 50.8867 38.6758 50.8477 38.6992 50.8242C38.7695 50.7695 38.8359 50.7109 38.8984 50.6523C38.875 50.832 38.8203 51.0078 38.7422 51.168C38.5664 51.5156 38.3047 51.8125 37.9844 52.0352C36.4687 53.0234 34.5117 53.0234 32.9961 52.0352C32.6719 51.8125 32.4102 51.5117 32.2383 51.1602H32.2344ZM33 46.9141C34.5156 45.9258 36.4727 45.9258 37.9844 46.9141C38.8633 47.5469 39.1562 48.4414 38.7461 49.25L38.7422 49.2578C38.582 49.5703 38.3516 49.8437 38.0664 50.0547C38.0352 50.0781 38.0078 50.1016 37.9844 50.1172C36.4727 51.1094 34.5156 51.1094 33 50.1172C32.6797 49.8945 32.418 49.5977 32.2383 49.25C31.832 48.4414 32.1211 47.5469 33 46.9141ZM37.9844 53.9492C36.4727 54.9414 34.5156 54.9414 33 53.9492C32.5156 53.6367 32.1836 53.1406 32.0742 52.5742C32.1836 52.6719 32.2969 52.7617 32.4141 52.8477C34.2773 54.0938 36.707 54.0938 38.5703 52.8477C38.6875 52.7617 38.8008 52.6719 38.9102 52.5742C38.8047 53.1406 38.4687 53.6367 37.9844 53.9492Z" fill="#263238"/>
<path d="M52.1016 53.5508C52.0703 52.5703 51.5625 51.668 50.7383 51.1367C48.875 49.8945 46.4492 49.8945 44.5859 51.1367C43.7617 51.668 43.2539 52.5703 43.2266 53.5508C43.2266 53.8828 43.2891 54.2148 43.4141 54.5273C42.9492 55.7188 43.3867 57.0078 44.5898 57.875C46.4492 59.1211 48.8789 59.1211 50.7383 57.875C51.9414 57.0117 52.3789 55.7188 51.9102 54.5273C52.0352 54.2148 52.1016 53.8828 52.1016 53.5508ZM45.1719 51.9492C46.6836 50.9609 48.6406 50.9609 50.1562 51.9492C50.7383 52.2734 51.1016 52.8867 51.1016 53.5508C51.1016 54.2188 50.7383 54.832 50.1562 55.1523C48.6406 56.1445 46.6836 56.1445 45.1719 55.1523C44.5859 54.832 44.2227 54.2188 44.2227 53.5508C44.2227 52.8828 44.5859 52.2695 45.1719 51.9492ZM50.1523 57.0664C48.6406 58.0547 46.6836 58.0547 45.1719 57.0664C44.6875 56.7539 44.3516 56.2539 44.2422 55.6875C44.3516 55.7852 44.4648 55.8789 44.5859 55.9648C46.4492 57.207 48.875 57.207 50.7383 55.9648C50.8594 55.8789 50.9727 55.7852 51.082 55.6875C50.9727 56.2539 50.6367 56.75 50.1523 57.0664Z" fill="#263238"/>
<path d="M56.0586 29.3398L55.2734 28.9102L54.8438 28.125C54.6328 27.7422 54.2344 27.5039 53.7969 27.5039C53.3594 27.5039 52.9609 27.7422 52.75 28.125L52.3203 28.9102L51.5352 29.3398C51.1523 29.5508 50.918 29.9492 50.918 30.3867C50.918 30.8242 51.1523 31.2227 51.5352 31.4336L52.3203 31.8633L52.75 32.6484C52.9609 33.0312 53.3594 33.2656 53.7969 33.2656C54.2305 33.2656 54.6328 33.0312 54.8438 32.6484L55.2734 31.8633L56.0586 31.4336C56.4375 31.2227 56.6758 30.8242 56.6758 30.3867C56.6758 29.9492 56.4375 29.5508 56.0586 29.3398ZM55.5781 30.5547L54.5859 31.1016C54.5508 31.1172 54.5273 31.1445 54.5078 31.1758L53.9648 32.168C53.9336 32.2305 53.8672 32.2695 53.7969 32.2695C53.7266 32.2695 53.6602 32.2305 53.6289 32.168L53.0859 31.1758C53.0664 31.1445 53.0391 31.1172 53.0078 31.0977L52.0156 30.5547C51.9531 30.5234 51.9141 30.457 51.9141 30.3867C51.9141 30.3164 51.9531 30.25 52.0156 30.2188L53.0078 29.6758C53.0391 29.6563 53.0664 29.6289 53.0859 29.5977L53.6289 28.6055C53.6602 28.543 53.7266 28.5078 53.7969 28.5078C53.8672 28.5078 53.9336 28.543 53.9648 28.6055L54.5078 29.5977C54.5273 29.6289 54.5508 29.6563 54.5859 29.6758L55.5781 30.2188C55.6406 30.25 55.6758 30.3164 55.6758 30.3867C55.6758 30.457 55.6406 30.5234 55.5781 30.5547Z" fill="#263238"/>
<path d="M26.8398 6.96875L26.0547 6.53906L25.625 5.75391C25.4141 5.375 25.0156 5.13672 24.5781 5.13672C24.1445 5.13672 23.7422 5.37109 23.5312 5.75391L23.1016 6.53906L22.3203 6.96875C21.9375 7.17969 21.6992 7.57812 21.6992 8.01562C21.6992 8.45312 21.9375 8.85156 22.3203 9.0625L23.1016 9.49219L23.5312 10.2773C23.7422 10.6602 24.1445 10.8945 24.5781 10.8945C25.0156 10.8945 25.4141 10.6602 25.625 10.2773L26.0547 9.49219L26.8398 9.0625C27.2227 8.85156 27.4609 8.45312 27.4609 8.01562C27.4609 7.57812 27.2227 7.17969 26.8398 6.96875ZM26.3594 8.18359L25.3672 8.72656C25.3359 8.74609 25.3086 8.77344 25.2891 8.80469L24.75 9.79687C24.7148 9.85937 24.6523 9.89453 24.582 9.89453C24.5117 9.89453 24.4453 9.85937 24.4141 9.79687L23.8711 8.80469C23.8516 8.77344 23.8242 8.74609 23.793 8.72656L22.8008 8.18359C22.7383 8.15234 22.6992 8.08594 22.6992 8.01562C22.6992 7.94531 22.7383 7.87891 22.8008 7.84766L23.793 7.30469C23.7773 7.33984 23.8242 7.28516 23.793 7.30469L24.4102 6.23437C24.4453 6.17187 24.5117 6.13672 24.582 6.13672C24.6523 6.13672 24.7148 6.17187 24.75 6.23437L25.293 7.22656C25.3086 7.26172 25.3359 7.28516 25.3672 7.30469L26.3594 7.84766C26.4219 7.88281 26.4609 7.94531 26.4609 8.01562C26.4609 8.08594 26.4219 8.15234 26.3594 8.18359Z" fill="#263238"/>
<path d="M19.5352 11.6484L18.1914 10.9141L17.457 9.57031C17.2266 9.15234 16.793 8.89453 16.3164 8.89453C15.8438 8.89453 15.4102 9.15234 15.1797 9.57031L14.4453 10.9141L13.1016 11.6484C12.6836 11.8789 12.4258 12.3125 12.4258 12.7891C12.4258 13.2617 12.6836 13.6953 13.1016 13.9258L14.4453 14.6602L15.1797 16.0039C15.4063 16.4219 15.8438 16.6797 16.3164 16.6797C16.793 16.6797 17.2266 16.4219 17.4531 16.0039L18.1914 14.6602L19.5352 13.9258C19.9531 13.6953 20.2109 13.2617 20.2109 12.7891C20.2109 12.3125 19.9531 11.8789 19.5352 11.6484ZM19.0547 13.0508L17.5312 13.8828C17.4805 13.9102 17.4414 13.9531 17.4141 14.0039L16.5781 15.5273C16.5273 15.625 16.4258 15.6836 16.3164 15.6836C16.2109 15.6836 16.1094 15.625 16.0586 15.5273L15.2227 14C15.1953 13.9492 15.1562 13.9102 15.1055 13.8828L13.582 13.0508C13.4844 13 13.4258 12.8984 13.4258 12.7891C13.4258 12.6836 13.4844 12.582 13.582 12.5312L15.1055 11.6953C15.1562 11.668 15.1953 11.6289 15.2227 11.5781L16.0586 10.0508C16.1094 9.95313 16.2109 9.89453 16.3164 9.89453C16.4258 9.89453 16.5273 9.95313 16.5781 10.0508L17.4141 11.5742C17.4414 11.625 17.4805 11.668 17.5312 11.6953L19.0547 12.5273C19.1523 12.5781 19.2109 12.6797 19.2109 12.7891C19.2109 12.8984 19.1523 13 19.0547 13.0508Z" fill="#263238"/>
<path d="M28.9346 27.4354L27.7664 28.4949C27.5763 28.6674 27.2913 28.6535 27.1189 28.4633C26.9464 28.2732 26.9603 27.9882 27.1504 27.8158L28.3186 26.7563C28.4952 26.5961 28.5214 26.3248 28.3612 26.1482C28.2011 25.9716 27.9297 25.9454 27.7531 26.1055L27.7396 26.1179L27.0061 26.7831C26.4492 27.2882 25.5956 27.2206 25.0905 26.6637C24.5977 26.1204 24.6517 25.2792 25.1827 24.7728L26.2151 23.8365C26.4052 23.6641 26.6901 23.678 26.8626 23.8681C27.0351 24.0583 27.0212 24.3432 26.831 24.5157L25.7987 25.452C25.6221 25.6121 25.6218 25.8848 25.782 26.0613C25.9421 26.2379 26.2012 26.2505 26.3778 26.0904L27.1112 25.4251C27.6681 24.92 28.5106 24.9481 29.0293 25.4927C29.5344 26.0496 29.5063 26.8921 28.9617 27.4108C28.9482 27.4231 28.9482 27.4231 28.9346 27.4354Z" fill="#EDEBEB"/>
<path d="M28.9867 28.2299C28.8347 28.3677 28.5797 28.3266 28.4072 28.1365L25.1918 24.5913C25.0193 24.4011 25.0032 24.1434 25.1552 24.0055C25.3072 23.8677 25.5622 23.9088 25.7347 24.0989L28.9501 27.6441C29.1103 27.8207 29.1387 28.092 28.9867 28.2299Z" fill="#EDEBEB"/>
</svg>
