<svg width="64" height="64" viewBox="0 0 64 64" fill="none" xmlns="http://www.w3.org/2000/svg">
<circle cx="32" cy="25" r="9" fill="#384449"/>
<path d="M0 55C0 50.0375 4.93496 46 11 46C17.065 46 22 50.0375 22 55H0Z" fill="white"/>
<path d="M14 55C14 47.8319 22.0754 42 32 42C41.9246 42 50 47.8319 50 55H14Z" fill="white"/>
<path d="M50 55C50 48.3833 41.9246 43 32 43V55H50Z" fill="#B5D8DA"/>
<path d="M62 55C62 48.9347 53.9246 44 44 44V55H62Z" fill="#B5D8DA"/>
<path d="M32 13.5C25.65 13.5 20.5 18.65 20.5 25C20.5 31.35 25.65 36.5 32 36.5C38.35 36.5 43.5 31.35 43.5 25C43.5 18.65 38.35 13.5 32 13.5ZM32 16.5C36.7 16.5 40.5 20.3 40.5 25C40.5 29.7 36.7 33.5 32 33.5C27.3 33.5 23.5 29.7 23.5 25C23.5 20.3 27.3 16.5 32 16.5ZM17.25 18.5498C11.95 18.8498 7.75003 23.35 7.75003 28.75C7.75003 34.4 12.35 39 18 39C19.85 39 21.6502 38.4998 23.2002 37.5498C23.9002 37.1498 24.1502 36.2 23.7002 35.5C23.3002 34.8 22.3504 34.55 21.6504 35C20.5504 35.65 19.2502 36 17.9502 36C13.9502 36 10.7002 32.75 10.7002 28.75C10.7002 24.95 13.6502 21.7998 17.4502 21.5498C18.3002 21.4998 18.8996 20.8002 18.8496 19.9502C18.7996 19.1002 18.1 18.4998 17.25 18.5498ZM46.7002 18.5498C45.9002 18.4998 45.1496 19.1002 45.0996 19.9502C45.0496 20.8002 45.65 21.4998 46.5 21.5498C50.3 21.7998 53.25 24.95 53.25 28.75C53.25 32.75 50 36 46 36C44.7 36 43.3998 35.65 42.2998 35C41.5998 34.6 40.65 34.8 40.25 35.5C39.85 36.2 40.05 37.1498 40.75 37.5498C42.3 38.4998 44.1502 39 45.9502 39C51.6502 38.95 56.25 34.4 56.25 28.75C56.25 23.4 52.0502 18.8998 46.7002 18.5498ZM32 40.7002C23.8 40.7002 16.2004 45.15 12.1504 52.25C11.7504 53 12 53.8998 12.75 54.2998C13 54.4498 13.25 54.5 13.5 54.5C14 54.5 14.5498 54.25 14.7998 53.75C18.2998 47.55 24.8998 43.7002 32.0498 43.7002C39.1498 43.7002 45.7498 47.55 49.2998 53.75C49.6998 54.45 50.5996 54.6998 51.3496 54.2998C52.0496 53.8998 52.3004 53 51.9004 52.25C47.8004 45.15 40.2 40.7002 32 40.7002ZM12.9014 42.7549C12.8012 42.7602 12.6996 42.7748 12.5996 42.7998C7.49964 44.2498 3.10003 47.7 0.50003 52.25C0.10003 53 0.349834 53.8998 1.04983 54.2998C1.29983 54.4498 1.54983 54.5 1.79983 54.5C2.29983 54.5 2.84964 54.25 3.09964 53.75C5.29964 49.85 9.05042 46.9002 13.4004 45.7002C14.2004 45.5002 14.6502 44.6496 14.4502 43.8496C14.2752 43.1496 13.6028 42.718 12.9014 42.7549ZM51.0987 42.7549C50.3973 42.718 49.7248 43.1496 49.5498 43.8496C49.3498 44.6496 49.7996 45.5002 50.5996 45.7002C54.8996 46.9002 58.6504 49.85 60.9004 53.75C61.2004 54.25 61.7002 54.5 62.2002 54.5C62.4502 54.5 62.7002 54.4498 62.9502 54.2998C63.6502 53.8998 63.9 53 63.5 52.25C60.9 47.7 56.5004 44.2498 51.4004 42.7998C51.3004 42.7748 51.1989 42.7602 51.0987 42.7549Z" fill="#384449"/>
</svg>
