<svg width="50" height="37" viewBox="0 0 50 37" fill="none" xmlns="http://www.w3.org/2000/svg">
<path d="M3.20036 19.3736C4.12028 17.7208 4.41347 15.9246 4.05051 14.1654C3.17052 9.91379 4.63221 5.84287 8.42063 3.37693C13.7006 -0.0775049 21.3072 1.00666 27.3627 1.86761C32.6426 2.62227 41.6215 3.90839 46.3197 9.37171C51.8532 15.8235 48.9597 25.3153 42.0839 30.5554C34.6263 36.2951 24.5736 35.6148 21.352 35.5723C20.2035 35.5723 10.4043 35.9018 4.94542 32.1285C4.78136 32.0116 4.5278 31.8309 4.19967 31.5758C2.85655 30.4858 1.89535 29.1843 1.39495 27.7782C0.894552 26.3721 0.869236 24.9015 1.32108 23.4871C1.61329 22.5526 2.00724 21.6357 2.49936 20.7448C2.72308 20.2665 2.96172 19.8094 3.20036 19.3736Z" stroke="#036792" stroke-width="1.5" stroke-miterlimit="10"/>
<path d="M27.5574 29.6208C23.465 22.0386 23.5877 13.6293 27.9004 6.10938" stroke="#036792" stroke-width="1.5" stroke-miterlimit="10"/>
<path d="M8.91421 17.3965C13.5975 17.6835 19.8469 17.5984 24.5303 17.8961" stroke="#036792" stroke-width="1.5" stroke-miterlimit="10"/>
</svg>
