<svg width="50" height="50" viewBox="0 0 50 50" fill="none" xmlns="http://www.w3.org/2000/svg">
<rect x="36" y="10" width="8" height="9" fill="white"/>
<path d="M12.1026 3.5H13.5V5.95312V6.45312H14H27.5V8.6327C27.1754 8.55379 26.8418 8.49961 26.5 8.47271V7.95312V7.45312H26H14H13.5V7.95312V41.9531V42.4531H14H19.2348L19.3344 43.4531H14H13.5V43.9531V46.4531H12.1026L5.19696 43.4936L5.10263 43.4531H5H3.5V6.45312H4.5V6.75827L5.19696 6.45957L12.1026 3.5ZM39 11.4531H38.5V11.9531V13.4531H37H36.5V13.9531V15.9531V16.4531H37H38.5V17.9531V18.4531H39H41H41.5V17.9531V16.4531H43H43.5V15.9531V13.9531V13.4531H43H41.5V11.9531V11.4531H41H39ZM21.56 35.5481L21.5327 35.2733L21.2854 35.1501L19.5 34.2608V27.5C19.5 23.5799 22.4516 20.4531 26 20.4531C29.5484 20.4531 32.5 23.5799 32.5 27.5V34.2608L30.7146 35.1501L30.4673 35.2733L30.44 35.5481L29.4536 45.4531H22.5464L21.56 35.5481ZM33.5 10.9531C33.5 9.57692 34.6238 8.45312 36 8.45312H44C45.3762 8.45312 46.5 9.57692 46.5 10.9531V18.9531C46.5 20.3293 45.3762 21.4531 44 21.4531H36C34.6238 21.4531 33.5 20.3293 33.5 18.9531V10.9531ZM22.5 14.9531C22.5 13.0222 24.0691 11.4531 26 11.4531C27.9309 11.4531 29.5 13.0222 29.5 14.9531C29.5 16.884 27.9309 18.4531 26 18.4531C24.0691 18.4531 22.5 16.884 22.5 14.9531ZM11.5 25.9531C11.5 25.1262 10.8269 24.4531 10 24.4531C9.17308 24.4531 8.5 25.1262 8.5 25.9531C8.5 26.78 9.17308 27.4531 10 27.4531C10.8269 27.4531 11.5 26.78 11.5 25.9531Z" fill="#B5D8DA" stroke="black"/>
<path d="M12 4L4 7.5V43H5L12 46L13 46.0903V4H12Z" fill="black" stroke="black"/>
<circle cx="10" cy="24" r="1" fill="white"/>
</svg>
